<svg width="25" height="25" viewBox="0 0 25 25" fill="none" xmlns="http://www.w3.org/2000/svg">
<path d="M21.3384 3.66162C18.9762 1.29945 15.8407 0 12.5 0C9.1593 0 6.02378 1.29945 3.66162 3.66162C1.29945 6.02378 0 9.1593 0 12.5C0 15.8407 1.29945 18.9762 3.66162 21.3384C6.02378 23.7005 9.1593 25 12.5 25C15.8407 25 18.9762 23.7005 21.3384 21.3384C23.7005 18.9762 25 15.8407 25 12.5C25 9.1593 23.7005 6.02378 21.3384 3.66162ZM20.3335 20.3335C18.2397 22.4274 15.4566 23.5795 12.5 23.5795C9.54335 23.5795 6.76031 22.4274 4.66646 20.3335C0.347222 16.0143 0.347222 8.98569 4.66646 4.66646C6.76031 2.5726 9.54335 1.42045 12.5 1.42045C15.4566 1.42045 18.2397 2.5726 20.3335 4.66646C24.6528 8.98569 24.6528 16.0143 20.3335 20.3335Z" fill="#51C569"/>
<path d="M18.0078 6.99184C17.7289 6.71301 17.2818 6.71301 17.0029 6.99184L12.4996 11.4952L7.99619 6.99184C7.71736 6.71301 7.27018 6.71301 6.99135 6.99184C6.71252 7.27067 6.71252 7.71785 6.99135 7.99668L11.4947 12.5L6.99135 17.0034C6.71252 17.2822 6.71252 17.7294 6.99135 18.0083C7.12813 18.145 7.31227 18.2187 7.49114 18.2187C7.67001 18.2187 7.85414 18.1503 7.99093 18.0083L12.4943 13.5049L16.9977 18.0083C17.1344 18.145 17.3186 18.2187 17.4975 18.2187C17.6816 18.2187 17.8605 18.1503 17.9972 18.0083C18.2761 17.7294 18.2761 17.2822 17.9972 17.0034L13.5044 12.5L18.0078 7.99668C18.2866 7.71785 18.2866 7.27067 18.0078 6.99184Z" fill="#51C569"/>
</svg>
