<svg width="15" height="15" viewBox="0 0 15 15" fill="none" xmlns="http://www.w3.org/2000/svg">
<g clip-path="url(#clip0)">
<path d="M8.74998 8.12296H8.09423L8.42623 7.01655C8.47155 6.86514 8.44271 6.70115 8.34829 6.57446C8.25399 6.44766 8.10522 6.37293 7.94718 6.37305H6.96916C6.74864 6.37408 6.55454 6.5185 6.49023 6.72953L5.89021 8.7295C5.84478 8.88091 5.87373 9.0449 5.96815 9.1717C6.06256 9.29839 6.21134 9.37312 6.36949 9.373H7.18614L6.54619 11.294C6.50831 11.408 6.55683 11.5327 6.66166 11.5912C6.76649 11.6497 6.89821 11.6253 6.97523 11.5332L9.1337 8.94328C9.25798 8.79427 9.28476 8.58679 9.2026 8.41113C9.12043 8.23534 8.94396 8.12308 8.74998 8.12296ZM7.43975 10.1953L7.77071 9.20203C7.79611 9.12569 7.7833 9.04181 7.73615 8.97669C7.68911 8.91146 7.61358 8.87289 7.53324 8.87301H6.36949L6.96939 6.87304H7.94741L7.61541 7.97945C7.57009 8.13086 7.59893 8.29474 7.69323 8.42142C7.78753 8.54823 7.93619 8.62296 8.09423 8.62296H8.74998L7.43975 10.1953Z" fill="#81909F"/>
<path d="M14.5 5.12306H14C13.7239 5.12306 13.5 5.34691 13.5 5.62305V6.87309H13V5.62305C13 5.20878 12.6643 4.87301 12.25 4.87301H8.25005V4.37302H9.49997C9.77612 4.37302 9.99996 4.14917 9.99996 3.87302V3.62309C9.99916 2.93301 9.44 2.37385 8.75004 2.37305H6.24996C5.56 2.37385 5.00084 2.93301 5.00004 3.62309V3.87302C5.00004 4.14917 5.22388 4.37302 5.50003 4.37302H6.74995V4.87301H6.47747C6.27983 4.87415 6.08677 4.93217 5.92129 5.04032L4.05521 6.2875C3.9711 6.34254 3.87302 6.37218 3.77254 6.3731H2.99995C2.58579 6.3731 2.25002 6.70887 2.25002 7.12303V8.87306H1.49998V7.62302C1.49998 7.34688 1.27613 7.12303 0.999985 7.12303H0.499992C0.223846 7.12303 0 7.34688 0 7.62302V11.6231C0 11.8992 0.223846 12.1231 0.499992 12.1231H0.999985C1.27613 12.1231 1.49998 11.8992 1.49998 11.6231V10.373H2.25002V11.873C2.25002 12.2873 2.58579 12.6231 2.99995 12.6231H8.25005C8.46634 12.6225 8.67668 12.5525 8.84995 12.423L11.45 10.4731C11.5368 10.4085 11.6418 10.3735 11.75 10.373H12.25C12.6643 10.373 13 10.0373 13 9.62299V8.37307H13.5V9.62299C13.5 9.89914 13.7239 10.1231 14 10.1231H14.5C14.7762 10.1231 15 9.89914 15 9.62299V5.62305C15 5.34691 14.7762 5.12306 14.5 5.12306ZM5.50003 3.62309C5.50003 3.20881 5.8358 2.87304 6.24996 2.87304H8.75004C9.1642 2.87304 9.49997 3.20881 9.49997 3.62309V3.87302H5.50003V3.62309ZM7.24995 4.37302H7.75005V4.87301H7.24995V4.37302ZM0.999985 11.6231H0.499992V7.62302H0.999985V11.6231ZM1.49998 9.87305V9.37305H2.25002V9.87305H1.49998ZM12.5 9.62299C12.5 9.76112 12.3881 9.87305 12.25 9.87305H11.75C11.5337 9.8735 11.3234 9.94366 11.15 10.0731L8.55 12.023C8.46325 12.0876 8.35808 12.1226 8.25005 12.1231H2.99995C2.86194 12.1231 2.75002 12.0111 2.75002 11.873V7.12303C2.75002 6.98502 2.86194 6.87309 2.99995 6.87309H3.77254C3.97018 6.87195 4.16325 6.81393 4.32873 6.70578L6.1948 5.4586C6.27892 5.40356 6.37699 5.37392 6.47747 5.373H12.25C12.3881 5.373 12.5 5.48492 12.5 5.62305V9.62299ZM13 7.87308V7.37309H13.5V7.87308H13ZM14.5 9.62299H14V5.62305H14.5V9.62299Z" fill="#81909F"/>
<path d="M3.67752 7.44557C3.57727 7.3531 3.42277 7.3531 3.32252 7.44557C3.30055 7.46995 3.28281 7.49776 3.27011 7.52808C3.25603 7.55772 3.24917 7.59034 3.25008 7.62307C3.24882 7.72481 3.30948 7.81716 3.40332 7.85653C3.49716 7.8959 3.60553 7.8745 3.67729 7.80229C3.74904 7.73019 3.76998 7.6217 3.73004 7.52808C3.71734 7.49776 3.6996 7.46995 3.67752 7.44557Z" fill="#81909F"/>
<path d="M3.49994 8.37305C3.36192 8.37305 3.25 8.48497 3.25 8.62299V10.873C3.25 11.0111 3.36192 11.1231 3.49994 11.1231C3.63807 11.1231 3.74999 11.0111 3.74999 10.873V8.62299C3.74999 8.48497 3.63807 8.37305 3.49994 8.37305Z" fill="#81909F"/>
</g>
<defs>
<clipPath id="clip0">
<rect width="15" height="15" fill="white"/>
</clipPath>
</defs>
</svg>
