<svg width="40" height="40" viewBox="0 0 40 40" fill="none" xmlns="http://www.w3.org/2000/svg">
<path d="M25.9375 21.8752C25.5923 21.8752 25.3125 22.1551 25.3125 22.5002V33.75H4.0625V6.25H10.9375C11.2827 6.25 11.5625 5.97016 11.5625 5.625C11.5625 5.27984 11.2827 5 10.9375 5H4.0625V4.375C4.0625 2.65188 5.46438 1.25 7.1875 1.25H22.1875C22.5327 1.25 22.8125 0.970156 22.8125 0.625C22.8125 0.279844 22.5327 0 22.1875 0H7.1875C4.77516 0 2.8125 1.96266 2.8125 4.375V35.625C2.8125 38.0373 4.77516 40 7.1875 40H22.1875C24.5998 40 26.5625 38.0373 26.5625 35.625V22.5002C26.5625 22.1551 26.2827 21.8752 25.9375 21.8752ZM22.1875 38.75H7.1875C5.46438 38.75 4.0625 37.3481 4.0625 35.625V35H25.3125V35.625C25.3125 37.3481 23.9106 38.75 22.1875 38.75Z" fill="#34495E"/>
<path d="M15.9375 36.25H13.4375C13.0923 36.25 12.8125 36.5298 12.8125 36.875C12.8125 37.2202 13.0923 37.5 13.4375 37.5H15.9375C16.2827 37.5 16.5625 37.2202 16.5625 36.875C16.5625 36.5298 16.2827 36.25 15.9375 36.25Z" fill="#34495E"/>
<path d="M10.4953 2.68281C10.3789 2.79922 10.3125 2.96094 10.3125 3.125C10.3125 3.28906 10.3789 3.45078 10.4953 3.56719C10.6117 3.68359 10.7727 3.75 10.9375 3.75C11.1023 3.75 11.2633 3.68359 11.3797 3.56719C11.4961 3.45078 11.5625 3.28984 11.5625 3.125C11.5625 2.96016 11.4961 2.79922 11.3797 2.68281C11.2633 2.56641 11.1023 2.5 10.9375 2.5C10.7727 2.5 10.6117 2.56641 10.4953 2.68281Z" fill="#34495E"/>
<path d="M16.5625 10.625H20.3125C20.6577 10.625 20.9375 10.3452 20.9375 10C20.9375 9.65484 20.6577 9.375 20.3125 9.375H16.5625C16.2173 9.375 15.9375 9.65484 15.9375 10C15.9375 10.3452 16.2173 10.625 16.5625 10.625Z" fill="#34495E"/>
<path d="M32.8125 9.375H22.8125C22.4673 9.375 22.1875 9.65484 22.1875 10C22.1875 10.3452 22.4673 10.625 22.8125 10.625H32.8125C33.1577 10.625 33.4375 10.3452 33.4375 10C33.4375 9.65484 33.1577 9.375 32.8125 9.375Z" fill="#34495E"/>
<path d="M32.8125 12.5H29.0625C28.7173 12.5 28.4375 12.7798 28.4375 13.125C28.4375 13.4702 28.7173 13.75 29.0625 13.75H32.8125C33.1577 13.75 33.4375 13.4702 33.4375 13.125C33.4375 12.7798 33.1577 12.5 32.8125 12.5Z" fill="#34495E"/>
<path d="M16.5625 13.75H26.5625C26.9077 13.75 27.1875 13.4702 27.1875 13.125C27.1875 12.7798 26.9077 12.5 26.5625 12.5H16.5625C16.2173 12.5 15.9375 12.7798 15.9375 13.125C15.9375 13.4702 16.2173 13.75 16.5625 13.75Z" fill="#34495E"/>
<path d="M32.8125 6.25H16.5625C16.2173 6.25 15.9375 6.52984 15.9375 6.875C15.9375 7.22016 16.2173 7.5 16.5625 7.5H32.8125C33.1577 7.5 33.4375 7.22016 33.4375 6.875C33.4375 6.52984 33.1577 6.25 32.8125 6.25Z" fill="#34495E"/>
<path d="M32.8125 15.625H16.5625C16.2173 15.625 15.9375 15.9048 15.9375 16.25C15.9375 16.5952 16.2173 16.875 16.5625 16.875H32.8125C33.1577 16.875 33.4375 16.5952 33.4375 16.25C33.4375 15.9048 33.1577 15.625 32.8125 15.625Z" fill="#34495E"/>
<path d="M32.8125 2.5H16.5625C14.1502 2.5 12.1875 4.46266 12.1875 6.875V16.25C12.1875 18.4502 13.8201 20.2763 15.9375 20.5805V22.8661C15.9375 23.3735 16.2404 23.8268 16.7091 24.0209C16.8648 24.0854 17.0275 24.1167 17.1888 24.1167C17.5134 24.1167 17.8317 23.9897 18.0714 23.75L21.1964 20.625H32.8125C35.2248 20.625 37.1875 18.6623 37.1875 16.25V6.875C37.1875 4.46266 35.2248 2.5 32.8125 2.5ZM35.9375 16.25C35.9375 17.9731 34.5356 19.375 32.8125 19.375H20.9375C20.7717 19.375 20.6127 19.4409 20.4955 19.558L17.1875 22.8656V20C17.1875 19.6548 16.9077 19.375 16.5625 19.375C14.8394 19.375 13.4375 17.9731 13.4375 16.25V6.875C13.4375 5.15188 14.8394 3.75 16.5625 3.75H32.8125C34.5356 3.75 35.9375 5.15188 35.9375 6.875V16.25Z" fill="#34495E"/>
</svg>
