<svg width="11" height="11" viewBox="0 0 11 11" fill="none" xmlns="http://www.w3.org/2000/svg">
<path d="M5.49999 11C5.49898 11 5.49745 11 5.49593 11C5.41984 10.999 5.34832 10.9635 5.30114 10.9041C5.29607 10.898 4.81313 10.2898 4.40578 9.84542C3.41403 8.76236 1.53809 6.14526 1.53809 3.98829C1.53809 1.78919 3.3151 0 5.49999 0C7.68488 0 9.46189 1.78919 9.46189 3.98829C9.46189 6.28528 7.69857 8.74207 6.65711 9.83222C6.2178 10.2913 5.69935 10.9036 5.69428 10.9102C5.64507 10.967 5.57457 11 5.49999 11ZM5.49999 0.507278C3.59513 0.507278 2.04538 2.06921 2.04538 3.98828C2.04538 5.84393 3.68086 8.30224 4.77966 9.50197C5.04039 9.78606 5.32346 10.1259 5.50559 10.3491C5.70038 10.1244 6.0073 9.77642 6.28985 9.48118C7.27957 8.44631 8.95413 6.12446 8.95413 3.98828C8.95412 2.06922 7.40435 0.507278 5.49999 0.507278ZM5.49999 5.91547C4.43671 5.91547 3.57129 5.04496 3.57129 3.97458C3.57129 2.90421 4.43671 2.03321 5.49999 2.03321C6.56377 2.03321 7.42921 2.90422 7.42921 3.9746C7.4287 5.04496 6.56327 5.91547 5.49999 5.91547ZM5.49999 2.5405C4.71624 2.5405 4.07857 3.18374 4.07857 3.9746C4.07857 4.76546 4.71624 5.40818 5.49999 5.40818C6.28375 5.40818 6.92191 4.76494 6.92191 3.97458C6.92141 3.18374 6.28375 2.5405 5.49999 2.5405Z" fill="#34495E"/>
<path d="M5.49998 4.98516C4.90798 4.98516 4.42706 4.50426 4.42706 3.91276C4.42706 3.32076 4.90848 2.83984 5.49998 2.83984C6.09148 2.83984 6.57238 3.32126 6.57238 3.91276C6.57238 4.50425 6.09148 4.98516 5.49998 4.98516ZM5.49998 3.34712C5.18801 3.34712 4.93435 3.60077 4.93435 3.91275C4.93435 4.22422 5.18799 4.47786 5.49998 4.47786C5.81145 4.47786 6.0651 4.22422 6.0651 3.91275C6.0651 3.60077 5.81145 3.34712 5.49998 3.34712Z" fill="#34495E"/>
</svg>
