<svg width="20" height="20" viewBox="0 0 20 20" fill="none" xmlns="http://www.w3.org/2000/svg">
<path d="M19.4814 3.49424H7.15512V3.00686C7.15512 2.29201 6.57355 1.71045 5.85871 1.71045H3.84699C3.13215 1.71045 2.55059 2.29201 2.55059 3.00686V3.49424H0.518555C0.232148 3.49424 0 3.72646 0 4.01283C0 4.2992 0.232148 4.53139 0.518555 4.53139H2.55051V5.01861C2.55051 5.73346 3.13207 6.31502 3.84691 6.31502H5.85867C6.57352 6.31502 7.15508 5.73346 7.15508 5.01861V4.53139H19.4814C19.7678 4.53139 19.9999 4.29916 19.9999 4.01283C20 3.72646 19.7678 3.49424 19.4814 3.49424ZM6.11801 5.01861C6.11801 5.16158 6.00168 5.27791 5.85871 5.27791H3.84695C3.70398 5.27791 3.58766 5.16158 3.58766 5.01861V3.00686C3.58766 2.86389 3.70398 2.74756 3.84695 2.74756H5.85871C6.00168 2.74756 6.11801 2.86389 6.11801 3.00686V5.01861Z" fill="#51C569"/>
<path d="M19.4814 9.26978H17.4495V8.78225C17.4495 8.0674 16.8679 7.48584 16.153 7.48584H14.1413C13.4264 7.48584 12.8449 8.0674 12.8449 8.78225V9.26978H0.518555C0.232148 9.26978 0 9.50197 0 9.78834C0 10.0747 0.232148 10.3069 0.518555 10.3069H12.8448V10.794C12.8448 11.5088 13.4264 12.0904 14.1412 12.0904H16.153C16.8679 12.0904 17.4494 11.5088 17.4494 10.794V10.3069H19.4814C19.7678 10.3069 20 10.0747 20 9.78834C20 9.50197 19.7679 9.26978 19.4814 9.26978ZM16.4123 10.794C16.4123 10.937 16.296 11.0533 16.153 11.0533H14.1412C13.9983 11.0533 13.882 10.937 13.882 10.794V8.78225C13.882 8.63928 13.9983 8.52295 14.1412 8.52295H16.153C16.296 8.52295 16.4123 8.63928 16.4123 8.78225V10.794Z" fill="#51C569"/>
<path d="M19.4814 15.4697H10.7981V14.9824C10.7981 14.2676 10.2166 13.686 9.50172 13.686H7.48996C6.77512 13.686 6.19355 14.2676 6.19355 14.9824V15.4697H0.518555C0.232148 15.4697 0 15.7019 0 15.9882C0 16.2746 0.232148 16.5068 0.518555 16.5068H6.19352V16.9942C6.19352 17.709 6.77508 18.2906 7.48992 18.2906H9.50168C10.2165 18.2906 10.7981 17.709 10.7981 16.9942V16.5068H19.4814C19.7678 16.5068 20 16.2746 20 15.9882C20 15.7018 19.7679 15.4697 19.4814 15.4697ZM9.76098 16.9942C9.76098 17.1372 9.64465 17.2535 9.50168 17.2535H7.48992C7.34695 17.2535 7.23063 17.1372 7.23063 16.9942V14.9824C7.23063 14.8395 7.34695 14.7231 7.48992 14.7231H9.50168C9.64465 14.7231 9.76098 14.8395 9.76098 14.9824V16.9942Z" fill="#51C569"/>
</svg>
