<svg width="23" height="23" viewBox="0 0 23 23" fill="none" xmlns="http://www.w3.org/2000/svg">
<path d="M12.4699 11.7121L7.50799 8.12291C7.35619 8.01366 7.14574 8.02976 7.01234 8.16278C6.87894 8.29618 6.86245 8.50624 6.97247 8.65842L10.5624 13.6211C10.7978 13.945 11.1615 14.1485 11.5606 14.1796C11.5966 14.1823 11.6323 14.1834 11.6675 14.1834C12.0286 14.1834 12.3759 14.0408 12.6332 13.7832C12.9157 13.5007 13.0602 13.1101 13.0291 12.711C12.9981 12.312 12.7945 11.9482 12.4699 11.7121ZM12.0911 13.2412C11.9669 13.365 11.794 13.4282 11.6204 13.4148C11.4456 13.4014 11.2857 13.3117 11.183 13.1706L8.99302 10.1435L12.0194 12.3327C12.1617 12.4362 12.251 12.596 12.2648 12.7712C12.2786 12.9456 12.2149 13.1174 12.0911 13.2412Z" fill="#34495E"/>
<path d="M21.4976 9.9751C21.4972 9.97395 21.4976 9.97242 21.4972 9.97127C21.4968 9.96973 21.4957 9.96858 21.4953 9.96705C21.2607 9.09343 20.9134 8.2662 20.4718 7.49953C20.468 7.49148 20.468 7.48305 20.4634 7.475C20.4588 7.46733 20.4515 7.46312 20.4465 7.45583C20.059 6.79075 19.6005 6.17282 19.0795 5.61238L19.9026 4.78937L20.445 5.3314L22.0711 3.7053L20.445 2.07882L18.8185 3.7053L19.3605 4.24733L18.5375 5.07035C17.9771 4.54978 17.3591 4.09093 16.6941 3.70338C16.6868 3.6984 16.6826 3.69112 16.6749 3.68652C16.6672 3.68192 16.658 3.6823 16.6504 3.67808C15.8837 3.2361 15.0565 2.88918 14.1832 2.65458C14.1817 2.6542 14.1805 2.65305 14.179 2.65267C14.1775 2.65228 14.1763 2.65267 14.1752 2.65267C13.6799 2.52003 13.1708 2.42343 12.6499 2.36555V1.91667H13.2249C13.7535 1.91667 14.1832 1.48695 14.1832 0.958333C14.1832 0.429717 13.7535 0 13.2249 0H9.77489C9.24628 0 8.81656 0.429717 8.81656 0.958333C8.81656 1.48695 9.24628 1.91667 9.77489 1.91667H10.3499V2.36555C9.82894 2.42343 9.31988 2.52003 8.82499 2.65267C8.82346 2.65305 8.82231 2.65267 8.82116 2.65305C8.81963 2.65343 8.81848 2.65458 8.81694 2.65497C7.94371 2.88957 7.11648 3.23687 6.34981 3.67847C6.34176 3.6823 6.33294 3.6823 6.32489 3.6869C6.31723 3.6915 6.31301 3.69878 6.30573 3.70377C5.64103 4.09132 5.02271 4.54978 4.46228 5.07073L3.63926 4.24733L4.18129 3.7053L2.55481 2.07882L0.928711 3.7053L2.55481 5.3314L3.09723 4.78937L3.92024 5.61238C3.39968 6.17282 2.94083 6.79075 2.55366 7.45583C2.54868 7.46312 2.54101 7.46733 2.53679 7.475C2.53219 7.48305 2.53258 7.49148 2.52836 7.49953C2.08638 8.2662 1.73946 9.09343 1.50486 9.96705C1.50448 9.96858 1.50333 9.96973 1.50294 9.97127C1.50256 9.97242 1.50294 9.97395 1.50256 9.9751C1.27371 10.8292 1.14989 11.725 1.14989 12.65C1.14989 13.575 1.27371 14.4708 1.50218 15.3249C1.50256 15.3264 1.50218 15.3276 1.50256 15.3287C1.50294 15.3306 1.50448 15.3322 1.50486 15.3341C1.73946 16.2073 2.08638 17.0342 2.52798 17.8005C2.53181 17.8085 2.53181 17.8169 2.53641 17.825C2.54293 17.8361 2.55213 17.8445 2.55941 17.8549C3.00599 18.6189 3.54573 19.3219 4.16596 19.9456C4.17209 19.9529 4.17439 19.9617 4.18129 19.9686C4.18819 19.9755 4.19701 19.9778 4.20429 19.9839C4.83066 20.6072 5.53753 21.1489 6.30573 21.5966C6.31301 21.6016 6.31723 21.6089 6.32489 21.6135C6.33639 21.62 6.34904 21.6231 6.36093 21.6284C7.12414 22.067 7.94793 22.412 8.81694 22.6454C8.81848 22.6458 8.81963 22.6469 8.82116 22.6473C8.82308 22.6477 8.82499 22.6477 8.82691 22.6481C9.68021 22.8766 10.5757 23 11.4999 23C12.4241 23 13.3196 22.8766 14.1729 22.6481C14.1748 22.6477 14.1767 22.6481 14.1786 22.6473C14.1802 22.6469 14.1813 22.6458 14.1828 22.6454C15.0519 22.412 15.8753 22.067 16.6389 21.6284C16.6507 21.6231 16.6634 21.6204 16.6749 21.6135C16.6826 21.6089 16.6868 21.6016 16.6941 21.5966C17.4623 21.1489 18.1687 20.6072 18.7955 19.9839C18.8028 19.9778 18.8116 19.9755 18.8185 19.9686C18.8254 19.9617 18.8277 19.9525 18.8338 19.9456C19.4541 19.3219 19.9938 18.6189 20.4404 17.8549C20.4477 17.8445 20.4569 17.8365 20.4634 17.825C20.468 17.8169 20.4676 17.8085 20.4718 17.8005C20.9134 17.0342 21.2603 16.2073 21.4949 15.3341C21.4953 15.3322 21.4968 15.3306 21.4972 15.3287C21.4976 15.3276 21.4972 15.326 21.4976 15.3249C21.7261 14.4708 21.8499 13.575 21.8499 12.65C21.8499 11.725 21.7261 10.8292 21.4976 9.9751ZM20.445 3.16288L20.987 3.7053L20.445 4.24733L19.9026 3.7053L20.445 3.16288ZM2.01278 3.7053L2.55481 3.16288L3.09723 3.7053L2.55481 4.24733L2.01278 3.7053ZM19.9167 15.3023L20.6508 15.4989C20.4764 16.0578 20.2502 16.5941 19.9811 17.1043L19.3268 16.7264C19.1436 16.6202 18.909 16.6827 18.8032 16.8667C18.6974 17.0503 18.7602 17.2845 18.9435 17.3903L19.5963 17.7671C19.2846 18.2585 18.9308 18.7201 18.5375 19.1456L18.0051 18.6131C17.8552 18.4632 17.6129 18.4632 17.463 18.6131C17.3131 18.763 17.3131 19.0053 17.463 19.1552L17.9955 19.6876C17.57 20.0809 17.1084 20.4347 16.617 20.7464L16.2402 20.0936C16.134 19.9096 15.899 19.8467 15.7166 19.9533C15.5329 20.0591 15.4701 20.2937 15.5763 20.4769L15.9542 21.1313C15.444 21.4003 14.9081 21.6265 14.3488 21.8009L14.1522 21.0672C14.0974 20.8625 13.8873 20.7406 13.6826 20.7962C13.4783 20.851 13.3568 21.0611 13.4116 21.2658L13.6075 21.9972C13.0493 22.1229 12.4732 22.2004 11.8832 22.2237V21.4667C11.8832 21.2547 11.7119 21.0833 11.4999 21.0833C11.2879 21.0833 11.1166 21.2547 11.1166 21.4667V22.2237C10.5266 22.2004 9.95046 22.1229 9.39233 21.9972L9.58821 21.2658C9.64303 21.0615 9.52151 20.851 9.31719 20.7962C9.11288 20.741 8.90243 20.8625 8.84761 21.0672L8.65096 21.8009C8.09206 21.6265 7.55578 21.4003 7.04556 21.1313L7.42353 20.4769C7.52933 20.2933 7.46646 20.0591 7.28323 19.9533C7.09999 19.8471 6.86539 19.9096 6.75959 20.0936L6.38278 20.7464C5.89134 20.4347 5.42981 20.0809 5.00431 19.6876L5.53676 19.1552C5.68664 19.0053 5.68664 18.763 5.53676 18.6131C5.38688 18.4632 5.14461 18.4632 4.99473 18.6131L4.46228 19.1456C4.06898 18.7201 3.71516 18.2585 3.40351 17.7671L4.05633 17.3903C4.23994 17.2845 4.30281 17.0499 4.19663 16.8667C4.09044 16.6827 3.85546 16.6198 3.67299 16.7264L3.01864 17.1043C2.74954 16.5941 2.52338 16.0582 2.34896 15.4989L3.08304 15.3023C3.28736 15.2475 3.40888 15.0374 3.35406 14.8327C3.29963 14.628 3.08956 14.5061 2.88448 14.5617L2.15269 14.7576C2.02734 14.1994 1.94953 13.6233 1.92614 13.0333H2.68323C2.89521 13.0333 3.06656 12.862 3.06656 12.65C3.06656 12.438 2.89521 12.2667 2.68323 12.2667H1.92614C1.94953 11.6767 2.02696 11.1006 2.15269 10.5424L2.88448 10.7387C2.91783 10.7475 2.95118 10.7517 2.98414 10.7517C3.15319 10.7517 3.30806 10.639 3.35406 10.4677C3.40926 10.2634 3.28736 10.0529 3.08304 9.9981L2.34896 9.80107C2.52338 9.24217 2.74954 8.70588 3.01864 8.19567L3.67299 8.57363C3.73279 8.60852 3.79873 8.625 3.86389 8.625C3.99653 8.625 4.12533 8.55638 4.19624 8.43333C4.30204 8.24972 4.23918 8.0155 4.05594 7.9097L3.40313 7.53288C3.71478 7.04145 4.06859 6.57992 4.46189 6.15442L4.99434 6.68687C5.06909 6.76162 5.16723 6.79918 5.26536 6.79918C5.36349 6.79918 5.46163 6.76162 5.53638 6.68687C5.68626 6.53698 5.68626 6.29472 5.53638 6.14483L5.00393 5.61238C5.42943 5.21947 5.89096 4.86527 6.38239 4.55362L6.75921 5.20682C6.83051 5.32948 6.95893 5.39848 7.09156 5.39848C7.15673 5.39848 7.22266 5.382 7.28284 5.34712C7.46646 5.24132 7.52933 5.00672 7.42314 4.82348L7.04518 4.16875C7.55539 3.89965 8.09129 3.67348 8.65058 3.49907L8.84723 4.23315C8.89284 4.40412 9.04771 4.5172 9.21714 4.5172C9.25011 4.5172 9.28346 4.51298 9.31681 4.50417C9.52113 4.44935 9.64264 4.23928 9.58783 4.03458L9.39194 3.3028C9.84121 3.2016 10.3016 3.13222 10.7719 3.09695C10.8908 3.08813 10.9981 3.08162 11.102 3.07663C11.107 3.07663 11.1116 3.07663 11.1166 3.07625V3.83333C11.1166 4.04532 11.2879 4.21667 11.4999 4.21667C11.7119 4.21667 11.8832 4.04532 11.8832 3.83333V3.07625C11.8882 3.07625 11.8928 3.07625 11.8978 3.07663C12.0017 3.08162 12.1086 3.08813 12.2278 3.09695C12.6982 3.1326 13.159 3.2016 13.6078 3.3028L13.412 4.03458C13.3571 4.2389 13.4787 4.44935 13.683 4.50417C13.7163 4.51298 13.7497 4.5172 13.7826 4.5172C13.9517 4.5172 14.1069 4.40412 14.1526 4.23315L14.3492 3.49907C14.9081 3.67348 15.4444 3.89965 15.9546 4.16875L15.5766 4.82348C15.4708 5.0071 15.5337 5.24132 15.7169 5.34712C15.7771 5.382 15.8431 5.39848 15.9082 5.39848C16.0409 5.39848 16.1697 5.32948 16.2406 5.20682L16.6174 4.55362C17.1088 4.86527 17.5704 5.21947 17.9959 5.61238L17.4634 6.14483C17.3135 6.29472 17.3135 6.53698 17.4634 6.68687C17.5382 6.76162 17.6363 6.79918 17.7344 6.79918C17.8326 6.79918 17.9307 6.76162 18.0054 6.68687L18.5379 6.15442C18.9312 6.57992 19.285 7.04145 19.5967 7.53288L18.9438 7.9097C18.7602 8.0155 18.6974 8.24972 18.8035 8.43333C18.8748 8.55638 19.0033 8.625 19.1359 8.625C19.2011 8.625 19.267 8.60852 19.3272 8.57363L19.9815 8.19567C20.2506 8.70588 20.4768 9.24178 20.6512 9.80107L19.9171 9.9981C19.7128 10.0529 19.5909 10.263 19.6461 10.4677C19.6921 10.639 19.8466 10.7517 20.016 10.7517C20.049 10.7517 20.0823 10.7475 20.1157 10.7387L20.8475 10.5424C20.9732 11.1006 21.0506 11.6767 21.074 12.2667H20.3166C20.1046 12.2667 19.9332 12.438 19.9332 12.65C19.9332 12.862 20.1046 13.0333 20.3166 13.0333H21.0736C21.0503 13.6233 20.9728 14.1994 20.8471 14.7579L20.1153 14.5621C19.9118 14.5069 19.7005 14.6288 19.6457 14.8331C19.5909 15.0374 19.7124 15.2475 19.9167 15.3023ZM11.1166 2.30843V1.15H9.77489C9.66948 1.15 9.58323 1.06375 9.58323 0.958333C9.58323 0.852917 9.66948 0.766667 9.77489 0.766667H13.2249C13.3303 0.766667 13.4166 0.852917 13.4166 0.958333C13.4166 1.06375 13.3303 1.15 13.2249 1.15H11.8832V2.30843C11.7491 2.30268 11.6229 2.3 11.4999 2.3C11.3768 2.3 11.2507 2.30268 11.1166 2.30843Z" fill="#34495E"/>
</svg>
