<svg width="20" height="20" viewBox="0 0 20 20" fill="none" xmlns="http://www.w3.org/2000/svg">
<g clip-path="url(#clip0)">
<path d="M18.8601 15.1025C18.4448 14.8101 17.9654 14.6531 17.4812 14.6275C15.6562 13.4324 14.4607 12.5354 13.7627 11.8374L11.6187 9.69337L12.9197 8.237C13.1663 8.37618 13.4311 8.4679 13.6961 8.50573C13.896 8.53903 14.0292 8.53903 14.1625 8.53903C14.429 8.53903 14.4957 8.53903 14.7622 8.77223C14.6289 8.87218 14.5623 9.03878 14.5623 9.20534C14.5623 9.37189 14.6289 9.57183 14.7622 9.70509L15.9283 10.8712C16.0949 11.0711 16.3614 11.171 16.6279 11.171C16.8945 11.171 17.161 11.0711 17.3276 10.8379L19.6931 8.47239C19.893 8.30579 19.9929 8.03928 19.9929 7.77274C19.9929 7.50619 19.893 7.27299 19.6931 7.07309L18.527 5.90699C18.3937 5.77374 18.2271 5.70709 18.0605 5.70709C17.8939 5.70709 17.7274 5.80704 17.5941 5.90699C17.3276 5.67379 17.3276 5.60714 17.3276 5.3406C17.3276 5.20734 17.3276 5.04075 17.2609 4.84085C17.1943 4.3744 16.9611 3.908 16.5946 3.5415L15.3952 2.3421C14.6955 1.64245 14.3624 1.3093 13.4628 0.909502C11.5305 0.0099536 9.56477 0.17655 6.69953 1.4759C6.53293 1.54254 6.46632 1.6758 6.49963 1.84239C6.53293 2.00899 6.66622 2.10894 6.83278 2.10894H7.26588C8.73183 2.10894 9.49808 2.10894 10.8308 3.44159C11.4143 4.02513 11.4311 4.91987 10.9083 5.57817C10.8378 5.58879 10.7842 5.62042 10.7308 5.67379L9.25086 7.32562L8.13213 6.20688C6.90251 4.97726 6.03763 3.8139 5.37199 2.5185C5.33705 1.86301 5.07402 1.24972 4.60058 0.776288C4.03423 0.209931 3.23463 -0.0566145 2.43503 0.0100318C2.33508 0.0433353 2.23513 0.109982 2.20183 0.176628C2.13518 0.276578 2.13518 0.409831 2.20183 0.509781L3.13468 2.17562C2.93478 2.60873 2.46833 2.87527 2.00193 2.84197L1.03573 1.24273C1.00243 1.14278 0.869135 1.07614 0.769186 1.07614C0.669236 1.04283 0.569286 1.10944 0.50264 1.20939C-0.296959 2.40879 0.00289067 4.00799 1.20229 4.84089C1.61552 5.13605 2.08107 5.30019 2.55255 5.33384C2.55782 5.33607 2.56278 5.3388 2.56824 5.34064C3.86759 6.00698 5.03368 6.87319 6.26639 8.10593L7.48488 9.2967L0.402729 17.2014C0.136183 17.4679 0.00292969 17.8344 0.00292969 18.2009C0.00292969 18.5674 0.136183 18.9005 0.402729 19.1671L0.869174 19.6335C1.13572 19.8667 1.46887 20 1.80203 20C2.13518 20 2.50168 19.8668 2.76822 19.6002L9.84229 11.6818L11.897 13.7365C12.5959 14.4355 13.4945 15.6666 14.6922 17.4629C14.7351 18.1041 14.9976 18.7028 15.4618 19.1671C15.9616 19.6668 16.6279 19.9334 17.3276 19.9334C17.4275 19.9334 17.5275 19.9334 17.5941 19.9334C17.6941 19.9334 17.794 19.8667 17.8607 19.7668C17.9273 19.6668 17.9273 19.5336 17.8607 19.4336L16.8945 17.8011C17.1277 17.368 17.5608 17.1015 18.0606 17.1348L18.9934 18.734C19.0267 18.8339 19.16 18.9006 19.26 18.9006C19.3932 18.8673 19.4932 18.8339 19.5598 18.734C20.3594 17.5346 20.0262 15.9354 18.8601 15.1025ZM11.264 2.90858C10.1978 1.87577 9.39821 1.54258 8.49866 1.44263C10.3977 0.842934 11.797 0.876238 13.1963 1.50928C13.9959 1.84243 14.2625 2.10898 14.9621 2.80863L16.1615 4.00802C16.428 4.27457 16.5946 4.60772 16.6279 4.94088C16.6612 5.10747 16.6612 5.24073 16.6612 5.34068C16.6612 5.70717 16.6945 5.97368 17.0943 6.37348C17.2276 6.50673 17.4275 6.57338 17.5941 6.57338C17.794 6.57338 17.9606 6.50673 18.0605 6.37348L19.2266 7.53957C19.2933 7.60622 19.3266 7.67283 19.3266 7.77278C19.3266 7.87273 19.2933 7.93937 19.2266 8.00598L16.8611 10.3715C16.7279 10.5047 16.528 10.5047 16.3947 10.3715L15.2286 9.20538C15.3619 9.10543 15.4285 8.93883 15.3952 8.73893C15.3952 8.57234 15.3286 8.37244 15.1953 8.23918C14.7955 7.83938 14.529 7.80608 14.1625 7.80608C14.0626 7.80608 13.9293 7.80608 13.7627 7.77278C13.3962 7.73947 13.0964 7.57288 12.8298 7.30633L11.3972 5.87373C12.1302 4.97422 12.0636 3.70818 11.264 2.90858ZM0.802528 2.10898L1.50218 3.30838C1.56882 3.40833 1.66877 3.47497 1.76872 3.47497H1.93532C2.70161 3.50828 3.40126 3.10848 3.73442 2.44217L3.80106 2.27557C3.86771 2.17562 3.86771 2.07567 3.80106 1.97572L3.06807 0.70968C3.46787 0.776327 3.83437 0.976226 4.13421 1.27608C4.47771 1.64819 4.69764 2.11882 4.71064 2.62434C4.7042 2.65 4.70057 2.6776 4.70057 2.70872C4.70057 2.86301 4.68195 3.01352 4.64747 3.15861C4.52179 3.64102 4.22042 4.06163 3.80102 4.34126C3.13468 4.77436 2.23513 4.77436 1.56882 4.30795C0.869175 3.80813 0.569325 2.90858 0.802528 2.10898ZM6.73287 7.63952C5.73337 6.60672 4.73387 5.80712 3.66773 5.17408C3.83433 5.10743 4.03423 5.00748 4.20078 4.90753C4.70053 4.57438 5.03369 4.14124 5.23358 3.60819C5.86659 4.67433 6.66619 5.67383 7.66568 6.67333L8.81003 7.81768L7.91263 8.81932L6.73287 7.63952ZM2.30178 19.1004C2.03523 19.367 1.60213 19.4003 1.33558 19.1338L0.869135 18.7006C0.735882 18.5674 0.669236 18.4008 0.669236 18.2342C0.669236 18.0343 0.735882 17.8677 0.902439 17.7012L1.09113 17.49L1.56878 17.9677C1.63543 18.0343 1.70204 18.0676 1.80199 18.0676C1.90194 18.0676 1.96858 18.0343 2.03519 17.9677C2.16844 17.8344 2.16844 17.6345 2.03519 17.5013L1.53138 16.9974L1.97167 16.5048L2.50164 17.0348C2.56828 17.1015 2.63489 17.1348 2.73484 17.1348C2.83479 17.1348 2.90144 17.1015 2.96804 17.0348C3.1013 16.9016 3.1013 16.7017 2.96804 16.5684L2.41199 16.0123L10.9817 6.42439L12.381 7.82369L11.0061 9.36194C10.9668 9.37857 10.9321 9.40399 10.8975 9.43862L9.56481 10.9379C9.52674 10.9759 9.49996 11.0195 9.48364 11.0653L2.30178 19.1004ZM10.2982 11.1715L11.2099 10.1509L13.3629 12.3039C13.9626 12.9369 14.9954 13.7365 16.4946 14.736C16.2947 14.8026 16.0948 14.9026 15.8949 15.0358C15.4816 15.2942 15.1888 15.6528 14.9848 16.0494C14.9818 16.055 14.979 16.0608 14.9761 16.0665C14.964 16.0904 14.9522 16.1143 14.9407 16.1385C14.9243 16.1726 14.9086 16.2072 14.8937 16.2421C14.8835 16.2657 14.8733 16.2893 14.8636 16.3131C14.8623 16.3165 14.8609 16.32 14.8596 16.3234C14.8491 16.3495 14.8386 16.3756 14.8288 16.4018C14.6396 16.1242 14.4575 15.8623 14.2824 15.6156L14.7289 15.1691C14.8621 15.0358 14.8621 14.8359 14.7289 14.7027C14.5956 14.5694 14.3957 14.5694 14.2624 14.7027L13.891 15.0741C13.7526 14.8862 13.6188 14.709 13.4898 14.5424L13.796 14.2362C13.9293 14.103 13.9293 13.9031 13.796 13.7698C13.6628 13.6365 13.4629 13.6365 13.3296 13.7698L13.0752 14.0241C12.8304 13.729 12.6045 13.4778 12.3967 13.27L10.2982 11.1715ZM19.2266 17.8344L18.5269 16.635C18.4603 16.5351 18.3604 16.4684 18.2604 16.4684H18.0938C17.3275 16.4018 16.6279 16.8349 16.2947 17.5012L16.2281 17.6678C16.1614 17.7678 16.1614 17.8677 16.2281 17.9677L16.961 19.2337C16.5612 19.1671 16.1947 18.9672 15.8949 18.6673C15.5579 18.3022 15.3401 17.8423 15.3196 17.3478C15.3253 17.3234 15.3285 17.2973 15.3285 17.268C15.3285 16.846 15.4625 16.4508 15.696 16.1161C15.8395 15.9164 16.0189 15.7416 16.228 15.6022C16.5612 15.369 16.9277 15.2691 17.3275 15.2691C17.7273 15.2691 18.1271 15.4023 18.4602 15.6355C19.16 16.1353 19.4598 17.0348 19.2266 17.8344Z" fill="#81909F"/>
</g>
<defs>
<clipPath id="clip0">
<rect width="20" height="20" fill="white"/>
</clipPath>
</defs>
</svg>
