<svg width="15" height="15" viewBox="0 0 15 15" fill="none" xmlns="http://www.w3.org/2000/svg">
<g clip-path="url(#clip0)">
<path d="M14.3335 9.83423C14.0072 9.4432 13.6386 9.09407 13.2821 8.75642C13.1568 8.63774 13.0272 8.51501 12.9024 8.39317C12.9024 8.39314 12.9023 8.39311 12.9023 8.39308C12.7344 8.22934 12.6523 8.11312 12.6437 8.02728C12.6352 7.9429 12.6929 7.81771 12.8255 7.63267C13.0238 7.35435 13.2352 7.07556 13.4397 6.80597C13.6215 6.56632 13.8094 6.3185 13.9895 6.06927L14.0299 6.01331C14.3813 5.52692 14.7447 5.02398 14.9394 4.41109C14.995 4.23537 15.0527 3.97533 14.9135 3.74704C14.7741 3.5187 14.5158 3.45103 14.3338 3.42003C14.2448 3.4048 14.1605 3.40354 14.082 3.40354L11.8025 3.40151C11.4084 3.39495 11.135 3.58175 10.986 3.95687C10.8667 4.25646 10.7259 4.60366 10.5627 4.93301C10.2506 5.56885 9.85393 6.30118 9.27901 6.91135L9.25346 6.93854C9.21432 6.98032 9.15036 7.04864 9.11752 7.06431C9.05524 7.02517 8.98337 6.80131 8.98665 6.68404C8.98674 6.68114 8.98677 6.67827 8.98677 6.67539L8.98475 4.04151C8.98475 4.02812 8.98381 4.01473 8.98202 4.00146C8.9309 3.6257 8.83123 3.24899 8.2365 3.13163C8.21743 3.12785 8.19804 3.12598 8.17864 3.12598H5.80749C5.36139 3.12598 5.12543 3.33026 4.93626 3.55175C4.8815 3.61632 4.73601 3.78777 4.81013 3.99736C4.88513 4.20944 5.10861 4.25177 5.18197 4.26566C5.44037 4.3147 5.57399 4.46075 5.61536 4.73995C5.69713 5.28244 5.70715 5.86278 5.64694 6.56541C5.63016 6.75406 5.59893 6.89744 5.54853 7.01668C5.53459 7.04969 5.52234 7.07014 5.51379 7.08218C5.50014 7.07668 5.4789 7.06613 5.44948 7.046C5.2679 6.92175 5.13105 6.7286 4.99872 6.54186C4.47014 5.79558 4.02553 4.97134 3.63931 4.02167C3.48026 3.63252 3.18125 3.41517 2.79793 3.40954C2.06761 3.39738 1.39217 3.39768 0.733693 3.41048C0.423115 3.41587 0.205322 3.51363 0.0862586 3.70111C-0.0329508 3.88893 -0.0285855 4.1284 0.0992665 4.41299C1.01322 6.44533 1.84308 7.92377 2.78996 9.2068C3.45667 10.1101 4.12781 10.7371 4.90204 11.1801C5.7155 11.6455 6.6329 11.8735 7.6972 11.8735C7.81823 11.8735 7.94137 11.8705 8.06614 11.8646C8.72277 11.8347 8.98993 11.5735 9.01908 10.934C9.03543 10.596 9.07305 10.3222 9.20357 10.0843C9.24007 10.0177 9.28126 9.97304 9.31372 9.96486C9.34824 9.95625 9.40944 9.97737 9.47749 10.0216C9.60192 10.1024 9.70906 10.212 9.79715 10.3081C9.88645 10.4059 9.97669 10.5069 10.064 10.6045C10.2499 10.8125 10.442 11.0275 10.6433 11.2325C11.0987 11.6967 11.6236 11.9096 12.2042 11.865L14.2903 11.866C14.2904 11.866 14.2904 11.866 14.2904 11.866C14.2971 11.866 14.3037 11.8658 14.3103 11.8653C14.5509 11.8493 14.7589 11.7161 14.8811 11.4998C15.0282 11.2393 15.026 10.9093 14.8751 10.6167C14.7176 10.3126 14.5132 10.0508 14.3335 9.83423ZM14.3608 11.2059C14.332 11.2569 14.2965 11.2662 14.2782 11.2684L12.1926 11.2674C12.1925 11.2674 12.1924 11.2674 12.1924 11.2674C12.1841 11.2674 12.1759 11.2678 12.1677 11.2685C11.7568 11.3027 11.4076 11.1582 11.0698 10.814C10.8783 10.6188 10.6908 10.4091 10.5096 10.2064C10.4212 10.1075 10.3299 10.0053 10.2382 9.90489C10.1244 9.78061 9.98372 9.63779 9.80298 9.52043C9.5324 9.34479 9.30816 9.35009 9.16774 9.38548C9.02878 9.42049 8.83126 9.5204 8.67965 9.79708C8.48324 10.1551 8.43991 10.5412 8.42227 10.9061C8.41208 11.1292 8.37435 11.1882 8.35858 11.2031C8.33793 11.2228 8.26891 11.2573 8.0386 11.2678C6.93188 11.3198 6.00311 11.1216 5.19882 10.6615C4.49915 10.2611 3.88649 9.68613 3.27081 8.85201C2.35015 7.60458 1.54009 6.16 0.644337 4.1681C0.611876 4.09594 0.601856 4.05091 0.598956 4.0268C0.621807 4.0193 0.666456 4.00943 0.744738 4.00799C1.39654 3.99536 2.06492 3.99501 2.78864 4.00708C2.88772 4.00855 3.00055 4.03828 3.08598 4.24732C3.48951 5.23958 3.95566 6.10311 4.51113 6.88733C4.65861 7.09548 4.84218 7.35459 5.11198 7.53919C5.3591 7.70841 5.55964 7.70032 5.68438 7.66376C5.80919 7.62717 5.98239 7.52551 6.09905 7.24929C6.17432 7.07126 6.21982 6.87078 6.24235 6.61747C6.30671 5.86592 6.29529 5.24107 6.20646 4.65171C6.14385 4.22945 5.92582 3.92441 5.58237 3.76864C5.64337 3.73688 5.7121 3.72364 5.80755 3.72364H8.1477C8.27936 3.75317 8.30544 3.78785 8.31437 3.79972C8.35229 3.85014 8.37396 3.96941 8.38721 4.0626L8.3892 6.6722C8.38393 6.92237 8.50551 7.47719 8.91947 7.62933C8.92287 7.63059 8.9263 7.63177 8.92973 7.63288C9.3066 7.75604 9.55589 7.49 9.68972 7.34706L9.71357 7.32169C10.3433 6.65328 10.7674 5.87228 11.0987 5.19742C11.2714 4.84893 11.4177 4.48846 11.5413 4.17774C11.6032 4.02191 11.6595 3.99624 11.7939 3.99909C11.7957 3.99914 11.7975 3.99914 11.7994 3.99914L14.0818 4.00117C14.1349 4.00117 14.1903 4.00178 14.2332 4.00913C14.342 4.02765 14.3868 4.05021 14.4016 4.05955C14.4031 4.07687 14.4027 4.12667 14.3699 4.23062C14.2043 4.75178 13.8843 5.19458 13.5456 5.66339L13.5052 5.71943C13.3292 5.96295 13.1434 6.20796 12.9637 6.44494C12.7566 6.71802 12.5425 7.00036 12.3395 7.2853C11.9055 7.89084 11.9436 8.29268 12.4852 8.82096C12.6132 8.94591 12.7444 9.07019 12.8713 9.19037C13.2311 9.53118 13.571 9.85306 13.8743 10.2165C14.0331 10.4079 14.2131 10.6378 14.3443 10.8912C14.4127 11.0238 14.3959 11.1437 14.3608 11.2059Z" fill="white"/>
<path d="M2.17918 4.96968C2.13529 4.88285 2.09179 4.79578 2.04869 4.70853C1.97557 4.56061 1.7965 4.49985 1.64846 4.57297C1.50051 4.64607 1.43981 4.82525 1.51291 4.9732C1.55682 5.06209 1.60115 5.1508 1.64583 5.23925C1.69842 5.34331 1.80362 5.40331 1.91272 5.40331C1.95802 5.40331 2.00404 5.39297 2.04725 5.37114C2.19459 5.29667 2.25362 5.11696 2.17918 4.96968Z" fill="white"/>
<path d="M4.05342 8.0695C3.56346 7.40566 3.10508 6.68464 2.65215 5.86523C2.57232 5.72079 2.3905 5.66847 2.24609 5.74827C2.10169 5.82811 2.04931 6.00993 2.12914 6.15433C2.59485 6.9968 3.06702 7.73936 3.57263 8.42441C3.63123 8.5038 3.72167 8.54579 3.81328 8.54579C3.87492 8.54579 3.93709 8.5268 3.99046 8.48734C4.12321 8.38937 4.15139 8.20231 4.05342 8.0695Z" fill="white"/>
</g>
<defs>
<clipPath id="clip0">
<rect width="15" height="15" fill="white"/>
</clipPath>
</defs>
</svg>
