<svg width="23" height="23" viewBox="0 0 23 23" fill="none" xmlns="http://www.w3.org/2000/svg">
<g clip-path="url(#clip0)">
<path d="M21.9036 13.4718H21.5594V10.3715C21.5594 9.88069 21.3151 9.44612 20.942 9.18207V8.75993C20.942 8.1476 20.4439 7.64947 19.8316 7.64947H19.5746L20.5579 6.20657C20.8875 5.72295 20.7621 5.06129 20.2785 4.73166L13.6062 0.184662C13.3719 0.0249651 13.0896 -0.0339724 12.8109 0.0189007C12.5323 0.0716839 12.2909 0.229764 12.1313 0.464077L6.37225 8.91492H4.76967L5.15631 5.00087C5.16067 4.95676 5.18933 4.91853 5.22931 4.90348C5.72744 4.71566 6.15914 4.36491 6.44485 3.91587C6.46735 3.88052 6.5098 3.86031 6.55374 3.86475L9.06734 4.11308C9.24757 4.13056 9.4079 3.99929 9.42568 3.81916C9.44347 3.63902 9.3119 3.4786 9.13176 3.46082L6.61816 3.21249C6.32639 3.18392 6.04814 3.31837 5.89181 3.564C5.68176 3.89418 5.36434 4.15203 4.99809 4.29012C4.72241 4.39407 4.53311 4.64168 4.504 4.93641L4.11102 8.91487H3.69311L4.30459 2.72446C4.3266 2.50164 4.52547 2.33795 4.74855 2.36027L9.82805 2.86205C10.0082 2.87944 10.1686 2.74826 10.1864 2.56813C10.2042 2.38799 10.0726 2.22757 9.89247 2.20979L4.81297 1.70801C4.2306 1.65055 3.70982 2.07754 3.65228 2.65999L3.1594 7.64947H2.32003C1.70774 7.64947 1.20956 8.1476 1.20956 8.75993V9.04788C0.708637 9.27851 0.359863 9.78487 0.359863 10.3715V21.5434C0.359863 22.3466 1.0133 23 1.81655 23H20.1028C20.906 23 21.5594 22.3466 21.5594 21.5434V18.4431H21.9036C22.3099 18.4431 22.6404 18.1126 22.6404 17.7064V14.2086C22.6404 13.8023 22.3099 13.4718 21.9036 13.4718ZM19.8316 8.30497C20.0825 8.30492 20.2866 8.50905 20.2866 8.75998V8.92695C20.2263 8.91932 20.1651 8.91496 20.1028 8.91496H18.7122L19.1279 8.30497H19.8316ZM12.6729 0.833155C12.734 0.743536 12.8263 0.683071 12.9329 0.662856C12.9583 0.658049 12.9839 0.655623 13.0093 0.655623C13.09 0.655623 13.1689 0.679791 13.2371 0.726241L19.9094 5.27323C20.0944 5.39933 20.1423 5.65242 20.0163 5.83741L17.9191 8.91482H17.4158L18.444 7.40603C18.6107 7.16134 18.6245 6.84995 18.4797 6.59331C18.2874 6.25235 18.2094 5.85088 18.2602 5.4628C18.2979 5.17409 18.1709 4.89225 17.9286 4.72721L14.4697 2.37007C14.2275 2.20498 13.9187 2.18984 13.6638 2.33058C13.3213 2.5197 12.9191 2.59396 12.5314 2.53969C12.2439 2.49935 11.9523 2.62918 11.788 2.87018L7.66874 8.91487H7.16544L12.6729 0.833155ZM12.8172 6.39857C11.39 6.39857 10.2185 7.51142 10.123 8.91487H8.46184L12.3296 3.23931C12.3296 3.23931 12.3296 3.23931 12.3296 3.23931C12.3516 3.20701 12.388 3.18778 12.4254 3.18778C12.4304 3.18778 12.4354 3.18814 12.4404 3.18881C12.9677 3.26257 13.5146 3.16168 13.9805 2.90441C14.0172 2.88411 14.0643 2.88703 14.1006 2.91174L17.5595 5.26892C17.5957 5.29363 17.6156 5.33639 17.6102 5.3779C17.5412 5.90569 17.6473 6.45167 17.9089 6.91535C17.9298 6.95259 17.9273 7.0003 17.9024 7.03691L16.6227 8.91482H15.5116C15.4161 7.51142 14.2445 6.39857 12.8172 6.39857ZM14.8544 8.91492H10.7802C10.8741 7.87322 11.7516 7.05407 12.8172 7.05407C13.883 7.05403 14.7605 7.87322 14.8544 8.91492ZM1.86502 8.75993C1.86502 8.509 2.0691 8.30488 2.32003 8.30488H3.09466L3.03442 8.91487H1.86502V8.75993ZM1.01532 10.3715C1.01532 9.92974 1.37474 9.57032 1.81655 9.57032H20.1028C20.5446 9.57032 20.9039 9.92974 20.9039 10.3715V11.2809H1.01532V10.3715ZM20.9039 21.5434C20.9039 21.9851 20.5446 22.3445 20.1028 22.3445H1.81655C1.37474 22.3445 1.01532 21.9851 1.01532 21.5434V20.634H2.78264C2.96367 20.634 3.11034 20.4872 3.11034 20.3063C3.11034 20.1253 2.96363 19.9785 2.78264 19.9785H1.01532V11.9364H20.9039V13.4718H17.7879H17.7878C16.806 13.4718 15.9556 14.0441 15.552 14.8725C15.5506 14.8753 15.5491 14.878 15.5477 14.8808C15.5443 14.8878 15.5413 14.8951 15.538 14.9022C15.4899 15.0043 15.4481 15.11 15.4141 15.2191C15.414 15.2194 15.414 15.2197 15.4139 15.22C15.3413 15.4531 15.3022 15.7008 15.3022 15.9575C15.3022 17.3281 16.4172 18.4431 17.7878 18.4431H17.7878H20.9039V19.9785H4.88112C4.70008 19.9785 4.55341 20.1253 4.55341 20.3063C4.55341 20.4872 4.70013 20.634 4.88112 20.634H20.9039V21.5434ZM21.9849 17.7064C21.9849 17.7512 21.9485 17.7877 21.9036 17.7877H17.7879C17.0941 17.7877 16.4892 17.3996 16.1789 16.8291C16.1648 16.8032 16.1513 16.7769 16.1385 16.7502C16.1127 16.6969 16.0895 16.6422 16.069 16.5861C15.997 16.39 15.9577 16.1782 15.9577 15.9575C15.9577 15.7367 15.997 15.5249 16.069 15.3288C16.0895 15.2728 16.1128 15.218 16.1385 15.1647C16.1513 15.138 16.1648 15.1117 16.1789 15.0858C16.4892 14.5153 17.0941 14.1272 17.7879 14.1272H21.9036C21.9484 14.1272 21.9849 14.1637 21.9849 14.2086V17.7064Z" fill="#34495E"/>
<path d="M17.8644 14.6277C17.1311 14.6277 16.5347 15.2242 16.5347 15.9574C16.5347 16.6905 17.1311 17.287 17.8644 17.287C18.5976 17.287 19.194 16.6905 19.194 15.9574C19.194 15.2242 18.5976 14.6277 17.8644 14.6277ZM17.8644 16.6316C17.4926 16.6316 17.1901 16.3291 17.1901 15.9574C17.1901 15.5856 17.4926 15.2831 17.8644 15.2831C18.2361 15.2831 18.5386 15.5856 18.5386 15.9574C18.5386 16.3291 18.2361 16.6316 17.8644 16.6316Z" fill="#34495E"/>
</g>
<defs>
<clipPath id="clip0">
<rect width="23" height="23" fill="white"/>
</clipPath>
</defs>
</svg>
