<svg width="15" height="15" viewBox="0 0 15 15" fill="none" xmlns="http://www.w3.org/2000/svg">
<path d="M8.13233 7.63819L4.89633 5.29744C4.79733 5.22619 4.66008 5.23669 4.57308 5.32344C4.48608 5.41044 4.47533 5.54744 4.54708 5.64669L6.88833 8.88319C7.04183 9.09444 7.27908 9.22719 7.53933 9.24744C7.56283 9.24919 7.58608 9.24994 7.60908 9.24994C7.84458 9.24994 8.07108 9.15694 8.23883 8.98894C8.42308 8.80469 8.51733 8.54994 8.49708 8.28969C8.47683 8.02944 8.34408 7.79219 8.13233 7.63819ZM7.88533 8.63544C7.80433 8.71619 7.69158 8.75744 7.57833 8.74869C7.46433 8.73994 7.36008 8.68144 7.29308 8.58944L5.86483 6.61519L7.83858 8.04294C7.93133 8.11044 7.98958 8.21469 7.99858 8.32894C8.00758 8.44269 7.96608 8.55469 7.88533 8.63544Z" fill="#81909F"/>
<path d="M14.0202 6.5055C14.02 6.50475 14.0202 6.50375 14.02 6.503C14.0197 6.502 14.019 6.50125 14.0187 6.50025C13.8657 5.9305 13.6392 5.391 13.3512 4.891C13.3487 4.88575 13.3487 4.88025 13.3457 4.875C13.3427 4.87 13.338 4.86725 13.3347 4.8625C13.082 4.42875 12.783 4.02575 12.4432 3.66025L12.98 3.1235L13.3337 3.477L14.3942 2.4165L13.3337 1.35575L12.273 2.4165L12.6265 2.77L12.0897 3.30675C11.7242 2.96725 11.3212 2.668 10.8875 2.41525C10.8827 2.412 10.88 2.40725 10.875 2.40425C10.87 2.40125 10.864 2.4015 10.859 2.39875C10.359 2.1105 9.81946 1.88425 9.24996 1.73125C9.24896 1.731 9.24821 1.73025 9.24721 1.73C9.24621 1.72975 9.24546 1.73 9.24471 1.73C8.92171 1.6435 8.58971 1.5805 8.24996 1.54275V1.25H8.62496C8.96971 1.25 9.24996 0.96975 9.24996 0.625C9.24996 0.28025 8.96971 0 8.62496 0H6.37496C6.03021 0 5.74996 0.28025 5.74996 0.625C5.74996 0.96975 6.03021 1.25 6.37496 1.25H6.74996V1.54275C6.41021 1.5805 6.07821 1.6435 5.75546 1.73C5.75446 1.73025 5.75371 1.73 5.75296 1.73025C5.75196 1.7305 5.75121 1.73125 5.75021 1.7315C5.18071 1.8845 4.64121 2.111 4.14121 2.399C4.13596 2.4015 4.13021 2.4015 4.12496 2.4045C4.11996 2.4075 4.11721 2.41225 4.11246 2.4155C3.67896 2.66825 3.27571 2.96725 2.91021 3.307L2.37346 2.77L2.72696 2.4165L1.66621 1.35575L0.605713 2.4165L1.66621 3.477L2.01996 3.1235L2.55671 3.66025C2.21721 4.02575 1.91796 4.42875 1.66546 4.8625C1.66221 4.86725 1.65721 4.87 1.65446 4.875C1.65146 4.88025 1.65171 4.88575 1.64896 4.891C1.36071 5.391 1.13446 5.9305 0.981463 6.50025C0.981213 6.50125 0.980463 6.502 0.980213 6.503C0.979963 6.50375 0.980213 6.50475 0.979963 6.5055C0.830713 7.0625 0.749963 7.64675 0.749963 8.25C0.749963 8.85325 0.830713 9.4375 0.979713 9.9945C0.979963 9.9955 0.979713 9.99625 0.979963 9.997C0.980213 9.99825 0.981213 9.99925 0.981463 10.0005C1.13446 10.57 1.36071 11.1093 1.64871 11.609C1.65121 11.6143 1.65121 11.6198 1.65421 11.625C1.65846 11.6322 1.66446 11.6377 1.66921 11.6445C1.96046 12.1427 2.31246 12.6013 2.71696 13.008C2.72096 13.0128 2.72246 13.0185 2.72696 13.023C2.73146 13.0275 2.73721 13.029 2.74196 13.033C3.15046 13.4395 3.61146 13.7928 4.11246 14.0848C4.11721 14.088 4.11996 14.0927 4.12496 14.0957C4.13246 14.1 4.14071 14.102 4.14846 14.1055C4.64621 14.3915 5.18346 14.6165 5.75021 14.7688C5.75121 14.769 5.75196 14.7698 5.75296 14.77C5.75421 14.7703 5.75546 14.7703 5.75671 14.7705C6.31321 14.9195 6.89721 15 7.49996 15C8.10271 15 8.68671 14.9195 9.24321 14.7705C9.24446 14.7703 9.24571 14.7705 9.24696 14.77C9.24796 14.7698 9.24871 14.769 9.24971 14.7688C9.81646 14.6165 10.3535 14.3915 10.8515 14.1055C10.8592 14.102 10.8675 14.1003 10.875 14.0957C10.88 14.0927 10.8827 14.088 10.8875 14.0848C11.3885 13.7928 11.8492 13.4395 12.258 13.033C12.2627 13.029 12.2685 13.0275 12.273 13.023C12.2775 13.0185 12.279 13.0125 12.283 13.008C12.6875 12.6013 13.0395 12.1427 13.3307 11.6445C13.3355 11.6377 13.3415 11.6325 13.3457 11.625C13.3487 11.6198 13.3485 11.6143 13.3512 11.609C13.6392 11.1093 13.8655 10.57 14.0185 10.0005C14.0187 9.99925 14.0197 9.99825 14.02 9.997C14.0202 9.99625 14.02 9.99525 14.0202 9.9945C14.1692 9.4375 14.25 8.85325 14.25 8.25C14.25 7.64675 14.1692 7.0625 14.0202 6.5055ZM13.3337 2.06275L13.6872 2.4165L13.3337 2.77L12.98 2.4165L13.3337 2.06275ZM1.31271 2.4165L1.66621 2.06275L2.01996 2.4165L1.66621 2.77L1.31271 2.4165ZM12.9892 9.97975L13.468 10.108C13.3542 10.4725 13.2067 10.8222 13.0312 11.155L12.6045 10.9085C12.485 10.8392 12.332 10.88 12.263 11C12.194 11.1198 12.235 11.2725 12.3545 11.3415L12.7802 11.5872C12.577 11.9078 12.3462 12.2087 12.0897 12.4862L11.7425 12.139C11.6447 12.0413 11.4867 12.0413 11.389 12.139C11.2912 12.2367 11.2912 12.3948 11.389 12.4925L11.7362 12.8398C11.4587 13.0963 11.1577 13.327 10.8372 13.5302L10.5915 13.1045C10.5222 12.9845 10.369 12.9435 10.25 13.013C10.1302 13.082 10.0892 13.235 10.1585 13.3545L10.405 13.7812C10.0722 13.9567 9.72271 14.1042 9.35796 14.218L9.22971 13.7395C9.19396 13.606 9.05696 13.5265 8.92346 13.5627C8.79021 13.5985 8.71096 13.7355 8.74671 13.869L8.87446 14.346C8.51046 14.428 8.13471 14.4785 7.74996 14.4937V14C7.74996 13.8617 7.63821 13.75 7.49996 13.75C7.36171 13.75 7.24996 13.8617 7.24996 14V14.4937C6.86521 14.4785 6.48946 14.428 6.12546 14.346L6.25321 13.869C6.28896 13.7358 6.20971 13.5985 6.07646 13.5627C5.94321 13.5267 5.80596 13.606 5.77021 13.7395L5.64196 14.218C5.27746 14.1042 4.92771 13.9567 4.59496 13.7812L4.84146 13.3545C4.91046 13.2347 4.86946 13.082 4.74996 13.013C4.63046 12.9437 4.47746 12.9845 4.40846 13.1045L4.16271 13.5302C3.84221 13.327 3.54121 13.0963 3.26371 12.8398L3.61096 12.4925C3.70871 12.3948 3.70871 12.2367 3.61096 12.139C3.51321 12.0413 3.35521 12.0413 3.25746 12.139L2.91021 12.4862C2.65371 12.2087 2.42296 11.9078 2.21971 11.5872L2.64546 11.3415C2.76521 11.2725 2.80621 11.1195 2.73696 11C2.66771 10.88 2.51446 10.839 2.39546 10.9085L1.96871 11.155C1.79321 10.8222 1.64571 10.4727 1.53196 10.108L2.01071 9.97975C2.14396 9.944 2.22321 9.807 2.18746 9.6735C2.15196 9.54 2.01496 9.4605 1.88121 9.49675L1.40396 9.6245C1.32221 9.2605 1.27146 8.88475 1.25621 8.5H1.74996C1.88821 8.5 1.99996 8.38825 1.99996 8.25C1.99996 8.11175 1.88821 8 1.74996 8H1.25621C1.27146 7.61525 1.32196 7.2395 1.40396 6.8755L1.88121 7.0035C1.90296 7.00925 1.92471 7.012 1.94621 7.012C2.05646 7.012 2.15746 6.9385 2.18746 6.82675C2.22346 6.6935 2.14396 6.55625 2.01071 6.5205L1.53196 6.392C1.64571 6.0275 1.79321 5.67775 1.96871 5.345L2.39546 5.5915C2.43446 5.61425 2.47746 5.625 2.51996 5.625C2.60646 5.625 2.69046 5.58025 2.73671 5.5C2.80571 5.38025 2.76471 5.2275 2.64521 5.1585L2.21946 4.91275C2.42271 4.59225 2.65346 4.29125 2.90996 4.01375L3.25721 4.361C3.30596 4.40975 3.36996 4.43425 3.43396 4.43425C3.49796 4.43425 3.56196 4.40975 3.61071 4.361C3.70846 4.26325 3.70846 4.10525 3.61071 4.0075L3.26346 3.66025C3.54096 3.404 3.84196 3.173 4.16246 2.96975L4.40821 3.39575C4.45471 3.47575 4.53846 3.52075 4.62496 3.52075C4.66746 3.52075 4.71046 3.51 4.74971 3.48725C4.86946 3.41825 4.91046 3.26525 4.84121 3.14575L4.59471 2.71875C4.92746 2.54325 5.27696 2.39575 5.64171 2.282L5.76996 2.76075C5.79971 2.87225 5.90071 2.946 6.01121 2.946C6.03271 2.946 6.05446 2.94325 6.07621 2.9375C6.20946 2.90175 6.28871 2.76475 6.25296 2.63125L6.12521 2.154C6.41821 2.088 6.71846 2.04275 7.02521 2.01975C7.10271 2.014 7.17271 2.00975 7.24046 2.0065C7.24371 2.0065 7.24671 2.0065 7.24996 2.00625V2.5C7.24996 2.63825 7.36171 2.75 7.49996 2.75C7.63821 2.75 7.74996 2.63825 7.74996 2.5V2.00625C7.75321 2.00625 7.75621 2.00625 7.75946 2.0065C7.82721 2.00975 7.89696 2.014 7.97471 2.01975C8.28146 2.043 8.58196 2.088 8.87471 2.154L8.74696 2.63125C8.71121 2.7645 8.79046 2.90175 8.92371 2.9375C8.94546 2.94325 8.96721 2.946 8.98871 2.946C9.09896 2.946 9.20021 2.87225 9.22996 2.76075L9.35821 2.282C9.72271 2.39575 10.0725 2.54325 10.4052 2.71875L10.1587 3.14575C10.0897 3.2655 10.1307 3.41825 10.2502 3.48725C10.2895 3.51 10.3325 3.52075 10.375 3.52075C10.4615 3.52075 10.5455 3.47575 10.5917 3.39575L10.8375 2.96975C11.158 3.173 11.459 3.404 11.7365 3.66025L11.3892 4.0075C11.2915 4.10525 11.2915 4.26325 11.3892 4.361C11.438 4.40975 11.502 4.43425 11.566 4.43425C11.63 4.43425 11.694 4.40975 11.7427 4.361L12.09 4.01375C12.3465 4.29125 12.5772 4.59225 12.7805 4.91275L12.3547 5.1585C12.235 5.2275 12.194 5.38025 12.2632 5.5C12.3097 5.58025 12.3935 5.625 12.48 5.625C12.5225 5.625 12.5655 5.61425 12.6047 5.5915L13.0315 5.345C13.207 5.67775 13.3545 6.02725 13.4682 6.392L12.9895 6.5205C12.8562 6.55625 12.7767 6.69325 12.8127 6.82675C12.8427 6.9385 12.9435 7.012 13.054 7.012C13.0755 7.012 13.0972 7.00925 13.119 7.0035L13.5962 6.8755C13.6782 7.2395 13.7287 7.61525 13.744 8H13.25C13.1117 8 13 8.11175 13 8.25C13 8.38825 13.1117 8.5 13.25 8.5H13.7437C13.7285 8.88475 13.678 9.2605 13.596 9.62475L13.1187 9.497C12.986 9.461 12.8482 9.5405 12.8125 9.67375C12.7767 9.807 12.856 9.944 12.9892 9.97975ZM7.24996 1.5055V0.75H6.37496C6.30621 0.75 6.24996 0.69375 6.24996 0.625C6.24996 0.55625 6.30621 0.5 6.37496 0.5H8.62496C8.69371 0.5 8.74996 0.55625 8.74996 0.625C8.74996 0.69375 8.69371 0.75 8.62496 0.75H7.74996V1.5055C7.66246 1.50175 7.58021 1.5 7.49996 1.5C7.41971 1.5 7.33746 1.50175 7.24996 1.5055Z" fill="#81909F"/>
</svg>
