<svg width="15" height="15" viewBox="0 0 15 15" fill="none" xmlns="http://www.w3.org/2000/svg">
<g clip-path="url(#clip0)">
<path d="M14.2849 8.78596H14.0604V6.76404C14.0604 6.44394 13.9011 6.16052 13.6578 5.98832V5.71301C13.6578 5.31367 13.3329 4.9888 12.9336 4.9888H12.766L13.4072 4.04778C13.6222 3.73237 13.5404 3.30086 13.225 3.08588L8.87354 0.120447C8.72076 0.0162969 8.5366 -0.0221406 8.35484 0.0123418C8.17317 0.0467656 8.01575 0.149861 7.91163 0.302674L4.15574 5.81409H3.11058L3.36274 3.26145C3.36558 3.23268 3.38427 3.20775 3.41034 3.19794C3.73522 3.07545 4.01676 2.8467 4.20309 2.55385C4.21777 2.53079 4.24545 2.51761 4.2741 2.52051L5.91341 2.68246C6.03095 2.69386 6.13551 2.60825 6.14711 2.49077C6.15871 2.37329 6.0729 2.26867 5.95542 2.25707L4.31611 2.09511C4.12583 2.07648 3.94437 2.16417 3.84241 2.32436C3.70542 2.5397 3.49841 2.70786 3.25955 2.79792C3.07976 2.86571 2.9563 3.02719 2.93732 3.21941L2.68103 5.81406H2.40848L2.80727 1.77683C2.82162 1.63152 2.95132 1.52476 3.09681 1.53932L6.40952 1.86657C6.527 1.87791 6.63162 1.79236 6.64323 1.67488C6.65483 1.5574 6.56902 1.45278 6.45154 1.44118L3.13882 1.11393C2.75901 1.07646 2.41938 1.35493 2.38185 1.73479L2.0604 4.9888H1.51299C1.11367 4.9888 0.78877 5.31367 0.78877 5.71301V5.90081C0.46208 6.05122 0.234619 6.38145 0.234619 6.76404V14.05C0.234619 14.5739 0.660772 15 1.18463 15H13.1104C13.6343 15 14.0604 14.5739 14.0604 14.05V12.0281H14.2849C14.5498 12.0281 14.7654 11.8126 14.7654 11.5477V9.26646C14.7654 9.0015 14.5498 8.78596 14.2849 8.78596ZM12.9336 5.4163C13.0972 5.41627 13.2303 5.54939 13.2303 5.71304V5.82194C13.191 5.81696 13.1511 5.81412 13.1104 5.81412H12.2035L12.4746 5.4163H12.9336ZM8.26487 0.543377C8.30471 0.48493 8.36492 0.445496 8.43441 0.432312C8.45102 0.429178 8.46769 0.427596 8.48424 0.427596C8.53689 0.427596 8.58833 0.443357 8.63281 0.47365L12.9843 3.43908C13.1049 3.52132 13.1362 3.68637 13.054 3.80702L11.6863 5.81403H11.358L12.0286 4.83004C12.1374 4.67046 12.1463 4.46737 12.0519 4.3C11.9265 4.07763 11.8756 3.81581 11.9087 3.56271C11.9333 3.37442 11.8505 3.19061 11.6925 3.08298L9.43671 1.54571C9.27871 1.43804 9.07733 1.42817 8.9111 1.51996C8.68771 1.6433 8.42541 1.69173 8.17258 1.65634C7.98508 1.63003 7.79492 1.7147 7.68778 1.87187L5.00128 5.81406H4.67304L8.26487 0.543377ZM8.359 4.173C7.42821 4.173 6.66414 4.89877 6.60189 5.81406H5.51852L8.04095 2.11261C8.04098 2.11261 8.04098 2.11261 8.04098 2.11261C8.05531 2.09154 8.07907 2.079 8.10347 2.079C8.10672 2.079 8.10997 2.07924 8.11323 2.07968C8.45711 2.12778 8.8138 2.06198 9.11767 1.8942C9.14158 1.88095 9.17228 1.88286 9.19595 1.89897L11.4518 3.43627C11.4754 3.45238 11.4884 3.48027 11.4849 3.50734C11.4398 3.85155 11.509 4.20762 11.6796 4.51003C11.6933 4.53431 11.6916 4.56543 11.6754 4.5893L10.8408 5.81403H10.1162C10.0539 4.89877 9.28985 4.173 8.359 4.173ZM9.68755 5.81409H7.03047C7.0917 5.13472 7.66399 4.6005 8.359 4.6005C9.05404 4.60047 9.62635 5.13472 9.68755 5.81409ZM1.21624 5.71301C1.21624 5.54936 1.34934 5.41624 1.51299 5.41624H2.01818L1.9789 5.81406H1.21624V5.71301ZM0.66209 6.76404C0.66209 6.47593 0.896494 6.24153 1.18463 6.24153H13.1104C13.3986 6.24153 13.6329 6.47593 13.6329 6.76404V7.35713H0.66209V6.76404ZM13.6329 14.05C13.6329 14.3381 13.3986 14.5725 13.1104 14.5725H1.18463C0.896494 14.5725 0.66209 14.3381 0.66209 14.05V13.4569H1.81469C1.93275 13.4569 2.02841 13.3613 2.02841 13.2432C2.02841 13.1252 1.93273 13.0295 1.81469 13.0295H0.66209V7.7846H13.6329V8.78596H11.6007H11.6007C10.9604 8.78596 10.4057 9.15921 10.1425 9.69947C10.1416 9.70129 10.1406 9.70304 10.1397 9.70486C10.1375 9.70946 10.1356 9.71424 10.1334 9.71886C10.102 9.78546 10.0748 9.85439 10.0526 9.92552C10.0526 9.92573 10.0525 9.92591 10.0524 9.92611C10.0051 10.0781 9.97961 10.2396 9.97961 10.407C9.97961 11.3009 10.7068 12.0281 11.6007 12.0281H11.6007H13.6329V13.0295H3.18326C3.0652 13.0295 2.96954 13.1252 2.96954 13.2432C2.96954 13.3613 3.06523 13.4569 3.18326 13.4569H13.6329V14.05ZM14.3379 11.5476C14.3379 11.5769 14.3141 11.6007 14.2849 11.6007H11.6008C11.1483 11.6007 10.7538 11.3476 10.5514 10.9755C10.5422 10.9586 10.5334 10.9415 10.525 10.9241C10.5082 10.8893 10.4931 10.8536 10.4797 10.817C10.4327 10.6891 10.4071 10.551 10.4071 10.407C10.4071 10.2631 10.4328 10.125 10.4797 9.99707C10.4931 9.96053 10.5082 9.92482 10.525 9.89002C10.5334 9.87264 10.5422 9.85548 10.5514 9.83857C10.7538 9.46653 11.1483 9.21343 11.6008 9.21343H14.2849C14.3141 9.21343 14.3379 9.23722 14.3379 9.26646V11.5476Z" fill="#81909F"/>
<path d="M11.6509 9.53987C11.1727 9.53987 10.7837 9.9289 10.7837 10.4071C10.7837 10.8852 11.1727 11.2742 11.6509 11.2742C12.1291 11.2742 12.5181 10.8852 12.5181 10.4071C12.5181 9.9289 12.1291 9.53987 11.6509 9.53987ZM11.6509 10.8467C11.4084 10.8467 11.2112 10.6495 11.2112 10.4071C11.2112 10.1646 11.4084 9.96734 11.6509 9.96734C11.8933 9.96734 12.0906 10.1646 12.0906 10.4071C12.0906 10.6495 11.8933 10.8467 11.6509 10.8467Z" fill="#81909F"/>
</g>
<defs>
<clipPath id="clip0">
<rect width="15" height="15" fill="white"/>
</clipPath>
</defs>
</svg>
