<svg width="37" height="37" viewBox="0 0 37 37" fill="none" xmlns="http://www.w3.org/2000/svg">
<path d="M22.5625 5.84542C22.4762 5.66121 22.3144 5.52448 22.1186 5.47029C20.946 5.14523 19.7286 4.98047 18.5001 4.98047C17.2702 4.98047 16.0513 5.1456 14.8774 5.47122C14.6817 5.5255 14.52 5.66222 14.4337 5.84643C14.3472 6.03107 14.3456 6.24353 14.4295 6.42932L14.4295 6.42939L17.8654 14.0354C17.9779 14.2844 18.227 14.4452 18.5001 14.4452C18.7733 14.4452 19.0225 14.2843 19.1351 14.0351L22.5667 6.42831C22.6505 6.24252 22.649 6.03005 22.5625 5.84542ZM15.4176 5.98323C15.4176 5.98337 15.4177 5.98344 15.4177 5.98352L15.4176 5.98323ZM18.4999 12.8069L15.607 6.40244C16.55 6.17805 17.5211 6.06445 18.5002 6.06445C19.4779 6.06445 20.4477 6.17777 21.3895 6.40172L18.4999 12.8069Z" fill="white"/>
<path d="M29.3631 10.4509C28.4097 9.1662 27.2488 8.06986 25.9128 7.19226C25.7444 7.08155 25.5361 7.04954 25.3421 7.10431C25.1473 7.15924 24.9862 7.29575 24.9 7.47908L20.3586 17.1493H16.6562L12.0993 7.47814C12.0132 7.29546 11.8521 7.15924 11.6576 7.10446C11.4633 7.04975 11.2556 7.08184 11.0871 7.19233C9.75546 8.06696 8.59783 9.15897 7.64639 10.4379C7.49535 10.6408 7.4663 10.9103 7.57036 11.1408L13.3799 24.0275C13.4897 24.2713 13.7239 24.4284 13.9912 24.4375C14.2594 24.4463 14.5027 24.3058 14.6289 24.0701L16.637 20.319H20.3632L22.3714 24.0705C22.4937 24.299 22.7272 24.4383 22.9848 24.4383C22.9928 24.4383 23.0009 24.4382 23.009 24.4379C23.276 24.4288 23.5103 24.2719 23.6201 24.0286L27.0668 16.4015C27.19 16.1288 27.0688 15.8077 26.7961 15.6844C26.5232 15.5611 26.2022 15.6823 26.0789 15.9551L22.956 22.8658L21.2092 19.6028C21.0877 19.376 20.8525 19.2351 20.5952 19.2351H16.4048C16.1474 19.2351 15.9123 19.376 15.7907 19.6029L14.0446 22.8647L8.65276 10.9045C9.41046 9.92318 10.3029 9.0664 11.3122 8.3509L15.7801 17.8335C15.8944 18.0764 16.1418 18.2334 16.4103 18.2334H20.6046C20.8734 18.2334 21.1208 18.0762 21.2351 17.8329L25.6879 8.35111C26.7011 9.06943 27.5965 9.93026 28.3561 10.9163L27.0386 13.8317C26.9154 14.1045 27.0366 14.4255 27.3093 14.5488C27.5823 14.6723 27.9032 14.5509 28.0264 14.2781L29.4385 11.1534C29.5425 10.9229 29.5137 10.6536 29.3631 10.4509Z" fill="white"/>
<path d="M13.0179 29.4861L6.63894 15.3253C6.51602 15.0523 6.23332 14.8887 5.93471 14.9182C5.63712 14.9476 5.39222 15.1631 5.3253 15.454C5.09658 16.4472 4.98059 17.4719 4.98059 18.4998C4.98059 23.4592 7.68961 28.0133 12.0506 30.3849C12.1551 30.4417 12.2692 30.4694 12.3827 30.4694C12.5542 30.4694 12.7242 30.4059 12.8562 30.2833C13.0759 30.0796 13.1409 29.7591 13.0179 29.4861ZM6.06465 18.4998C6.06465 17.9682 6.09832 17.4377 6.16517 16.9128L11.5161 28.7913C8.12566 26.4885 6.06465 22.6483 6.06465 18.4998Z" fill="white"/>
<path d="M22.5803 30.7532L18.9942 22.7897C18.9068 22.5952 18.7135 22.4703 18.5003 22.4702C18.5002 22.4702 18.5002 22.4702 18.5002 22.4702C18.2871 22.4702 18.0937 22.5952 18.0061 22.7894L14.4159 30.7516C14.3512 30.895 14.352 31.0594 14.4181 31.2021C14.4841 31.3449 14.609 31.4519 14.7601 31.4953C15.9699 31.8431 17.2281 32.0195 18.5001 32.0195C19.7695 32.0195 21.0263 31.8436 22.2356 31.4968C22.3867 31.4533 22.5116 31.3465 22.5777 31.2037C22.6439 31.061 22.6449 30.8966 22.5803 30.7532ZM18.5002 30.9355C17.5415 30.9355 16.5916 30.8267 15.6681 30.6117L18.4999 24.3315L21.3283 30.6126C20.4054 30.8271 19.4568 30.9355 18.5002 30.9355Z" fill="white"/>
<path d="M31.6821 15.4849C31.6157 15.1934 31.3711 14.9776 31.0734 14.9476C30.7747 14.9179 30.4916 15.081 30.3684 15.3539L23.9832 29.4851C23.8598 29.7582 23.9245 30.0788 24.1443 30.2828C24.2764 30.4055 24.4464 30.4691 24.6181 30.4691C24.7315 30.4691 24.8457 30.4414 24.9502 30.3845C29.3107 28.013 32.0195 23.4591 32.0195 18.4999C32.0195 17.4821 31.906 16.4677 31.6821 15.4849ZM25.4871 28.7893L30.8392 16.9447C30.9033 17.4591 30.9355 17.979 30.9355 18.4999C30.9355 22.6473 28.876 26.4865 25.4871 28.7893Z" fill="white"/>
<path d="M31.58 5.41768C28.0853 1.92407 23.44 0 18.5 0C13.9361 0 9.55207 1.67671 6.15573 4.72119C5.93279 4.921 5.91407 5.26368 6.11389 5.48655C6.31363 5.70942 6.65631 5.72821 6.87925 5.52839C10.0765 2.66234 14.2034 1.08398 18.5 1.08398C28.1032 1.08398 35.916 8.89539 35.916 18.4969C35.916 23.1503 34.104 27.525 30.8136 30.8151C27.524 34.1045 23.1509 35.916 18.5 35.916C13.8491 35.916 9.47605 34.1045 6.18637 30.815C2.89605 27.5249 1.08398 23.1502 1.08398 18.4969C1.08398 14.4351 2.5134 10.4815 5.10889 7.36445C5.30039 7.13442 5.26925 6.79268 5.03915 6.6011C4.80928 6.40967 4.46746 6.44067 4.27581 6.67077C1.51859 9.98219 0 14.1821 0 18.4969C0 23.4398 1.92487 28.0867 5.41999 31.5816C8.91433 35.0757 13.5596 37 18.5 37C23.4404 37 28.0857 35.0757 31.58 31.5816C35.0751 28.0867 37 23.4398 37 18.4969C37 13.5567 35.0751 8.91173 31.58 5.41768Z" fill="white"/>
<path d="M18.4999 2.52563C9.69381 2.52563 2.52954 9.69121 2.52954 18.4989C2.52954 21.5077 3.37418 24.441 4.97234 26.9816C6.52648 29.4522 8.72227 31.4525 11.3223 32.7661C11.5893 32.901 11.9154 32.7939 12.0505 32.5267C12.1855 32.2595 12.0783 31.9336 11.8111 31.7986C9.38668 30.5737 7.33911 28.7084 5.88982 26.4044C4.40064 24.0369 3.61345 21.3032 3.61345 18.4989C3.61345 10.289 10.2914 3.60962 18.4998 3.60962C26.7083 3.60962 33.3865 10.2889 33.3865 18.4989C33.3865 26.7087 26.7083 33.388 18.4998 33.388C16.8952 33.388 15.3159 33.1329 13.806 32.6298C13.5217 32.5354 13.215 32.6887 13.1205 32.9727C13.0259 33.2567 13.1794 33.5636 13.4634 33.6582C15.084 34.1982 16.7785 34.472 18.4999 34.472C27.3061 34.472 34.4705 27.3065 34.4705 18.4989C34.4705 9.69128 27.3061 2.52563 18.4999 2.52563Z" fill="white"/>
</svg>
