<svg width="49" height="44" viewBox="0 0 49 44" fill="none" xmlns="http://www.w3.org/2000/svg">
<g clip-path="url(#clip0)">
<path d="M43.9135 29.7725L38.0343 28.5319V27.1344C38.632 26.6961 39.1357 26.1572 39.523 25.5484H40.3629C42.5028 25.5484 44.2439 23.9564 44.2439 22C44.2439 21.2078 43.9491 20.484 43.4677 19.8928V17.0322C43.4677 12.3362 39.2896 8.51611 34.1532 8.51611C29.0169 8.51611 24.8387 12.3362 24.8387 17.0322V19.8928C24.3574 20.484 24.0625 21.2085 24.0625 22C24.0625 23.9564 25.8037 25.5484 27.9435 25.5484H28.7834C29.17 26.1572 29.6745 26.6961 30.2722 27.1344V28.5319L24.393 29.7725C24.0091 29.8532 23.6403 29.9797 23.2863 30.1336V26.258C23.2863 25.0844 22.2414 24.129 20.9577 24.129H2.32863C1.04493 24.129 0 25.0844 0 26.258V39.0322C0 40.2059 1.04493 41.1613 2.32863 41.1613H8.53831V42.5806H6.98589V44H48.125V34.613C48.125 32.2861 46.3933 30.2954 43.9135 29.7725ZM30.8721 29.8626L32.7645 31.16L30.8513 32.2096L30.4397 29.9534L30.8721 29.8626ZM33.3149 35.4839H34.9924L35.6389 42.5806H32.6683L33.3149 35.4839ZM35.1458 34.0645H33.1598L32.7141 32.8423L34.1532 32.0533L35.5916 32.8423L35.1458 34.0645ZM35.5427 31.16L37.4351 29.8626L37.9823 29.9783L37.49 32.2279L35.5427 31.16ZM40.3629 24.129H40.1586C40.2875 23.674 40.3629 23.2007 40.3629 22.7097V19.871C41.6466 19.871 42.6915 20.8263 42.6915 22C42.6915 23.1737 41.6466 24.129 40.3629 24.129ZM34.1532 9.93547C38.4334 9.93547 41.9153 13.119 41.9153 17.0322V18.7524C41.4389 18.5608 40.9155 18.4516 40.3629 18.4516V17.0322H38.8105V17.4283C38.2719 17.857 37.6268 18.1619 36.9367 18.321C36.967 18.2939 37.0003 18.2707 37.0307 18.2437L35.933 17.2402C35.3539 17.7696 34.6205 18.1394 33.8318 18.321C33.8621 18.2939 33.8955 18.2707 33.9258 18.2437L32.8282 17.2402C31.9861 18.0101 30.8202 18.4516 29.6294 18.4516H29.496V17.0322H27.9435V18.4516C27.391 18.4516 26.8675 18.5608 26.3911 18.7524V17.0322C26.3911 13.119 29.8731 9.93547 34.1532 9.93547ZM27.9435 24.129C26.6598 24.129 25.6149 23.1737 25.6149 22C25.6149 20.8263 26.6598 19.871 27.9435 19.871V22.7097C27.9435 23.2007 28.019 23.674 28.1478 24.129H27.9435ZM29.496 22.7097V19.871H29.6294C30.3832 19.871 31.1276 19.7348 31.8246 19.487V19.871H32.7342C33.4881 19.871 34.2324 19.7348 34.9294 19.487V19.871H35.8391C36.8817 19.871 37.9077 19.6149 38.8105 19.1533V22.7097C38.8105 23.208 38.7112 23.6841 38.5387 24.129H34.1532V25.5484H37.6151C36.7619 26.4171 35.5286 26.9677 34.1532 26.9677C31.5847 26.9677 29.496 25.058 29.496 22.7097ZM34.1532 28.3871C34.9768 28.3871 35.7625 28.2367 36.4819 27.9692V28.7419L34.1532 30.3387L31.8246 28.7419V27.9692C32.544 28.2367 33.3296 28.3871 34.1532 28.3871ZM24.7417 31.1554L28.924 30.2735L29.6938 34.4994L31.3512 33.5905L31.8144 34.8608L31.1105 42.5806H27.1673V34.7742H25.6149V42.5806H21.7339V41.0306C22.6352 40.7368 23.2863 39.9561 23.2863 39.0322V31.7823C23.718 31.485 24.2122 31.2677 24.7417 31.1554ZM14.748 41.1613H20.1815V42.5806H14.748V41.1613ZM2.32863 39.7419C1.90035 39.7419 1.55242 39.4238 1.55242 39.0322V26.258C1.55242 25.8665 1.90035 25.5484 2.32863 25.5484H20.9577C21.3859 25.5484 21.7339 25.8665 21.7339 26.258V39.0322C21.7339 39.4238 21.3859 39.7419 20.9577 39.7419H14.748V38.3226C14.748 36.757 13.3555 35.4839 11.6431 35.4839C9.93078 35.4839 8.53831 36.757 8.53831 38.3226V39.7419H2.32863ZM10.0907 38.3226C10.0907 37.5398 10.787 36.9032 11.6431 36.9032C12.4993 36.9032 13.1956 37.5398 13.1956 38.3226V42.5806H10.0907V38.3226ZM46.5726 42.5806H42.6915V34.7742H41.1391V42.5806H37.1959L36.4928 34.8608L36.9552 33.5905L38.5793 34.4817L39.4942 30.2975L43.5648 31.1561C45.3351 31.5297 46.5726 32.9511 46.5726 34.613V42.5806Z" fill="#51C569"/>
<path d="M19.4054 14.5064C19.4054 13.5888 18.7656 12.7769 17.8135 12.4868L14.7481 11.5526V10.6267C15.685 9.97802 16.3005 8.96028 16.3005 7.80637V6.38701C16.3005 4.43055 14.5594 2.83862 12.4195 2.83862C10.2796 2.83862 8.53843 4.43055 8.53843 6.38701V7.80637C8.53843 8.96098 9.15394 9.97871 10.0909 10.6267V11.5526L7.02543 12.4868C6.07336 12.7776 5.43359 13.5888 5.43359 14.5064V18.4515H19.4054V14.5064ZM10.0909 6.38701C10.0909 5.21334 11.1358 4.25798 12.4195 4.25798C13.7032 4.25798 14.7481 5.21334 14.7481 6.38701V7.80637C14.7481 8.98004 13.7032 9.9354 12.4195 9.9354C11.1358 9.9354 10.0909 8.98004 10.0909 7.80637V6.38701ZM17.8529 17.0322H6.98601V14.5064C6.98601 14.2004 7.19864 13.9301 7.517 13.8331L11.6433 12.5762V11.283C11.8942 11.3298 12.1542 11.3548 12.4195 11.3548C12.6848 11.3548 12.9448 11.3298 13.1957 11.283V12.5762L17.322 13.8331C17.6403 13.9301 17.8529 14.2014 17.8529 14.5064V17.0322Z" fill="#51C569"/>
<path d="M12.4194 22.7097C19.2669 22.7097 24.8387 17.6155 24.8387 11.3548C24.8387 5.09422 19.2669 0 12.4194 0C5.57181 0 0 5.09422 0 11.3548C0 17.6155 5.57181 22.7097 12.4194 22.7097ZM12.4194 1.41935C18.4119 1.41935 23.2863 5.87598 23.2863 11.3548C23.2863 16.8337 18.4119 21.2903 12.4194 21.2903C6.42685 21.2903 1.55242 16.8337 1.55242 11.3548C1.55242 5.87598 6.42685 1.41935 12.4194 1.41935Z" fill="#51C569"/>
<path d="M28.7197 4.25806H30.2722V5.67741H28.7197V4.25806Z" fill="#51C569"/>
<path d="M33.377 4.25806H34.9294V5.67741H33.377V4.25806Z" fill="#51C569"/>
<path d="M38.0342 4.25806H39.5866V5.67741H38.0342V4.25806Z" fill="#51C569"/>
</g>
<defs>
<clipPath id="clip0">
<rect width="48.125" height="44" fill="white"/>
</clipPath>
</defs>
</svg>
