<svg width="20" height="20" viewBox="0 0 20 20" fill="none" xmlns="http://www.w3.org/2000/svg">
<g clip-path="url(#clip0)">
<path d="M19.0462 11.7146H18.7469V9.0187C18.7469 8.5919 18.5345 8.21401 18.21 7.9844V7.61733C18.21 7.08487 17.7769 6.65171 17.2444 6.65171H17.0209L17.876 5.39702C18.1626 4.97647 18.0536 4.40112 17.6331 4.11448L11.8311 0.160576C11.6273 0.0217088 11.3818 -0.0295412 11.1395 0.0164354C10.8972 0.0623338 10.6873 0.199795 10.5485 0.403545L5.54067 7.7521H4.14711L4.48332 4.34858C4.48711 4.31022 4.51203 4.27698 4.5468 4.2639C4.97996 4.10058 5.35535 3.79558 5.60379 3.40511C5.62336 3.37437 5.66028 3.35679 5.69848 3.36065L7.88422 3.57659C8.04094 3.59179 8.18035 3.47765 8.19582 3.32101C8.21129 3.16437 8.09688 3.02487 7.94024 3.0094L5.75449 2.79347C5.50078 2.76862 5.25883 2.88554 5.12289 3.09913C4.94024 3.38624 4.66422 3.61046 4.34574 3.73054C4.10602 3.82093 3.94141 4.03624 3.91609 4.29253L3.57438 7.75206H3.21098L3.7427 2.36909C3.76184 2.17534 3.93477 2.033 4.12875 2.05241L8.54571 2.48874C8.70235 2.50386 8.84184 2.38979 8.85731 2.23315C8.87278 2.07651 8.75836 1.93702 8.60172 1.92155L4.18477 1.48522C3.67836 1.43526 3.22551 1.80655 3.17547 2.31304L2.74688 6.65171H2.01699C1.48457 6.65171 1.05137 7.08487 1.05137 7.61733V7.86772C0.615781 8.06827 0.3125 8.50858 0.3125 9.0187V18.7334C0.3125 19.4318 0.880703 20 1.57918 20H17.4802C18.1787 20 18.7469 19.4318 18.7469 18.7334V16.0375H19.0462C19.3995 16.0375 19.6868 15.7501 19.6868 15.3969V12.3553C19.6869 12.002 19.3995 11.7146 19.0462 11.7146ZM17.2444 7.22171C17.4626 7.22167 17.6401 7.39917 17.6401 7.61737V7.76257C17.5877 7.75593 17.5344 7.75214 17.4802 7.75214H16.2711L16.6325 7.22171H17.2444ZM11.0195 0.724482C11.0726 0.646553 11.1529 0.593974 11.2456 0.576396C11.2677 0.572217 11.2899 0.570107 11.312 0.570107C11.3822 0.570107 11.4508 0.591123 11.5101 0.631514L17.3121 4.58542C17.4729 4.69507 17.5147 4.91515 17.405 5.07601L15.5814 7.75202H15.1437L16.0378 6.44003C16.1828 6.22726 16.1948 5.95647 16.0689 5.73331C15.9016 5.43683 15.8338 5.08772 15.878 4.75026C15.9108 4.49921 15.8003 4.25413 15.5897 4.11062L12.582 2.06093C12.3713 1.91737 12.1028 1.90421 11.8811 2.02659C11.5833 2.19104 11.2336 2.25561 10.8964 2.20843C10.6464 2.17335 10.3929 2.28624 10.25 2.49581L6.66805 7.75206H6.23039L11.0195 0.724482ZM11.145 5.56397C9.90395 5.56397 8.8852 6.53167 8.80219 7.75206H7.3577L10.7209 2.81679C10.721 2.81679 10.721 2.81679 10.721 2.81679C10.7401 2.7887 10.7718 2.77198 10.8043 2.77198C10.8086 2.77198 10.813 2.77229 10.8173 2.77288C11.2758 2.83702 11.7514 2.74929 12.1566 2.52558C12.1884 2.50792 12.2294 2.51046 12.2609 2.53194L15.2687 4.58167C15.3002 4.60315 15.3175 4.64034 15.3128 4.67644C15.2528 5.13538 15.345 5.61015 15.5725 6.01335C15.5907 6.04573 15.5885 6.08722 15.5669 6.11905L14.4541 7.75202H13.4879C13.4048 6.53167 12.3861 5.56397 11.145 5.56397ZM12.9164 7.7521H9.37364C9.45528 6.84628 10.2183 6.13397 11.145 6.13397C12.0717 6.13393 12.8348 6.84628 12.9164 7.7521ZM1.62133 7.61733C1.62133 7.39913 1.79879 7.22163 2.01699 7.22163H2.69059L2.6382 7.75206H1.62133V7.61733ZM0.882461 9.0187C0.882461 8.63456 1.195 8.32202 1.57918 8.32202H17.4802C17.8644 8.32202 18.1769 8.63456 18.1769 9.0187V9.80948H0.882461V9.0187ZM18.1769 18.7334C18.1769 19.1175 17.8644 19.43 17.4802 19.43H1.57918C1.195 19.43 0.882461 19.1175 0.882461 18.7334V17.9426H2.41926C2.57668 17.9426 2.70422 17.815 2.70422 17.6576C2.70422 17.5002 2.57664 17.3726 2.41926 17.3726H0.882461V10.3794H18.1769V11.7146H15.4673H15.4673C14.6135 11.7146 13.874 12.2123 13.523 12.9326C13.5218 12.935 13.5205 12.9374 13.5193 12.9398C13.5163 12.9459 13.5138 12.9523 13.5109 12.9585C13.4691 13.0473 13.4327 13.1392 13.4032 13.234C13.4031 13.2343 13.403 13.2345 13.4029 13.2348C13.3398 13.4375 13.3058 13.6528 13.3058 13.876C13.3058 15.0679 14.2754 16.0375 15.4672 16.0375H15.4673H18.1769V17.3726H4.24402C4.0866 17.3726 3.95906 17.5002 3.95906 17.6576C3.95906 17.815 4.08664 17.9426 4.24402 17.9426H18.1769V18.7334ZM19.1169 15.3968C19.1169 15.4358 19.0852 15.4675 19.0462 15.4675H15.4673C14.864 15.4675 14.338 15.1301 14.0682 14.634C14.0559 14.6115 14.0442 14.5886 14.033 14.5654C14.0106 14.5191 13.9904 14.4714 13.9726 14.4227C13.91 14.2521 13.8759 14.068 13.8759 13.876C13.8759 13.6841 13.91 13.5 13.9726 13.3294C13.9905 13.2807 14.0107 13.2331 14.033 13.1867C14.0442 13.1635 14.0559 13.1406 14.0682 13.1181C14.338 12.622 14.864 12.2846 15.4673 12.2846H19.0462C19.0852 12.2846 19.1169 12.3163 19.1169 12.3553V15.3968Z" fill="#34495E"/>
<path d="M15.5342 12.7197C14.8966 12.7197 14.3779 13.2384 14.3779 13.876C14.3779 14.5135 14.8966 15.0322 15.5342 15.0322C16.1718 15.0322 16.6904 14.5135 16.6904 13.876C16.6904 13.2384 16.1718 12.7197 15.5342 12.7197ZM15.5342 14.4622C15.2109 14.4622 14.9479 14.1992 14.9479 13.876C14.9479 13.5527 15.2109 13.2897 15.5342 13.2897C15.8575 13.2897 16.1205 13.5527 16.1205 13.876C16.1205 14.1993 15.8575 14.4622 15.5342 14.4622Z" fill="#34495E"/>
</g>
<defs>
<clipPath id="clip0">
<rect width="20" height="20" fill="white"/>
</clipPath>
</defs>
</svg>
