<svg width="30" height="30" viewBox="0 0 30 30" fill="none" xmlns="http://www.w3.org/2000/svg">
<path d="M15 0C6.72913 0 0 6.72913 0 15C0 23.2709 6.72913 30 15 30C23.2709 30 30 23.2709 30 15C30 6.72913 23.2709 0 15 0ZM15 28.6957C7.44783 28.6957 1.30435 22.5522 1.30435 15C1.30435 7.44783 7.44783 1.30435 15 1.30435C22.5522 1.30435 28.6957 7.44783 28.6957 15C28.6957 22.5522 22.5522 28.6957 15 28.6957Z" fill="#51C569"/>
<path d="M9.78269 14.3476C10.8614 14.3476 11.7392 13.4698 11.7392 12.3911C11.7392 11.3124 10.8614 10.4346 9.78269 10.4346C8.704 10.4346 7.82617 11.3124 7.82617 12.3911C7.82617 13.4698 8.704 14.3476 9.78269 14.3476ZM9.78269 11.7389C10.142 11.7389 10.4349 12.0317 10.4349 12.3911C10.4349 12.7504 10.142 13.0433 9.78269 13.0433C9.42335 13.0433 9.13052 12.7504 9.13052 12.3911C9.13052 12.0317 9.42335 11.7389 9.78269 11.7389Z" fill="#51C569"/>
<path d="M20.2173 10.4346C19.1386 10.4346 18.2607 11.3124 18.2607 12.3911C18.2607 13.4698 19.1386 14.3476 20.2173 14.3476C21.2959 14.3476 22.1738 13.4698 22.1738 12.3911C22.1738 11.3124 21.2959 10.4346 20.2173 10.4346ZM20.2173 13.0433C19.8579 13.0433 19.5651 12.7504 19.5651 12.3911C19.5651 12.0317 19.8579 11.7389 20.2173 11.7389C20.5766 11.7389 20.8694 12.0317 20.8694 12.3911C20.8694 12.7504 20.5766 13.0433 20.2173 13.0433Z" fill="#51C569"/>
<path d="M21.5218 18.2607H8.47835C8.11835 18.2607 7.82617 18.5529 7.82617 18.9129C7.82617 19.2729 8.11835 19.5651 8.47835 19.5651H21.5218C21.8818 19.5651 22.174 19.2729 22.174 18.9129C22.174 18.5529 21.8818 18.2607 21.5218 18.2607Z" fill="#51C569"/>
</svg>
