<svg width="30" height="30" viewBox="0 0 30 30" fill="none" xmlns="http://www.w3.org/2000/svg">
<path d="M15 0C6.72913 0 0 6.72913 0 15C0 23.2709 6.72913 30 15 30C23.2715 30 30 23.2709 30 15C30 6.72913 23.2715 0 15 0ZM15 28.6957C7.44783 28.6957 1.30435 22.5522 1.30435 15C1.30435 7.44783 7.44783 1.30435 15 1.30435C22.5515 1.30435 28.6957 7.44783 28.6957 15C28.6957 22.5522 22.5515 28.6957 15 28.6957Z" fill="#51C569"/>
<path d="M11.7392 12.3911C11.7392 11.3124 10.8614 10.4346 9.78269 10.4346C8.704 10.4346 7.82617 11.3124 7.82617 12.3911C7.82617 13.4698 8.704 14.3476 9.78269 14.3476C10.8614 14.3476 11.7392 13.4698 11.7392 12.3911ZM9.13052 12.3911C9.13052 12.0317 9.42335 11.7389 9.78269 11.7389C10.142 11.7389 10.4349 12.0317 10.4349 12.3911C10.4349 12.7504 10.142 13.0433 9.78269 13.0433C9.42335 13.0433 9.13052 12.7504 9.13052 12.3911Z" fill="#51C569"/>
<path d="M20.2173 10.4346C19.1386 10.4346 18.2607 11.3124 18.2607 12.3911C18.2607 13.4698 19.1386 14.3476 20.2173 14.3476C21.2959 14.3476 22.1738 13.4698 22.1738 12.3911C22.1738 11.3124 21.2959 10.4346 20.2173 10.4346ZM20.2173 13.0433C19.8573 13.0433 19.5651 12.7504 19.5651 12.3911C19.5651 12.0317 19.8573 11.7389 20.2173 11.7389C20.5773 11.7389 20.8694 12.0317 20.8694 12.3911C20.8694 12.7504 20.5773 13.0433 20.2173 13.0433Z" fill="#51C569"/>
<path d="M15 18.2607C12.5687 18.2607 10.2522 19.2905 8.6446 21.0866C8.4046 21.3553 8.42742 21.7675 8.69547 22.0075C8.96416 22.2481 9.37634 22.2246 9.61634 21.9566C10.9768 20.4364 12.9392 19.5651 15 19.5651C17.0609 19.5651 19.0233 20.4364 20.3837 21.9566C20.5122 22.1007 20.6909 22.1738 20.8696 22.1738C21.0242 22.1738 21.1807 22.119 21.3046 22.0075C21.5726 21.7675 21.5955 21.3553 21.3555 21.0866C19.7479 19.2912 17.432 18.2607 15 18.2607Z" fill="#51C569"/>
</svg>
