<svg width="30" height="30" viewBox="0 0 30 30" fill="none" xmlns="http://www.w3.org/2000/svg">
<path d="M15 0C6.72913 0 0 6.72913 0 15C0 23.2709 6.72913 30 15 30C23.2709 30 30 23.2709 30 15C30 6.72913 23.2709 0 15 0ZM15 28.6957C7.44783 28.6957 1.30435 22.5522 1.30435 15C1.30435 7.44783 7.44783 1.30435 15 1.30435C22.5522 1.30435 28.6957 7.44783 28.6957 15C28.6957 22.5522 22.5522 28.6957 15 28.6957Z" fill="#51C569"/>
<path d="M11.7392 12.3911C11.7392 11.3124 10.8614 10.4346 9.78269 10.4346C8.704 10.4346 7.82617 11.3124 7.82617 12.3911C7.82617 13.4698 8.704 14.3476 9.78269 14.3476C10.8614 14.3476 11.7392 13.4698 11.7392 12.3911ZM9.13052 12.3911C9.13052 12.0317 9.42335 11.7389 9.78269 11.7389C10.142 11.7389 10.4349 12.0317 10.4349 12.3911C10.4349 12.7504 10.142 13.0433 9.78269 13.0433C9.42335 13.0433 9.13052 12.7504 9.13052 12.3911Z" fill="#51C569"/>
<path d="M20.2173 10.4346C19.1386 10.4346 18.2607 11.3124 18.2607 12.3911C18.2607 13.4698 19.1386 14.3476 20.2173 14.3476C21.296 14.3476 22.1738 13.4698 22.1738 12.3911C22.1738 11.3124 21.296 10.4346 20.2173 10.4346ZM20.2173 13.0433C19.8579 13.0433 19.5651 12.7504 19.5651 12.3911C19.5651 12.0317 19.8579 11.7389 20.2173 11.7389C20.5766 11.7389 20.8694 12.0317 20.8694 12.3911C20.8694 12.7504 20.5766 13.0433 20.2173 13.0433Z" fill="#51C569"/>
<path d="M21.3048 18.4271C21.0361 18.1864 20.6233 18.2099 20.384 18.478C19.0235 19.9982 17.0618 20.8695 15.0003 20.8695C12.9394 20.8695 10.977 19.9982 9.61656 18.478C9.37591 18.2099 8.96439 18.1864 8.69569 18.4271C8.427 18.6671 8.40482 19.0793 8.64482 19.348C10.2524 21.144 12.569 22.1738 15.0003 22.1738C17.4322 22.1738 19.7487 21.1434 21.3557 19.348C21.5957 19.0793 21.5729 18.6671 21.3048 18.4271Z" fill="#51C569"/>
</svg>
