<svg width="15" height="15" viewBox="0 0 15 15" fill="none" xmlns="http://www.w3.org/2000/svg">
<path d="M10.3529 1.58816V0.705811H9.29411V1.58816H5.70589V0.705811H4.64707V1.58816H0V14.294H15V1.58816H10.3529ZM4.64707 2.64699V3.52934H5.70589V2.64699H9.29414V3.35287H10.353V2.64699H13.9412V4.41169H1.05882V2.64699H4.64707ZM1.05882 13.2352V5.47052H13.9412V13.2352H1.05882Z" fill="#81909F"/>
<path d="M5.20611 10.0588H3.44141V11.8235H5.20611V10.0588Z" fill="#81909F"/>
<path d="M8.38287 10.0588H6.61816V11.8235H8.38287V10.0588Z" fill="#81909F"/>
<path d="M11.5587 10.0588H9.79395V11.8235H11.5587V10.0588Z" fill="#81909F"/>
<path d="M8.38287 6.88232H6.61816V8.64703H8.38287V6.88232Z" fill="#81909F"/>
<path d="M11.5587 6.88232H9.79395V8.64703H11.5587V6.88232Z" fill="#81909F"/>
<path d="M5.20611 6.88232H3.44141V8.64703H5.20611V6.88232Z" fill="#81909F"/>
</svg>
