<svg width="15" height="15" viewBox="0 0 15 15" fill="none" xmlns="http://www.w3.org/2000/svg">
<path d="M14.4263 6.00963L14.0994 5.66347L12.9519 2.57053C12.7564 2.04809 12.2564 1.70194 11.6987 1.69873H3.50321C2.94551 1.69873 2.44551 2.04809 2.25 2.57053L1.11859 5.62501L0.647436 6.06091C0.23718 6.41027 0 6.92309 0 7.46155V11.968C0.00320513 12.7051 0.602564 13.3013 1.33974 13.3013H2.1859C2.92308 13.3013 3.52244 12.7051 3.52564 11.968V11.3141H11.4744V11.968C11.4776 12.7051 12.0769 13.3013 12.8141 13.3013H13.6603C14.3974 13.3013 14.9968 12.7051 15 11.968V7.34296C14.9968 6.83976 14.7917 6.35899 14.4263 6.00963ZM2.85256 2.78847C2.95513 2.51604 3.21474 2.33976 3.50321 2.33976H11.7019C11.9904 2.33976 12.25 2.51924 12.3526 2.78847L13.3526 5.48078H12.6058C12.4295 4.27886 11.3109 3.44873 10.109 3.62822C9.15064 3.76924 8.39744 4.52245 8.25641 5.48078H1.85256L2.85256 2.78847ZM11.9519 5.48078H8.90385C9.08013 4.63783 9.90705 4.09937 10.75 4.27565C11.3526 4.40386 11.8237 4.87501 11.9519 5.48078ZM2.88462 11.968C2.88141 12.3526 2.57051 12.6603 2.1859 12.6603H1.33974C0.955128 12.6603 0.644231 12.3526 0.641026 11.968V11.1282C0.833333 11.2532 1.08654 11.3141 1.33974 11.3141H2.88462V11.968ZM14.359 11.968C14.3558 12.3526 14.0449 12.6603 13.6603 12.6603H12.8141C12.4295 12.6603 12.1186 12.3494 12.1154 11.968V11.3141H13.6603C13.9135 11.3141 14.1667 11.2532 14.359 11.1282V11.968ZM13.6603 10.6731H1.33974C0.958333 10.6763 0.644231 10.3718 0.641026 9.98719V7.46155C0.641026 7.10899 0.798077 6.77245 1.06731 6.54488C1.07051 6.54168 1.07692 6.53527 1.08013 6.53206L1.51603 6.12181H13.6538L13.9615 6.45193C13.9647 6.45834 13.9744 6.46155 13.9776 6.46796C14.2179 6.69552 14.3558 7.01283 14.3558 7.34296V9.98719H14.359C14.3558 10.3686 14.0417 10.6763 13.6603 10.6731Z" fill="#81909F"/>
<path d="M4.23119 7.40381H1.82735C1.65107 7.40381 1.50684 7.54804 1.50684 7.72432V9.39099C1.50684 9.56727 1.65107 9.7115 1.82735 9.7115H4.23119C4.40748 9.7115 4.55171 9.56727 4.55171 9.39099V7.72432C4.55171 7.54804 4.40748 7.40381 4.23119 7.40381ZM3.91068 9.07047H2.14786V8.04483H3.91068V9.07047Z" fill="#81909F"/>
<path d="M13.1726 7.40381H10.7688C10.5925 7.40381 10.4482 7.54804 10.4482 7.72432V9.39099C10.4482 9.56727 10.5925 9.7115 10.7688 9.7115H13.1726C13.3489 9.7115 13.4931 9.56727 13.4931 9.39099V7.72432C13.4931 7.54804 13.3489 7.40381 13.1726 7.40381ZM12.8521 9.07047H11.0893V8.04483H12.8521V9.07047Z" fill="#81909F"/>
<path d="M9.0485 8.75H5.95235C5.77607 8.75 5.63184 8.89423 5.63184 9.07051C5.63184 9.24679 5.77607 9.39103 5.95235 9.39103H9.0485C9.22478 9.39103 9.36901 9.24679 9.36901 9.07051C9.36901 8.89423 9.22478 8.75 9.0485 8.75Z" fill="#81909F"/>
<path d="M9.0485 7.75635H5.95235C5.77607 7.75635 5.63184 7.90058 5.63184 8.07686C5.63184 8.25315 5.77607 8.39738 5.95235 8.39738H9.0485C9.22478 8.39738 9.36901 8.25315 9.36901 8.07686C9.36901 7.90058 9.22478 7.75635 9.0485 7.75635Z" fill="#81909F"/>
</svg>
