<svg width="20" height="20" viewBox="0 0 20 20" fill="none" xmlns="http://www.w3.org/2000/svg">
<g clip-path="url(#clip0)">
<path d="M10.8434 10.1847L6.52877 7.0637C6.39677 6.9687 6.21377 6.9827 6.09777 7.09836C5.98177 7.21436 5.96744 7.39703 6.0631 7.52936L9.18477 11.8447C9.38944 12.1264 9.70577 12.3034 10.0528 12.3304C10.0841 12.3327 10.1151 12.3337 10.1458 12.3337C10.4598 12.3337 10.7618 12.2097 10.9854 11.9857C11.2311 11.74 11.3568 11.4004 11.3298 11.0534C11.3028 10.7064 11.1258 10.39 10.8434 10.1847ZM10.5141 11.5144C10.4061 11.622 10.2558 11.677 10.1048 11.6654C9.95277 11.6537 9.81377 11.5757 9.72444 11.453L7.8201 8.8207L10.4518 10.7244C10.5754 10.8144 10.6531 10.9534 10.6651 11.1057C10.6771 11.2574 10.6218 11.4067 10.5141 11.5144Z" fill="#51C569"/>
<path d="M18.6936 8.67449C18.6933 8.67349 18.6936 8.67216 18.6933 8.67115C18.693 8.66982 18.692 8.66882 18.6916 8.66749C18.4876 7.90782 18.1856 7.18849 17.8016 6.52182C17.7983 6.51482 17.7983 6.50749 17.7943 6.50049C17.7903 6.49382 17.784 6.49016 17.7796 6.48382C17.4426 5.90549 17.044 5.36816 16.591 4.88082L17.3066 4.16516L17.7783 4.63649L19.1923 3.22249L17.7783 1.80815L16.364 3.22249L16.8353 3.69382L16.1196 4.40949C15.6323 3.95682 15.095 3.55782 14.5166 3.22082C14.5103 3.21649 14.5066 3.21016 14.5 3.20615C14.4933 3.20215 14.4853 3.20249 14.4786 3.19882C13.812 2.81449 13.0926 2.51282 12.3333 2.30882C12.332 2.30849 12.3309 2.30749 12.3296 2.30716C12.3283 2.30682 12.3273 2.30716 12.3263 2.30716C11.8956 2.19182 11.453 2.10782 11 2.05749V1.66716H11.5C11.9596 1.66716 12.3333 1.29349 12.3333 0.833822C12.3333 0.374155 11.9596 0.000488281 11.5 0.000488281H8.49995C8.04028 0.000488281 7.66662 0.374155 7.66662 0.833822C7.66662 1.29349 8.04028 1.66716 8.49995 1.66716H8.99995V2.05749C8.54695 2.10782 8.10428 2.19182 7.67395 2.30716C7.67262 2.30749 7.67162 2.30716 7.67062 2.30749C7.66928 2.30782 7.66828 2.30882 7.66695 2.30915C6.90762 2.51315 6.18828 2.81516 5.52162 3.19915C5.51462 3.20249 5.50695 3.20249 5.49995 3.20649C5.49328 3.21049 5.48962 3.21682 5.48328 3.22115C4.90528 3.55816 4.36762 3.95682 3.88028 4.40982L3.16462 3.69382L3.63595 3.22249L2.22162 1.80815L0.807617 3.22249L2.22162 4.63649L2.69328 4.16516L3.40895 4.88082C2.95628 5.36816 2.55728 5.90549 2.22062 6.48382C2.21628 6.49016 2.20962 6.49382 2.20595 6.50049C2.20195 6.50749 2.20228 6.51482 2.19862 6.52182C1.81428 7.18849 1.51262 7.90782 1.30862 8.66749C1.30828 8.66882 1.30728 8.66982 1.30695 8.67115C1.30662 8.67216 1.30695 8.67349 1.30662 8.67449C1.10762 9.41716 0.99995 10.1962 0.99995 11.0005C0.99995 11.8048 1.10762 12.5838 1.30628 13.3265C1.30662 13.3278 1.30628 13.3288 1.30662 13.3298C1.30695 13.3315 1.30828 13.3328 1.30862 13.3345C1.51262 14.0938 1.81428 14.8128 2.19828 15.4792C2.20162 15.4862 2.20162 15.4935 2.20562 15.5005C2.21128 15.5102 2.21928 15.5175 2.22562 15.5265C2.61395 16.1908 3.08328 16.8022 3.62262 17.3445C3.62795 17.3508 3.62995 17.3585 3.63595 17.3645C3.64195 17.3705 3.64962 17.3725 3.65595 17.3778C4.20062 17.9198 4.81528 18.3908 5.48328 18.7802C5.48962 18.7845 5.49328 18.7908 5.49995 18.7948C5.50995 18.8005 5.52095 18.8032 5.53128 18.8078C6.19495 19.1892 6.91128 19.4892 7.66695 19.6922C7.66828 19.6925 7.66928 19.6935 7.67062 19.6938C7.67228 19.6942 7.67395 19.6942 7.67562 19.6945C8.41762 19.8932 9.19628 20.0005 9.99995 20.0005C10.8036 20.0005 11.5823 19.8932 12.3243 19.6945C12.326 19.6942 12.3276 19.6945 12.3293 19.6938C12.3306 19.6935 12.3316 19.6925 12.333 19.6922C13.0886 19.4892 13.8046 19.1892 14.4686 18.8078C14.479 18.8032 14.49 18.8008 14.5 18.7948C14.5066 18.7908 14.5103 18.7845 14.5166 18.7802C15.1846 18.3908 15.799 17.9198 16.344 17.3778C16.3503 17.3725 16.358 17.3705 16.364 17.3645C16.37 17.3585 16.372 17.3505 16.3773 17.3445C16.9166 16.8022 17.386 16.1908 17.7743 15.5265C17.7806 15.5175 17.7886 15.5105 17.7943 15.5005C17.7983 15.4935 17.798 15.4862 17.8016 15.4792C18.1856 14.8128 18.4873 14.0938 18.6913 13.3345C18.6916 13.3328 18.693 13.3315 18.6933 13.3298C18.6936 13.3288 18.6933 13.3275 18.6936 13.3265C18.8923 12.5838 19 11.8048 19 11.0005C19 10.1962 18.8923 9.41716 18.6936 8.67449ZM17.7783 2.75082L18.2496 3.22249L17.7783 3.69382L17.3066 3.22249L17.7783 2.75082ZM1.75028 3.22249L2.22162 2.75082L2.69328 3.22249L2.22162 3.69382L1.75028 3.22249ZM17.319 13.3068L17.9573 13.4778C17.8056 13.9638 17.609 14.4302 17.375 14.8738L16.806 14.5452C16.6466 14.4528 16.4426 14.5072 16.3506 14.6672C16.2586 14.8268 16.3133 15.0305 16.4726 15.1225L17.0403 15.4502C16.7693 15.8775 16.4616 16.2788 16.1196 16.6488L15.6566 16.1858C15.5263 16.0555 15.3156 16.0555 15.1853 16.1858C15.055 16.3162 15.055 16.5268 15.1853 16.6572L15.6483 17.1202C15.2783 17.4622 14.877 17.7698 14.4496 18.0408L14.122 17.4732C14.0296 17.3132 13.8253 17.2585 13.6666 17.3512C13.507 17.4432 13.4523 17.6472 13.5446 17.8065L13.8733 18.3755C13.4296 18.6095 12.9636 18.8062 12.4773 18.9578L12.3063 18.3198C12.2586 18.1418 12.076 18.0358 11.898 18.0842C11.7203 18.1318 11.6146 18.3145 11.6623 18.4925L11.8326 19.1285C11.3473 19.2378 10.8463 19.3052 10.3333 19.3255V18.6672C10.3333 18.4828 10.1843 18.3338 9.99995 18.3338C9.81562 18.3338 9.66662 18.4828 9.66662 18.6672V19.3255C9.15362 19.3052 8.65262 19.2378 8.16728 19.1285L8.33762 18.4925C8.38528 18.3148 8.27962 18.1318 8.10195 18.0842C7.92428 18.0362 7.74128 18.1418 7.69362 18.3198L7.52262 18.9578C7.03662 18.8062 6.57028 18.6095 6.12662 18.3755L6.45528 17.8065C6.54728 17.6468 6.49262 17.4432 6.33328 17.3512C6.17395 17.2588 5.96995 17.3132 5.87795 17.4732L5.55028 18.0408C5.12295 17.7698 4.72162 17.4622 4.35162 17.1202L4.81462 16.6572C4.94495 16.5268 4.94495 16.3162 4.81462 16.1858C4.68428 16.0555 4.47362 16.0555 4.34328 16.1858L3.88028 16.6488C3.53828 16.2788 3.23062 15.8775 2.95962 15.4502L3.52728 15.1225C3.68695 15.0305 3.74162 14.8265 3.64928 14.6672C3.55695 14.5072 3.35262 14.4525 3.19395 14.5452L2.62495 14.8738C2.39095 14.4302 2.19428 13.9642 2.04262 13.4778L2.68095 13.3068C2.85862 13.2592 2.96428 13.0765 2.91662 12.8985C2.86928 12.7205 2.68662 12.6145 2.50828 12.6628L1.87195 12.8332C1.76295 12.3478 1.69528 11.8468 1.67495 11.3338H2.33328C2.51762 11.3338 2.66662 11.1848 2.66662 11.0005C2.66662 10.8162 2.51762 10.6672 2.33328 10.6672H1.67495C1.69528 10.1542 1.76262 9.65316 1.87195 9.16782L2.50828 9.33849C2.53728 9.34616 2.56628 9.34982 2.59495 9.34982C2.74195 9.34982 2.87662 9.25182 2.91662 9.10282C2.96462 8.92515 2.85862 8.74216 2.68095 8.69449L2.04262 8.52316C2.19428 8.03716 2.39095 7.57082 2.62495 7.12715L3.19395 7.45582C3.24595 7.48616 3.30328 7.50049 3.35995 7.50049C3.47528 7.50049 3.58728 7.44082 3.64895 7.33382C3.74095 7.17416 3.68628 6.97049 3.52695 6.87849L2.95928 6.55082C3.23028 6.12349 3.53795 5.72216 3.87995 5.35216L4.34295 5.81516C4.40795 5.88016 4.49328 5.91282 4.57862 5.91282C4.66395 5.91282 4.74928 5.88016 4.81428 5.81516C4.94462 5.68482 4.94462 5.47416 4.81428 5.34382L4.35128 4.88082C4.72128 4.53916 5.12262 4.23115 5.54995 3.96016L5.87762 4.52816C5.93962 4.63482 6.05128 4.69482 6.16662 4.69482C6.22328 4.69482 6.28062 4.68049 6.33295 4.65016C6.49262 4.55816 6.54728 4.35416 6.45495 4.19482L6.12628 3.62549C6.56995 3.39149 7.03595 3.19482 7.52228 3.04316L7.69328 3.68149C7.73295 3.83016 7.86762 3.92849 8.01495 3.92849C8.04362 3.92849 8.07262 3.92482 8.10162 3.91716C8.27928 3.86949 8.38495 3.68682 8.33728 3.50882L8.16695 2.87249C8.55762 2.78449 8.95795 2.72416 9.36695 2.69349C9.47028 2.68582 9.56362 2.68016 9.65395 2.67582C9.65828 2.67582 9.66228 2.67582 9.66662 2.67549V3.33382C9.66662 3.51816 9.81562 3.66716 9.99995 3.66716C10.1843 3.66716 10.3333 3.51816 10.3333 3.33382V2.67549C10.3376 2.67549 10.3416 2.67549 10.346 2.67582C10.4363 2.68016 10.5293 2.68582 10.633 2.69349C11.042 2.72449 11.4426 2.78449 11.833 2.87249L11.6626 3.50882C11.615 3.68649 11.7206 3.86949 11.8983 3.91716C11.9273 3.92482 11.9563 3.92849 11.985 3.92849C12.132 3.92849 12.267 3.83016 12.3066 3.68149L12.4776 3.04316C12.9636 3.19482 13.43 3.39149 13.8736 3.62549L13.545 4.19482C13.453 4.35449 13.5076 4.55816 13.667 4.65016C13.7193 4.68049 13.7766 4.69482 13.8333 4.69482C13.9486 4.69482 14.0606 4.63482 14.1223 4.52816L14.45 3.96016C14.8773 4.23115 15.2786 4.53916 15.6486 4.88082L15.1856 5.34382C15.0553 5.47416 15.0553 5.68482 15.1856 5.81516C15.2506 5.88016 15.336 5.91282 15.4213 5.91282C15.5066 5.91282 15.592 5.88016 15.657 5.81516L16.12 5.35216C16.462 5.72216 16.7696 6.12349 17.0406 6.55082L16.4729 6.87849C16.3133 6.97049 16.2586 7.17416 16.351 7.33382C16.413 7.44082 16.5246 7.50049 16.6399 7.50049C16.6966 7.50049 16.754 7.48616 16.8063 7.45582L17.3753 7.12715C17.6093 7.57082 17.806 8.03682 17.9576 8.52316L17.3193 8.69449C17.1416 8.74216 17.0356 8.92482 17.0836 9.10282C17.1236 9.25182 17.2579 9.34982 17.4053 9.34982C17.434 9.34982 17.463 9.34616 17.492 9.33849L18.1283 9.16782C18.2376 9.65316 18.305 10.1542 18.3253 10.6672H17.6666C17.4823 10.6672 17.3333 10.8162 17.3333 11.0005C17.3333 11.1848 17.4823 11.3338 17.6666 11.3338H18.325C18.3046 11.8468 18.2373 12.3478 18.128 12.8335L17.4916 12.6632C17.3146 12.6152 17.131 12.7212 17.0833 12.8988C17.0356 13.0765 17.1413 13.2592 17.319 13.3068ZM9.66662 2.00782V1.00049H8.49995C8.40828 1.00049 8.33328 0.925488 8.33328 0.833822C8.33328 0.742155 8.40828 0.667155 8.49995 0.667155H11.5C11.5916 0.667155 11.6666 0.742155 11.6666 0.833822C11.6666 0.925488 11.5916 1.00049 11.5 1.00049H10.3333V2.00782C10.2166 2.00282 10.107 2.00049 9.99995 2.00049C9.89295 2.00049 9.78328 2.00282 9.66662 2.00782Z" fill="#51C569"/>
</g>
<defs>
<clipPath id="clip0">
<rect width="20" height="20" fill="white" transform="translate(0 0.000488281)"/>
</clipPath>
</defs>
</svg>
