<svg width="27" height="27" viewBox="0 0 27 27" fill="none" xmlns="http://www.w3.org/2000/svg">
<path d="M14.6392 13.7487L8.81443 9.53535C8.63623 9.4071 8.38918 9.426 8.23258 9.58215C8.07598 9.73875 8.05663 9.98535 8.18578 10.164L12.4 15.9897C12.6763 16.37 13.1034 16.6089 13.5718 16.6454C13.6141 16.6485 13.656 16.6499 13.6974 16.6499C14.1213 16.6499 14.529 16.4825 14.8309 16.1801C15.1626 15.8484 15.3322 15.3899 15.2958 14.9214C15.2593 14.453 15.0204 14.0259 14.6392 13.7487ZM14.1946 15.5438C14.0488 15.6891 13.8459 15.7634 13.642 15.7476C13.4368 15.7319 13.2492 15.6266 13.1286 15.461L10.5577 11.9073L14.1105 14.4773C14.2774 14.5988 14.3823 14.7864 14.3985 14.9921C14.4147 15.1968 14.34 15.3984 14.1946 15.5438Z" fill="#34495E"/>
<path d="M25.2369 11.7099C25.2365 11.7085 25.2369 11.7067 25.2365 11.7054C25.236 11.7036 25.2347 11.7022 25.2342 11.7004C24.9588 10.6749 24.5511 9.7038 24.0327 8.8038C24.0282 8.79435 24.0282 8.78445 24.0228 8.775C24.0174 8.766 24.0089 8.76105 24.003 8.7525C23.5481 7.97175 23.0099 7.24635 22.3983 6.58845L23.3645 5.6223L24.0012 6.2586L25.9101 4.3497L24.0012 2.44035L22.0919 4.3497L22.7282 4.986L21.762 5.95215C21.1041 5.34105 20.3787 4.8024 19.598 4.34745C19.5894 4.3416 19.5845 4.33305 19.5755 4.32765C19.5665 4.32225 19.5557 4.3227 19.5467 4.31775C18.6467 3.7989 17.6756 3.39165 16.6505 3.11625C16.6487 3.1158 16.6473 3.11445 16.6455 3.114C16.6437 3.11355 16.6424 3.114 16.641 3.114C16.0596 2.9583 15.462 2.8449 14.8505 2.77695V2.25H15.5255C16.146 2.25 16.6505 1.74555 16.6505 1.125C16.6505 0.50445 16.146 0 15.5255 0H11.4755C10.8549 0 10.3505 0.50445 10.3505 1.125C10.3505 1.74555 10.8549 2.25 11.4755 2.25H12.1505V2.77695C11.5389 2.8449 10.9413 2.9583 10.3604 3.114C10.3586 3.11445 10.3572 3.114 10.3559 3.11445C10.3541 3.1149 10.3527 3.11625 10.3509 3.1167C9.32582 3.3921 8.35472 3.7998 7.45472 4.3182C7.44527 4.3227 7.43492 4.3227 7.42547 4.3281C7.41647 4.3335 7.41152 4.34205 7.40297 4.3479C6.62267 4.80285 5.89682 5.34105 5.23892 5.9526L4.27277 4.986L4.90907 4.3497L2.99972 2.44035L1.09082 4.3497L2.99972 6.2586L3.63647 5.6223L4.60262 6.58845C3.99152 7.24635 3.45287 7.97175 2.99837 8.7525C2.99252 8.76105 2.98352 8.766 2.97857 8.775C2.97317 8.78445 2.97362 8.79435 2.96867 8.8038C2.44982 9.7038 2.04257 10.6749 1.76717 11.7004C1.76672 11.7022 1.76537 11.7036 1.76492 11.7054C1.76447 11.7067 1.76492 11.7085 1.76447 11.7099C1.49582 12.7125 1.35047 13.7641 1.35047 14.85C1.35047 15.9358 1.49582 16.9875 1.76402 17.9901C1.76447 17.9919 1.76402 17.9932 1.76447 17.9946C1.76492 17.9968 1.76672 17.9986 1.76717 18.0009C2.04257 19.026 2.44982 19.9967 2.96822 20.8962C2.97272 20.9056 2.97272 20.9156 2.97812 20.925C2.98577 20.938 2.99657 20.9479 3.00512 20.9601C3.52937 21.8569 4.16297 22.6823 4.89107 23.4144C4.89827 23.423 4.90097 23.4333 4.90907 23.4414C4.91717 23.4495 4.92752 23.4522 4.93607 23.4594C5.67137 24.1911 6.50117 24.827 7.40297 25.3526C7.41152 25.3584 7.41647 25.3669 7.42547 25.3723C7.43897 25.38 7.45382 25.3836 7.46777 25.3899C8.36372 25.9047 9.33077 26.3097 10.3509 26.5837C10.3527 26.5842 10.3541 26.5856 10.3559 26.586C10.3581 26.5865 10.3604 26.5865 10.3626 26.5869C11.3643 26.8551 12.4155 27 13.5005 27C14.5854 27 15.6366 26.8551 16.6383 26.5869C16.6406 26.5865 16.6428 26.5869 16.6451 26.586C16.6469 26.5856 16.6482 26.5842 16.65 26.5837C17.6702 26.3097 18.6368 25.9047 19.5332 25.3899C19.5471 25.3836 19.562 25.3804 19.5755 25.3723C19.5845 25.3669 19.5894 25.3584 19.598 25.3526C20.4998 24.827 21.3291 24.1911 22.0649 23.4594C22.0734 23.4522 22.0838 23.4495 22.0919 23.4414C22.1 23.4333 22.1027 23.4225 22.1099 23.4144C22.838 22.6823 23.4716 21.8569 23.9958 20.9601C24.0044 20.9479 24.0152 20.9385 24.0228 20.925C24.0282 20.9156 24.0278 20.9056 24.0327 20.8962C24.5511 19.9967 24.9584 19.026 25.2338 18.0009C25.2342 17.9986 25.236 17.9968 25.2365 17.9946C25.2369 17.9932 25.2365 17.9914 25.2369 17.9901C25.5051 16.9875 25.6505 15.9358 25.6505 14.85C25.6505 13.7641 25.5051 12.7125 25.2369 11.7099ZM24.0012 3.71295L24.6375 4.3497L24.0012 4.986L23.3645 4.3497L24.0012 3.71295ZM2.36342 4.3497L2.99972 3.71295L3.63647 4.3497L2.99972 4.986L2.36342 4.3497ZM23.3811 17.9635L24.2429 18.1944C24.0381 18.8505 23.7726 19.48 23.4567 20.079L22.6886 19.6353C22.4735 19.5106 22.1981 19.584 22.0739 19.8C21.9497 20.0155 22.0235 20.2905 22.2386 20.4147L23.0049 20.857C22.6391 21.4339 22.2237 21.9757 21.762 22.4752L21.137 21.8502C20.961 21.6742 20.6766 21.6742 20.5007 21.8502C20.3247 22.0261 20.3247 22.3106 20.5007 22.4865L21.1257 23.1115C20.6262 23.5732 20.0844 23.9886 19.5075 24.3544L19.0652 23.5881C18.9405 23.3721 18.6647 23.2983 18.4505 23.4234C18.2349 23.5476 18.1611 23.823 18.2858 24.0381L18.7295 24.8062C18.1305 25.1221 17.5014 25.3876 16.8449 25.5924L16.614 24.7311C16.5497 24.4908 16.3031 24.3477 16.0628 24.4129C15.8229 24.4773 15.6803 24.7239 15.7446 24.9642L15.9746 25.8228C15.3194 25.9704 14.643 26.0613 13.9505 26.0887V25.2C13.9505 24.9511 13.7493 24.75 13.5005 24.75C13.2516 24.75 13.0505 24.9511 13.0505 25.2V26.0887C12.3579 26.0613 11.6816 25.9704 11.0264 25.8228L11.2563 24.9642C11.3207 24.7243 11.178 24.4773 10.9382 24.4129C10.6983 24.3481 10.4513 24.4908 10.3869 24.7311L10.1561 25.5924C9.49997 25.3876 8.87042 25.1221 8.27147 24.8062L8.71517 24.0381C8.83937 23.8225 8.76557 23.5476 8.55047 23.4234C8.33537 23.2987 8.05997 23.3721 7.93577 23.5881L7.49342 24.3544C6.91652 23.9886 6.37472 23.5732 5.87522 23.1115L6.50027 22.4865C6.67622 22.3106 6.67622 22.0261 6.50027 21.8502C6.32432 21.6742 6.03992 21.6742 5.86397 21.8502L5.23892 22.4752C4.77722 21.9757 4.36187 21.4339 3.99602 20.857L4.76237 20.4147C4.97792 20.2905 5.05172 20.0151 4.92707 19.8C4.80242 19.584 4.52657 19.5102 4.31237 19.6353L3.54422 20.079C3.22832 19.48 2.96282 18.8509 2.75807 18.1944L3.61982 17.9635C3.85967 17.8992 4.00232 17.6526 3.93797 17.4123C3.87407 17.172 3.62747 17.0289 3.38672 17.0941L2.52767 17.3241C2.38052 16.6689 2.28917 15.9925 2.26172 15.3H3.15047C3.39932 15.3 3.60047 15.0988 3.60047 14.85C3.60047 14.6011 3.39932 14.4 3.15047 14.4H2.26172C2.28917 13.7074 2.38007 13.0311 2.52767 12.3759L3.38672 12.6063C3.42587 12.6166 3.46502 12.6216 3.50372 12.6216C3.70217 12.6216 3.88397 12.4893 3.93797 12.2881C4.00277 12.0483 3.85967 11.8013 3.61982 11.7369L2.75807 11.5056C2.96282 10.8495 3.22832 10.2199 3.54422 9.621L4.31237 10.0647C4.38257 10.1056 4.45997 10.125 4.53647 10.125C4.69217 10.125 4.84337 10.0444 4.92662 9.9C5.05082 9.68445 4.97702 9.4095 4.76192 9.2853L3.99557 8.84295C4.36142 8.26605 4.77677 7.72425 5.23847 7.22475L5.86352 7.8498C5.95127 7.93755 6.06647 7.98165 6.18167 7.98165C6.29687 7.98165 6.41207 7.93755 6.49982 7.8498C6.67577 7.67385 6.67577 7.38945 6.49982 7.2135L5.87477 6.58845C6.37427 6.1272 6.91607 5.7114 7.49297 5.34555L7.93532 6.11235C8.01902 6.25635 8.16977 6.33735 8.32547 6.33735C8.40197 6.33735 8.47937 6.318 8.55002 6.27705C8.76557 6.15285 8.83937 5.87745 8.71472 5.66235L8.27102 4.89375C8.86997 4.57785 9.49907 4.31235 10.1556 4.1076L10.3865 4.96935C10.44 5.17005 10.6218 5.3028 10.8207 5.3028C10.8594 5.3028 10.8986 5.29785 10.9377 5.2875C11.1776 5.22315 11.3202 4.97655 11.2559 4.73625L11.0259 3.8772C11.5533 3.7584 12.0938 3.67695 12.6459 3.63555C12.7854 3.6252 12.9114 3.61755 13.0334 3.6117C13.0392 3.6117 13.0446 3.6117 13.0505 3.61125V4.5C13.0505 4.74885 13.2516 4.95 13.5005 4.95C13.7493 4.95 13.9505 4.74885 13.9505 4.5V3.61125C13.9563 3.61125 13.9617 3.61125 13.9676 3.6117C14.0895 3.61755 14.2151 3.6252 14.355 3.63555C14.9072 3.6774 15.4481 3.7584 15.975 3.8772L15.7451 4.73625C15.6807 4.9761 15.8234 5.22315 16.0632 5.2875C16.1024 5.29785 16.1415 5.3028 16.1802 5.3028C16.3787 5.3028 16.5609 5.17005 16.6145 4.96935L16.8453 4.1076C17.5014 4.31235 18.131 4.57785 18.7299 4.89375L18.2862 5.66235C18.162 5.8779 18.2358 6.15285 18.4509 6.27705C18.5216 6.318 18.599 6.33735 18.6755 6.33735C18.8312 6.33735 18.9824 6.25635 19.0656 6.11235L19.508 5.34555C20.0849 5.7114 20.6267 6.1272 21.1262 6.58845L20.5011 7.2135C20.3252 7.38945 20.3252 7.67385 20.5011 7.8498C20.5889 7.93755 20.7041 7.98165 20.8193 7.98165C20.9345 7.98165 21.0497 7.93755 21.1374 7.8498L21.7625 7.22475C22.2242 7.72425 22.6395 8.26605 23.0054 8.84295L22.239 9.2853C22.0235 9.4095 21.9497 9.68445 22.0743 9.9C22.158 10.0444 22.3088 10.125 22.4645 10.125C22.541 10.125 22.6184 10.1056 22.689 10.0647L23.4572 9.621C23.7731 10.2199 24.0386 10.8491 24.2433 11.5056L23.3816 11.7369C23.1417 11.8013 22.9986 12.0478 23.0634 12.2881C23.1174 12.4893 23.2988 12.6216 23.4977 12.6216C23.5364 12.6216 23.5755 12.6166 23.6147 12.6063L24.4737 12.3759C24.6213 13.0311 24.7122 13.7074 24.7397 14.4H23.8505C23.6016 14.4 23.4005 14.6011 23.4005 14.85C23.4005 15.0988 23.6016 15.3 23.8505 15.3H24.7392C24.7118 15.9925 24.6209 16.6689 24.4733 17.3246L23.6142 17.0946C23.3753 17.0298 23.1273 17.1729 23.063 17.4128C22.9986 17.6526 23.1413 17.8992 23.3811 17.9635ZM13.0505 2.7099V1.35H11.4755C11.3517 1.35 11.2505 1.24875 11.2505 1.125C11.2505 1.00125 11.3517 0.9 11.4755 0.9H15.5255C15.6492 0.9 15.7505 1.00125 15.7505 1.125C15.7505 1.24875 15.6492 1.35 15.5255 1.35H13.9505V2.7099C13.793 2.70315 13.6449 2.7 13.5005 2.7C13.356 2.7 13.208 2.70315 13.0505 2.7099Z" fill="#34495E"/>
</svg>
