<svg width="20" height="20" viewBox="0 0 20 20" fill="none" xmlns="http://www.w3.org/2000/svg">
<g clip-path="url(#clip0)">
<path d="M19.0462 11.7151H18.7469V9.01919C18.7469 8.59239 18.5345 8.2145 18.21 7.98489V7.61782C18.21 7.08536 17.7769 6.6522 17.2444 6.6522H17.0209L17.876 5.39751C18.1626 4.97696 18.0536 4.40161 17.6331 4.11497L11.8311 0.161064C11.6273 0.0221971 11.3818 -0.0290529 11.1395 0.0169236C10.8972 0.0628221 10.6873 0.200283 10.5485 0.404033L5.54067 7.75259H4.14711L4.48332 4.34907C4.48711 4.31071 4.51203 4.27747 4.5468 4.26438C4.97996 4.10106 5.35535 3.79606 5.60379 3.4056C5.62336 3.37485 5.66028 3.35728 5.69848 3.36114L7.88422 3.57708C8.04094 3.59228 8.18035 3.47813 8.19582 3.32149C8.21129 3.16485 8.09688 3.02536 7.94024 3.00989L5.75449 2.79396C5.50078 2.76911 5.25883 2.88603 5.12289 3.09962C4.94024 3.38673 4.66422 3.61095 4.34574 3.73103C4.10602 3.82142 3.94141 4.03673 3.91609 4.29302L3.57438 7.75255H3.21098L3.7427 2.36958C3.76184 2.17583 3.93477 2.03349 4.12875 2.0529L8.54571 2.48923C8.70235 2.50435 8.84184 2.39028 8.85731 2.23364C8.87278 2.077 8.75836 1.93751 8.60172 1.92204L4.18477 1.48571C3.67836 1.43575 3.22551 1.80704 3.17547 2.31353L2.74688 6.6522H2.01699C1.48457 6.6522 1.05137 7.08536 1.05137 7.61782V7.86821C0.615781 8.06876 0.3125 8.50907 0.3125 9.01919V18.7338C0.3125 19.4323 0.880703 20.0005 1.57918 20.0005H17.4802C18.1787 20.0005 18.7469 19.4323 18.7469 18.7338V16.038H19.0462C19.3995 16.038 19.6868 15.7506 19.6868 15.3974V12.3558C19.6869 12.0025 19.3995 11.7151 19.0462 11.7151ZM17.2444 7.2222C17.4626 7.22216 17.6401 7.39966 17.6401 7.61786V7.76306C17.5877 7.75642 17.5344 7.75263 17.4802 7.75263H16.2711L16.6325 7.2222H17.2444ZM11.0195 0.724971C11.0726 0.647041 11.1529 0.594463 11.2456 0.576885C11.2677 0.572705 11.2899 0.570596 11.312 0.570596C11.3822 0.570596 11.4508 0.591611 11.5101 0.632002L17.3121 4.58591C17.4729 4.69556 17.5147 4.91563 17.405 5.07649L15.5814 7.75251H15.1437L16.0378 6.44052C16.1828 6.22774 16.1948 5.95696 16.0689 5.7338C15.9016 5.43731 15.8338 5.08821 15.878 4.75075C15.9108 4.4997 15.8003 4.25462 15.5897 4.1111L12.582 2.06142C12.3713 1.91786 12.1028 1.9047 11.8811 2.02708C11.5833 2.19153 11.2336 2.2561 10.8964 2.20892C10.6464 2.17384 10.3929 2.28673 10.25 2.4963L6.66805 7.75255H6.23039L11.0195 0.724971ZM11.145 5.56446C9.90395 5.56446 8.8852 6.53216 8.80219 7.75255H7.3577L10.7209 2.81728C10.721 2.81728 10.721 2.81728 10.721 2.81728C10.7401 2.78919 10.7718 2.77247 10.8043 2.77247C10.8086 2.77247 10.813 2.77278 10.8173 2.77337C11.2758 2.83751 11.7514 2.74978 12.1566 2.52606C12.1884 2.50841 12.2294 2.51095 12.2609 2.53243L15.2687 4.58216C15.3002 4.60364 15.3175 4.64083 15.3128 4.67692C15.2528 5.13587 15.345 5.61063 15.5725 6.01384C15.5907 6.04622 15.5885 6.0877 15.5669 6.11954L14.4541 7.75251H13.4879C13.4048 6.53216 12.3861 5.56446 11.145 5.56446ZM12.9164 7.75259H9.37364C9.45528 6.84677 10.2183 6.13446 11.145 6.13446C12.0717 6.13442 12.8348 6.84677 12.9164 7.75259ZM1.62133 7.61782C1.62133 7.39962 1.79879 7.22212 2.01699 7.22212H2.69059L2.6382 7.75255H1.62133V7.61782ZM0.882461 9.01919C0.882461 8.63505 1.195 8.32251 1.57918 8.32251H17.4802C17.8644 8.32251 18.1769 8.63505 18.1769 9.01919V9.80997H0.882461V9.01919ZM18.1769 18.7338C18.1769 19.118 17.8644 19.4305 17.4802 19.4305H1.57918C1.195 19.4305 0.882461 19.118 0.882461 18.7338V17.9431H2.41926C2.57668 17.9431 2.70422 17.8155 2.70422 17.6581C2.70422 17.5007 2.57664 17.3731 2.41926 17.3731H0.882461V10.3799H18.1769V11.7151H15.4673H15.4673C14.6135 11.7151 13.874 12.2127 13.523 12.9331C13.5218 12.9355 13.5205 12.9379 13.5193 12.9403C13.5163 12.9464 13.5138 12.9528 13.5109 12.959C13.4691 13.0477 13.4327 13.1397 13.4032 13.2345C13.4031 13.2348 13.403 13.235 13.4029 13.2353C13.3398 13.438 13.3058 13.6533 13.3058 13.8765C13.3058 15.0684 14.2754 16.038 15.4672 16.038H15.4673H18.1769V17.3731H4.24402C4.0866 17.3731 3.95906 17.5007 3.95906 17.6581C3.95906 17.8155 4.08664 17.9431 4.24402 17.9431H18.1769V18.7338ZM19.1169 15.3973C19.1169 15.4363 19.0852 15.468 19.0462 15.468H15.4673C14.864 15.468 14.338 15.1306 14.0682 14.6345C14.0559 14.612 14.0442 14.5891 14.033 14.5659C14.0106 14.5195 13.9904 14.4719 13.9726 14.4232C13.91 14.2526 13.8759 14.0685 13.8759 13.8765C13.8759 13.6846 13.91 13.5004 13.9726 13.3299C13.9905 13.2812 14.0107 13.2336 14.033 13.1872C14.0442 13.164 14.0559 13.1411 14.0682 13.1186C14.338 12.6225 14.864 12.285 15.4673 12.285H19.0462C19.0852 12.285 19.1169 12.3168 19.1169 12.3558V15.3973Z" fill="#51C569"/>
<path d="M15.5342 12.7202C14.8966 12.7202 14.3779 13.2389 14.3779 13.8765C14.3779 14.514 14.8966 15.0327 15.5342 15.0327C16.1718 15.0327 16.6904 14.514 16.6904 13.8765C16.6904 13.2389 16.1718 12.7202 15.5342 12.7202ZM15.5342 14.4627C15.2109 14.4627 14.9479 14.1997 14.9479 13.8765C14.9479 13.5532 15.2109 13.2902 15.5342 13.2902C15.8575 13.2902 16.1205 13.5532 16.1205 13.8765C16.1205 14.1997 15.8575 14.4627 15.5342 14.4627Z" fill="#51C569"/>
</g>
<defs>
<clipPath id="clip0">
<rect width="20" height="20" fill="white" transform="translate(0 0.000488281)"/>
</clipPath>
</defs>
</svg>
