<svg width="15" height="15" viewBox="0 0 15 15" fill="none" xmlns="http://www.w3.org/2000/svg">
<path d="M10.3529 1.58841V0.706055H9.29411V1.58841H5.70589V0.706055H4.64707V1.58841H0V14.2943H15V1.58841H10.3529ZM4.64707 2.64723V3.52958H5.70589V2.64723H9.29414V3.35311H10.353V2.64723H13.9412V4.41194H1.05882V2.64723H4.64707ZM1.05882 13.2355V5.47076H13.9412V13.2355H1.05882Z" fill="white"/>
<path d="M5.20562 10.0591H3.44092V11.8238H5.20562V10.0591Z" fill="white"/>
<path d="M8.38238 10.0591H6.61768V11.8238H8.38238V10.0591Z" fill="white"/>
<path d="M11.5587 10.0591H9.79395V11.8238H11.5587V10.0591Z" fill="white"/>
<path d="M8.38238 6.88232H6.61768V8.64703H8.38238V6.88232Z" fill="white"/>
<path d="M11.5587 6.88232H9.79395V8.64703H11.5587V6.88232Z" fill="white"/>
<path d="M5.20562 6.88232H3.44092V8.64703H5.20562V6.88232Z" fill="white"/>
</svg>
