<svg width="15" height="15" viewBox="0 0 15 15" fill="none" xmlns="http://www.w3.org/2000/svg">
<g clip-path="url(#clip0)">
<path d="M13.908 6.00963L13.5928 5.66347L12.4866 2.57053C12.2981 2.04809 11.8161 1.70194 11.2784 1.69873H3.37734C2.83969 1.69873 2.35765 2.04809 2.16916 2.57053L1.0784 5.62501L0.624175 6.06091C0.228658 6.41027 0 6.92309 0 7.46155V11.968C0.00308997 12.7051 0.580915 13.3013 1.29161 13.3013H2.10736C2.81806 13.3013 3.39588 12.7051 3.39897 11.968V11.3141H11.0621V11.968C11.0652 12.7051 11.643 13.3013 12.3537 13.3013H13.1695C13.8802 13.3013 14.458 12.7051 14.4611 11.968V7.34296C14.458 6.83976 14.2602 6.35899 13.908 6.00963ZM2.75008 2.78847C2.84896 2.51604 3.09924 2.33976 3.37734 2.33976H11.2815C11.5596 2.33976 11.8099 2.51924 11.9088 2.78847L12.8728 5.48078H12.1529C11.9829 4.27886 10.9045 3.44873 9.74578 3.62822C8.82188 3.76924 8.09573 4.52245 7.95977 5.48078H1.786L2.75008 2.78847ZM11.5225 5.48078H8.58395C8.7539 4.63783 9.55111 4.09937 10.3638 4.27565C10.9447 4.40386 11.3989 4.87501 11.5225 5.48078ZM2.78098 11.968C2.77789 12.3526 2.47816 12.6603 2.10736 12.6603H1.29161C0.920812 12.6603 0.621085 12.3526 0.617995 11.968V11.1282C0.803393 11.2532 1.0475 11.3141 1.29161 11.3141H2.78098V11.968ZM13.8431 11.968C13.84 12.3526 13.5403 12.6603 13.1695 12.6603H12.3537C11.9829 12.6603 11.6832 12.3494 11.6801 11.968V11.3141H13.1695C13.4136 11.3141 13.6577 11.2532 13.8431 11.1282V11.968ZM13.1695 10.6731H1.29161C0.923902 10.6763 0.621085 10.3718 0.617995 9.98719V7.46155C0.617995 7.10899 0.769403 6.77245 1.02896 6.54488C1.03205 6.54168 1.03823 6.53527 1.04132 6.53206L1.46156 6.12181H13.1633L13.4599 6.45193C13.463 6.45834 13.4723 6.46155 13.4754 6.46796C13.7071 6.69552 13.84 7.01283 13.84 7.34296V9.98719H13.8431C13.84 10.3686 13.5372 10.6763 13.1695 10.6731Z" fill="white"/>
<path d="M4.07863 7.40381H1.76115C1.5912 7.40381 1.45215 7.54804 1.45215 7.72432V9.39099C1.45215 9.56727 1.5912 9.7115 1.76115 9.7115H4.07863C4.24858 9.7115 4.38762 9.56727 4.38762 9.39099V7.72432C4.38762 7.54804 4.24858 7.40381 4.07863 7.40381ZM3.76963 9.07047H2.07014V8.04483H3.76963V9.07047Z" fill="white"/>
<path d="M12.6997 7.40381H10.3822C10.2123 7.40381 10.0732 7.54804 10.0732 7.72432V9.39099C10.0732 9.56727 10.2123 9.7115 10.3822 9.7115H12.6997C12.8697 9.7115 13.0087 9.56727 13.0087 9.39099V7.72432C13.0087 7.54804 12.8697 7.40381 12.6997 7.40381ZM12.3907 9.07047H10.6912V8.04483H12.3907V9.07047Z" fill="white"/>
<path d="M8.72311 8.75H5.7382C5.56825 8.75 5.4292 8.89423 5.4292 9.07051C5.4292 9.24679 5.56825 9.39103 5.7382 9.39103H8.72311C8.89306 9.39103 9.03211 9.24679 9.03211 9.07051C9.03211 8.89423 8.89306 8.75 8.72311 8.75Z" fill="white"/>
<path d="M8.72311 7.75635H5.7382C5.56825 7.75635 5.4292 7.90058 5.4292 8.07686C5.4292 8.25315 5.56825 8.39738 5.7382 8.39738H8.72311C8.89306 8.39738 9.03211 8.25315 9.03211 8.07686C9.03211 7.90058 8.89306 7.75635 8.72311 7.75635Z" fill="white"/>
</g>
<defs>
<clipPath id="clip0">
<rect width="14.4611" height="15" fill="white"/>
</clipPath>
</defs>
</svg>
