<svg width="20" height="20" viewBox="0 0 20 20" fill="none" xmlns="http://www.w3.org/2000/svg">
<g clip-path="url(#clip0)">
<path d="M4.00799 12.343C4.06216 12.343 3.40603 12.4997 15.415 9.55082C15.5742 9.51175 15.6715 9.35108 15.6323 9.19193C15.5934 9.03278 15.4324 8.93528 15.2734 8.97449L3.9375 11.758C3.59875 11.8412 3.66009 12.343 4.00799 12.343Z" fill="white"/>
<path d="M6.11679 3.93174C5.86426 3.77884 5.56747 3.73337 5.28091 3.80387L2.47207 4.49357C1.87912 4.63914 1.51687 5.23713 1.66259 5.83008L2.00943 7.2429C2.15469 7.83448 2.75161 8.1984 3.34594 8.05238L6.15478 7.36268C6.74774 7.21696 7.10998 6.61927 6.96426 6.02616C6.60705 4.57123 6.61468 4.23325 6.11679 3.93174ZM3.2045 7.4759C2.93014 7.54334 2.65335 7.37595 2.5859 7.10129L2.23892 5.68848C2.17147 5.41413 2.33902 5.13734 2.61352 5.06989L3.358 4.88709C3.97949 7.41807 3.93738 7.25526 3.95248 7.29218L3.2045 7.4759ZM3.93448 4.74564C5.55404 4.348 5.45959 4.36524 5.54535 4.36524C5.77118 4.36524 5.98282 4.51813 6.04095 4.75495L6.13113 5.12208L4.14657 5.60944L3.93448 4.74564ZM6.32873 6.55457C6.25793 6.6713 6.14593 6.75355 6.01318 6.7862L4.52179 7.15241C4.51797 7.11289 4.52987 7.17072 4.28802 6.18577L6.27273 5.6984C6.37909 6.13175 6.46927 6.32264 6.32873 6.55457Z" fill="white"/>
<path d="M3.05849 9.80213C2.89934 9.84119 2.80199 10.002 2.8412 10.1612L2.98509 10.747C3.0182 10.8823 3.13951 10.9729 3.27302 10.9729C3.4659 10.9729 3.60719 10.792 3.56142 10.6054L3.41753 10.0196C3.37846 9.86042 3.21764 9.76291 3.05849 9.80213Z" fill="white"/>
<path d="M4.27522 10.7352C4.43437 10.6962 4.53172 10.5354 4.49251 10.3762L4.34862 9.79042C4.30971 9.63127 4.14888 9.53392 3.98973 9.57313C3.83058 9.61204 3.73323 9.77287 3.77229 9.93202L3.91618 10.5178C3.95509 10.6762 4.11516 10.7745 4.27522 10.7352Z" fill="white"/>
<path d="M5.20686 10.5067C5.36601 10.4677 5.46336 10.3068 5.42415 10.1477L5.28026 9.5619C5.24135 9.40275 5.08052 9.3054 4.92137 9.34462C4.76222 9.38368 4.66487 9.54436 4.70393 9.7035L4.84783 10.2893C4.88673 10.4477 5.0468 10.5461 5.20686 10.5067Z" fill="white"/>
<path d="M6.06691 10.2869C6.25994 10.2869 6.40123 10.1059 6.3553 9.91933L6.21141 9.33339C6.17235 9.17424 6.01152 9.07689 5.85253 9.1161C5.69338 9.15517 5.59602 9.31584 5.63509 9.47499L5.77898 10.0608C5.81209 10.1963 5.9334 10.2869 6.06691 10.2869Z" fill="white"/>
<path d="M7.9297 9.82938C8.12273 9.82938 8.26402 9.64841 8.21825 9.4618L8.07436 8.87601C8.03529 8.71686 7.87447 8.61936 7.71532 8.65857C7.55617 8.69764 7.45882 8.85846 7.49788 9.01761L7.64177 9.6034C7.67503 9.73874 7.79634 9.82938 7.9297 9.82938Z" fill="white"/>
<path d="M8.64647 8.42957C8.48732 8.46863 8.38997 8.62946 8.42903 8.78861L8.57292 9.3744C8.60619 9.50974 8.72734 9.60038 8.86086 9.60038C9.05388 9.60038 9.19518 9.41941 9.14925 9.23279L9.00536 8.64701C8.96629 8.48786 8.80562 8.39036 8.64647 8.42957Z" fill="white"/>
<path d="M9.57811 8.20101C9.41896 8.24007 9.32161 8.4009 9.36067 8.56004L9.50456 9.14583C9.54332 9.30422 9.70354 9.40248 9.86345 9.36327C10.0226 9.32421 10.12 9.16338 10.0809 9.00423L9.937 8.41844C9.89793 8.25929 9.73726 8.16194 9.57811 8.20101Z" fill="white"/>
<path d="M10.5092 7.97249C10.35 8.01155 10.2527 8.17238 10.2919 8.33153L10.4358 8.91731C10.4689 9.05281 10.5902 9.14345 10.7237 9.14345C10.9166 9.14345 11.0579 8.96233 11.0121 8.77571L10.8682 8.18993C10.8291 8.03078 10.6683 7.93343 10.5092 7.97249Z" fill="white"/>
<path d="M12.3955 7.50917C12.2363 7.54808 12.139 7.70891 12.1781 7.86806L12.3219 8.45384C12.3552 8.58934 12.4765 8.67998 12.6099 8.67998C12.8028 8.67998 12.9442 8.49901 12.8983 8.31239L12.7545 7.72661C12.7155 7.5673 12.5548 7.46995 12.3955 7.50917Z" fill="white"/>
<path d="M13.3271 7.28065C13.168 7.31972 13.0706 7.48039 13.1097 7.63954L13.2536 8.22533C13.2925 8.38417 13.453 8.48198 13.6125 8.44276C13.7716 8.4037 13.869 8.24303 13.8299 8.08388L13.6862 7.49809C13.6471 7.33879 13.4864 7.24144 13.3271 7.28065Z" fill="white"/>
<path d="M14.2588 7.05165C14.0996 7.09071 14.0023 7.25139 14.0413 7.41054L14.1852 7.99632C14.2241 8.15532 14.3847 8.25297 14.5441 8.21376C14.7033 8.1747 14.8006 8.01402 14.7616 7.85487L14.6177 7.26909C14.5786 7.10979 14.4179 7.01243 14.2588 7.05165Z" fill="white"/>
<path d="M15.4758 7.98524C15.6349 7.94617 15.7323 7.7855 15.6932 7.62635L15.5493 7.04056C15.5102 6.88141 15.3494 6.78391 15.1904 6.82312C15.0313 6.86219 14.9339 7.02286 14.973 7.18201L15.1167 7.7678C15.1558 7.92679 15.3161 8.02445 15.4758 7.98524Z" fill="white"/>
<path d="M14.6345 4.02077L13.7794 3.1292C13.6185 2.9612 13.3782 2.89116 13.1519 2.9467L12.0205 3.22457C11.968 3.13515 12.0157 3.19359 11.0744 2.21184C10.9133 2.04384 10.673 1.97395 10.4468 2.0295L9.24704 2.32414C9.02106 2.37953 8.84024 2.55287 8.77539 2.77642L8.43054 3.96279C8.36569 4.18618 8.42535 4.4294 8.58648 4.5974C8.58648 4.5974 9.44144 5.48913 9.44159 5.48928C9.60318 5.65774 9.84381 5.72686 10.069 5.67147L11.2005 5.39376C11.2542 5.48531 11.2099 5.42962 12.1465 6.40649C12.3081 6.5751 12.5489 6.64437 12.7741 6.58883L13.9739 6.29418C14.1999 6.23864 14.3806 6.06545 14.4456 5.84191L14.7903 4.65554C14.8553 4.432 14.7956 4.18892 14.6345 4.02077ZM11.5154 3.57262C11.1411 4.86062 11.1742 4.7889 11.1272 4.8005C9.86746 5.10979 9.9079 5.11788 9.8699 5.07836C8.94125 4.10973 8.98718 4.17458 9.00046 4.12835C9.37491 2.8402 9.34164 2.91191 9.38864 2.90047C10.648 2.59117 10.608 2.58293 10.646 2.62261C11.5746 3.59108 11.5288 3.52623 11.5154 3.57262ZM13.8756 5.6762C13.8619 5.72381 13.9231 5.69558 12.6325 6.01235C12.6121 6.01754 12.5898 6.01113 12.575 5.99572C11.6466 5.02755 11.6921 5.09209 11.7055 5.04571C12.0765 3.76915 12.0457 3.82958 12.0937 3.81783C12.1044 3.81508 13.2966 3.5215 13.3077 3.5215C13.3472 3.5215 13.2932 3.47954 14.2062 4.43169C14.244 4.47121 14.2377 4.43017 13.8756 5.6762Z" fill="white"/>
<path d="M18.5214 9.33254L17.4771 9.08642C17.4771 8.38756 17.8072 9.8901 15.7471 1.50157C15.5362 0.641432 14.7705 0.0403872 13.8858 0.0403872C13.553 0.0403872 14.2517 -0.106402 2.86194 2.69038C2.70249 2.72945 2.60514 2.89012 2.64435 3.04958C2.68357 3.20873 2.84455 3.30608 3.00324 3.26686C14.4264 0.461988 13.6546 0.633802 13.8858 0.633802C14.4963 0.633802 15.025 1.04899 15.1711 1.64287L16.8602 8.52367C17.0339 9.22619 16.611 9.94869 15.8899 10.126C14.8032 10.3927 5.01847 12.7954 3.92487 13.0639C3.22159 13.2377 2.49955 12.814 2.32224 12.0938C0.489199 4.6281 0.594179 5.12355 0.594179 4.89589C0.594179 4.28493 1.00922 3.75667 1.60324 3.6108L1.85059 3.55022C2.00959 3.511 2.10694 3.35033 2.06772 3.19087C2.02896 3.03188 1.86829 2.93452 1.70883 2.97359L1.46195 3.03416C0.425112 3.28868 -0.196837 4.33086 0.056459 5.35457L1.74607 12.2351C1.89728 12.8523 2.33368 13.3354 2.89475 13.5598L2.78275 14.035L2.78305 14.0352L2.59644 14.8268C2.35291 15.8574 2.99027 16.8907 4.02298 17.1342L16.0146 19.9623C17.0447 20.2058 18.0785 19.5683 18.322 18.5357L18.5086 17.744H18.5088L19.1355 15.0865L19.9483 11.6398C20.1915 10.6082 19.554 9.57577 18.5214 9.33254ZM19.3706 11.5037L18.5578 14.9502L13.4303 13.7411C13.2709 13.7034 13.111 13.8023 13.073 13.9619C13.0354 14.1214 13.1343 14.2811 13.2938 14.3188L18.4213 15.5281L18.0672 17.0302L6.03196 14.1917C5.87205 14.1537 5.71259 14.2527 5.67506 14.4125C5.63737 14.572 5.73594 14.7319 5.89539 14.7694L17.9309 17.6077L17.7442 18.3992C17.578 19.1057 16.8691 19.5544 16.1507 19.3846L4.1594 16.5565C3.44712 16.3888 3.00538 15.6764 3.17414 14.9633L3.36091 14.1714C4.87351 14.5283 4.75922 14.5047 4.80836 14.5047C5.15809 14.5047 5.21775 13.9996 4.87641 13.919L3.85987 13.6793C4.00651 13.6601 3.77366 13.7124 7.1782 12.8764L12.1384 14.0461C12.2981 14.0841 12.4581 13.9853 12.4956 13.8256C12.5333 13.6659 12.4344 13.506 12.2748 13.4684L8.44529 12.5654L11.3165 11.8603C17.6616 13.3564 17.2807 13.2705 17.3303 13.2705C17.6798 13.2705 17.7391 12.7658 17.3979 12.6846L12.5835 11.5492L14.6103 11.0514C16.3947 11.4723 16.2784 11.4483 16.3277 11.4483C16.6773 11.4483 16.7369 10.9431 16.3957 10.8627L15.8769 10.7405L16.0312 10.7025C16.6098 10.5604 17.0708 10.1678 17.311 9.6571L18.3853 9.91024C19.0998 10.0787 19.5381 10.7928 19.3706 11.5037Z" fill="white"/>
<path d="M4.4084 15.6199C4.37071 15.7794 4.46959 15.9391 4.62905 15.9768C16.6457 18.8108 16.0048 18.6642 16.0585 18.6642C16.1929 18.6642 16.3148 18.572 16.347 18.4355C16.3847 18.276 16.2859 18.1161 16.1264 18.0784L4.76546 15.3991C4.60585 15.3614 4.44609 15.4603 4.4084 15.6199Z" fill="white"/>
</g>
<defs>
<clipPath id="clip0">
<rect width="20" height="20" fill="white"/>
</clipPath>
</defs>
</svg>
