<svg width="15" height="15" viewBox="0 0 15 15" fill="none" xmlns="http://www.w3.org/2000/svg">
<g clip-path="url(#clip0)">
<path d="M8.43394 8.12296H7.80189L8.12189 7.01655C8.16557 6.86514 8.13777 6.70115 8.04677 6.57446C7.95588 6.44766 7.81248 6.37293 7.66015 6.37305H6.71749C6.50493 6.37408 6.31786 6.5185 6.25587 6.72953L5.67754 8.7295C5.63375 8.88091 5.66165 9.0449 5.75266 9.1717C5.84366 9.29839 5.98705 9.37312 6.13949 9.373H6.92663L6.3098 11.294C6.27329 11.408 6.32006 11.5327 6.4211 11.5912C6.52214 11.6497 6.6491 11.6253 6.72334 11.5332L8.80379 8.94328C8.92358 8.79427 8.94939 8.58679 8.87019 8.41113C8.791 8.23534 8.62091 8.12308 8.43394 8.12296ZM7.17106 10.1953L7.49006 9.20203C7.51455 9.12569 7.5022 9.04181 7.45675 8.97669C7.41142 8.91146 7.33862 8.87289 7.26118 8.87301H6.13949L6.71771 6.87304H7.66037L7.34038 7.97945C7.2967 8.13086 7.3245 8.29474 7.41539 8.42142C7.50628 8.54823 7.64956 8.62296 7.80189 8.62296H8.43394L7.17106 10.1953Z" fill="white"/>
<path d="M13.9759 5.12306H13.494C13.2278 5.12306 13.0121 5.34691 13.0121 5.62305V6.87309H12.5302V5.62305C12.5302 5.20878 12.2065 4.87301 11.8072 4.87301H7.95185V4.37302H9.1566C9.42276 4.37302 9.63852 4.14917 9.63852 3.87302V3.62309C9.63774 2.93301 9.0988 2.37385 8.43377 2.37305H6.02406C5.35903 2.37385 4.82009 2.93301 4.81931 3.62309V3.87302C4.81931 4.14917 5.03507 4.37302 5.30123 4.37302H6.50598V4.87301H6.24334C6.05285 4.87415 5.86677 4.93217 5.70726 5.04032L3.90864 6.2875C3.82757 6.34254 3.73304 6.37218 3.63619 6.3731H2.89152C2.49233 6.3731 2.1687 6.70887 2.1687 7.12303V8.87306H1.44576V7.62302C1.44576 7.34688 1.23001 7.12303 0.963841 7.12303H0.48192C0.215756 7.12303 0 7.34688 0 7.62302V11.6231C0 11.8992 0.215756 12.1231 0.48192 12.1231H0.963841C1.23001 12.1231 1.44576 11.8992 1.44576 11.6231V10.373H2.1687V11.873C2.1687 12.2873 2.49233 12.6231 2.89152 12.6231H7.95185C8.16033 12.6225 8.36307 12.5525 8.53007 12.423L11.0362 10.4731C11.1198 10.4085 11.2211 10.3735 11.3253 10.373H11.8072C12.2065 10.373 12.5302 10.0373 12.5302 9.62299V8.37307H13.0121V9.62299C13.0121 9.89914 13.2278 10.1231 13.494 10.1231H13.9759C14.2421 10.1231 14.4578 9.89914 14.4578 9.62299V5.62305C14.4578 5.34691 14.2421 5.12306 13.9759 5.12306ZM5.30123 3.62309C5.30123 3.20881 5.62487 2.87304 6.02406 2.87304H8.43377C8.83296 2.87304 9.1566 3.20881 9.1566 3.62309V3.87302H5.30123V3.62309ZM6.9879 4.37302H7.46993V4.87301H6.9879V4.37302ZM0.963841 11.6231H0.48192V7.62302H0.963841V11.6231ZM1.44576 9.87305V9.37305H2.1687V9.87305H1.44576ZM12.0482 9.62299C12.0482 9.76112 11.9404 9.87305 11.8072 9.87305H11.3253C11.1168 9.8735 10.9141 9.94366 10.747 10.0731L8.24096 12.023C8.15735 12.0876 8.05598 12.1226 7.95185 12.1231H2.89152C2.75849 12.1231 2.65062 12.0111 2.65062 11.873V7.12303C2.65062 6.98502 2.75849 6.87309 2.89152 6.87309H3.63619C3.82668 6.87195 4.01277 6.81393 4.17227 6.70578L5.97089 5.4586C6.05197 5.40356 6.1465 5.37392 6.24334 5.373H11.8072C11.9404 5.373 12.0482 5.48492 12.0482 5.62305V9.62299ZM12.5302 7.87308V7.37309H13.0121V7.87308H12.5302ZM13.9759 9.62299H13.494V5.62305H13.9759V9.62299Z" fill="white"/>
<path d="M3.54488 7.44533C3.44825 7.35286 3.29934 7.35286 3.20271 7.44533C3.18153 7.4697 3.16444 7.49751 3.15219 7.52784C3.13863 7.55748 3.13201 7.5901 3.13289 7.62283C3.13168 7.72456 3.19014 7.81692 3.28059 7.85629C3.37104 7.89565 3.4755 7.87425 3.54466 7.80204C3.61382 7.72994 3.634 7.62145 3.59551 7.52784C3.58326 7.49751 3.56617 7.4697 3.54488 7.44533Z" fill="white"/>
<path d="M3.37323 8.37305C3.2402 8.37305 3.13232 8.48497 3.13232 8.62299V10.873C3.13232 11.0111 3.2402 11.1231 3.37323 11.1231C3.50637 11.1231 3.61424 11.0111 3.61424 10.873V8.62299C3.61424 8.48497 3.50637 8.37305 3.37323 8.37305Z" fill="white"/>
</g>
<defs>
<clipPath id="clip0">
<rect width="14.4578" height="15" fill="white"/>
</clipPath>
</defs>
</svg>
