<svg width="20" height="20" viewBox="0 0 20 20" fill="none" xmlns="http://www.w3.org/2000/svg">
<g clip-path="url(#clip0)">
<path d="M16.6667 14.4121L15.8177 13.9035C15.559 13.7487 15.2629 13.667 14.9613 13.6668H13.6836C13.4221 13.6663 13.1617 13.7 12.9087 13.7668L9.05912 14.8001C8.63822 14.9163 8.30017 15.2298 8.15271 15.6408L4.76664 13.8089C4.49206 13.6527 4.17061 13.5996 3.86039 13.6592C3.74336 13.6799 3.62992 13.7171 3.52331 13.7699C3.28259 13.8851 3.08288 14.0713 2.95072 14.3032C2.83516 14.5052 2.77445 14.7339 2.77445 14.9665C2.77087 15.4414 3.0225 15.8815 3.43331 16.1195L9.50199 19.7505C9.76566 19.9137 10.0694 20.0002 10.3794 20.0002H15.076C15.2858 20.0003 15.4937 19.9606 15.6887 19.8835L16.6667 19.4972V20.0002H20V13.3335H16.6667V14.4121ZM15.4437 19.2635C15.327 19.3096 15.2025 19.3333 15.077 19.3335H10.3794C10.1916 19.3333 10.0075 19.2804 9.84835 19.1808L3.77136 15.5456C3.56482 15.4263 3.43835 15.2052 3.43998 14.9668C3.44047 14.8499 3.47123 14.735 3.52933 14.6335C3.59574 14.5184 3.69568 14.4261 3.81563 14.3691C3.86853 14.3434 3.92452 14.3252 3.9823 14.3151C4.02445 14.3073 4.06726 14.3032 4.11006 14.3032C4.22465 14.3029 4.33728 14.3328 4.43672 14.3898L8.10844 16.3739C8.11267 16.3942 8.11267 16.4142 8.11804 16.4346C8.27592 17.0164 8.80375 17.4206 9.40678 17.4212C9.59232 17.4043 9.77608 17.3714 9.95609 17.3232L13.4193 16.3965L13.2474 15.7524L9.79545 16.6751C9.64343 16.7101 9.4473 16.7502 9.40678 16.7536C9.10567 16.7541 8.84167 16.5529 8.76241 16.2625C8.75167 16.2222 8.74532 16.1808 8.74304 16.1392C8.74304 16.1392 8.74044 16.0584 8.74304 16.0301C8.76843 15.7513 8.96374 15.5173 9.23344 15.4422L13.0814 14.4128C13.2779 14.3602 13.4803 14.3335 13.6836 14.3335H14.9613C15.1423 14.3335 15.3199 14.3826 15.475 14.4756L16.6667 15.1891V18.7801L15.4437 19.2635ZM17.3334 14.0002H19.3334V19.3335H17.3334V14.0002Z" fill="white"/>
<path d="M13.748 2.66619L11.96 0.878268C11.3986 0.313652 10.6348 -0.0027547 9.83871 -0.000476059H5.64795C5.38932 -0.000150538 5.13428 0.0602336 4.90267 0.175468L4.1556 0.549166C4.00586 0.624524 3.83952 0.660494 3.67204 0.653821L3.33333 0.641939V-0.000476059H0V7.33286H3.33333V6.33286H3.90007L4.10173 6.46616C4.66602 6.84083 5.32308 7.05242 6 7.07716V11.3329H20V2.66619H13.748ZM2.66667 6.66619H0.666667V0.666191H2.66667V6.66619ZM4.4707 5.91147L4.09994 5.66619H3.33333V1.30893L3.64762 1.32016C3.92676 1.33009 4.20378 1.27003 4.45361 1.14552L5.20003 0.771822C5.33903 0.702324 5.49251 0.666191 5.64795 0.666191H9.83871C10.4578 0.6644 11.0521 0.910494 11.4886 1.34946L12.8053 2.66619H10.0547L9.24561 1.85727L8.77441 2.32846L11.1291 4.68328C11.3906 4.9437 11.3914 5.36687 11.131 5.62859C10.8704 5.89015 10.4473 5.89096 10.1857 5.63055L8.21908 3.66391L7.98568 3.86394C7.34131 4.41115 6.39941 4.42514 5.73893 3.89715L5.54574 3.74057L5.12565 4.25848L5.32096 4.41684C5.52523 4.58009 5.75456 4.70932 6 4.79949V6.41017C5.45443 6.38592 4.92562 6.21355 4.4707 5.91147ZM9.2124 5.59946L9.71533 6.10255C10.2375 6.61687 11.0757 6.61769 11.5986 6.10418C11.1094 6.86183 11.3024 7.87013 12.0369 8.3934C12.7715 8.91668 13.7876 8.76971 14.3438 8.05991C14.8999 7.34995 14.7995 6.32814 14.1156 5.74025C13.4318 5.15236 12.4064 5.20623 11.7881 5.86248C12.0158 5.5049 12.0565 5.05926 11.8973 4.66619H16.361C16.5044 5.5049 17.1613 6.1618 18 6.30519V7.69386C17.1613 7.83725 16.5044 8.49415 16.361 9.33286H9.639C9.49561 8.49415 8.83871 7.83725 8 7.69386V6.30519C8.4764 6.22495 8.90723 5.97413 9.2124 5.59946ZM12 6.99952C12 6.44728 12.4478 5.99952 13 5.99952C13.5522 5.99952 14 6.44728 14 6.99952C14 7.55177 13.5522 7.99953 13 7.99953C12.4478 7.99953 12 7.55177 12 6.99952ZM19.3333 10.6662H6.66667V4.93914C7.19515 4.97885 7.72201 4.84409 8.16667 4.55584L8.73535 5.12452C8.48519 5.46437 8.08871 5.66538 7.66667 5.66619H7.33333V8.33286H7.66667C8.403 8.33286 9 8.92986 9 9.66619V9.99953H17V9.66619C17 8.92986 17.597 8.33286 18.3333 8.33286H18.6667V5.66619H18.3333C17.597 5.66619 17 5.06919 17 4.33286V3.99952H11.388L10.7214 3.33286H19.3333V10.6662Z" fill="white"/>
</g>
<defs>
<clipPath id="clip0">
<rect width="20" height="20" fill="white"/>
</clipPath>
</defs>
</svg>
