<svg width="20" height="20" viewBox="0 0 20 20" fill="none" xmlns="http://www.w3.org/2000/svg">
<g clip-path="url(#clip0)">
<path d="M19.0467 11.7146H18.7474V9.0187C18.7474 8.5919 18.5349 8.21401 18.2105 7.9844V7.61733C18.2105 7.08487 17.7774 6.65171 17.2449 6.65171H17.0214L17.8765 5.39702C18.1631 4.97647 18.0541 4.40112 17.6335 4.11448L11.8315 0.160576C11.6278 0.0217088 11.3823 -0.0295412 11.1399 0.0164354C10.8977 0.0623338 10.6878 0.199795 10.549 0.403545L5.54115 7.7521H4.1476L4.48381 4.34858C4.4876 4.31022 4.51252 4.27698 4.54729 4.2639C4.98045 4.10058 5.35584 3.79558 5.60428 3.40511C5.62385 3.37437 5.66076 3.35679 5.69897 3.36065L7.88471 3.57659C8.04143 3.59179 8.18084 3.47765 8.19631 3.32101C8.21178 3.16437 8.09737 3.02487 7.94072 3.0094L5.75498 2.79347C5.50127 2.76862 5.25932 2.88554 5.12338 3.09913C4.94072 3.38624 4.66471 3.61046 4.34623 3.73054C4.1065 3.82093 3.9419 4.03624 3.91658 4.29253L3.57486 7.75206H3.21147L3.74318 2.36909C3.76233 2.17534 3.93525 2.033 4.12924 2.05241L8.54619 2.48874C8.70284 2.50386 8.84233 2.38979 8.8578 2.23315C8.87326 2.07651 8.75885 1.93702 8.60221 1.92155L4.18525 1.48522C3.67885 1.43526 3.226 1.80655 3.17596 2.31304L2.74736 6.65171H2.01748C1.48506 6.65171 1.05186 7.08487 1.05186 7.61733V7.86772C0.61627 8.06827 0.312988 8.50858 0.312988 9.0187V18.7334C0.312988 19.4318 0.881192 20 1.57967 20H17.4807C18.1792 20 18.7474 19.4318 18.7474 18.7334V16.0375H19.0467C19.3999 16.0375 19.6873 15.7501 19.6873 15.3969V12.3553C19.6874 12.002 19.3999 11.7146 19.0467 11.7146ZM17.2449 7.22171C17.4631 7.22167 17.6406 7.39917 17.6406 7.61737V7.76257C17.5882 7.75593 17.5349 7.75214 17.4807 7.75214H16.2715L16.633 7.22171H17.2449ZM11.02 0.724482C11.0731 0.646553 11.1534 0.593974 11.246 0.576396C11.2682 0.572217 11.2904 0.570107 11.3125 0.570107C11.3827 0.570107 11.4513 0.591123 11.5106 0.631514L17.3126 4.58542C17.4734 4.69507 17.5151 4.91515 17.4055 5.07601L15.5819 7.75202H15.1442L16.0383 6.44003C16.1833 6.22726 16.1953 5.95647 16.0694 5.73331C15.9021 5.43683 15.8343 5.08772 15.8785 4.75026C15.9113 4.49921 15.8008 4.25413 15.5902 4.11062L12.5824 2.06093C12.3718 1.91737 12.1033 1.90421 11.8816 2.02659C11.5838 2.19104 11.234 2.25561 10.8969 2.20843C10.6469 2.17335 10.3934 2.28624 10.2505 2.49581L6.66854 7.75206H6.23088L11.02 0.724482ZM11.1455 5.56397C9.90444 5.56397 8.88569 6.53167 8.80268 7.75206H7.35819L10.7214 2.81679C10.7215 2.81679 10.7215 2.81679 10.7215 2.81679C10.7406 2.7887 10.7722 2.77198 10.8048 2.77198C10.8091 2.77198 10.8135 2.77229 10.8178 2.77288C11.2763 2.83702 11.7519 2.74929 12.1571 2.52558C12.1889 2.50792 12.2299 2.51046 12.2614 2.53194L15.2692 4.58167C15.3007 4.60315 15.318 4.64034 15.3133 4.67644C15.2533 5.13538 15.3455 5.61015 15.573 6.01335C15.5912 6.04573 15.589 6.08722 15.5674 6.11905L14.4546 7.75202H13.4884C13.4053 6.53167 12.3866 5.56397 11.1455 5.56397ZM12.9169 7.7521H9.37412C9.45576 6.84628 10.2188 6.13397 11.1455 6.13397C12.0722 6.13393 12.8353 6.84628 12.9169 7.7521ZM1.62182 7.61733C1.62182 7.39913 1.79928 7.22163 2.01748 7.22163H2.69107L2.63869 7.75206H1.62182V7.61733ZM0.882949 9.0187C0.882949 8.63456 1.19549 8.32202 1.57967 8.32202H17.4807C17.8649 8.32202 18.1774 8.63456 18.1774 9.0187V9.80948H0.882949V9.0187ZM18.1774 18.7334C18.1774 19.1175 17.8649 19.43 17.4807 19.43H1.57967C1.19549 19.43 0.882949 19.1175 0.882949 18.7334V17.9426H2.41975C2.57717 17.9426 2.70471 17.815 2.70471 17.6576C2.70471 17.5002 2.57713 17.3726 2.41975 17.3726H0.882949V10.3794H18.1774V11.7146H15.4678H15.4678C14.614 11.7146 13.8745 12.2123 13.5235 12.9326C13.5223 12.935 13.521 12.9374 13.5198 12.9398C13.5168 12.9459 13.5142 12.9523 13.5114 12.9585C13.4696 13.0473 13.4332 13.1392 13.4037 13.234C13.4036 13.2343 13.4035 13.2345 13.4034 13.2348C13.3403 13.4375 13.3063 13.6528 13.3063 13.876C13.3063 15.0679 14.2759 16.0375 15.4677 16.0375H15.4678H18.1774V17.3726H4.24451C4.08709 17.3726 3.95955 17.5002 3.95955 17.6576C3.95955 17.815 4.08713 17.9426 4.24451 17.9426H18.1774V18.7334ZM19.1174 15.3968C19.1174 15.4358 19.0857 15.4675 19.0467 15.4675H15.4678C14.8645 15.4675 14.3385 15.1301 14.0687 14.634C14.0564 14.6115 14.0447 14.5886 14.0335 14.5654C14.0111 14.5191 13.9909 14.4714 13.9731 14.4227C13.9105 14.2521 13.8764 14.068 13.8764 13.876C13.8764 13.6841 13.9105 13.5 13.9731 13.3294C13.991 13.2807 14.0112 13.2331 14.0335 13.1867C14.0447 13.1635 14.0564 13.1406 14.0687 13.1181C14.3385 12.622 14.8645 12.2846 15.4678 12.2846H19.0467C19.0856 12.2846 19.1174 12.3163 19.1174 12.3553V15.3968Z" fill="white"/>
<path d="M15.5342 12.7197C14.8966 12.7197 14.3779 13.2384 14.3779 13.876C14.3779 14.5135 14.8966 15.0322 15.5342 15.0322C16.1718 15.0322 16.6904 14.5135 16.6904 13.876C16.6904 13.2384 16.1718 12.7197 15.5342 12.7197ZM15.5342 14.4622C15.2109 14.4622 14.9479 14.1992 14.9479 13.876C14.9479 13.5527 15.2109 13.2897 15.5342 13.2897C15.8575 13.2897 16.1205 13.5527 16.1205 13.876C16.1205 14.1993 15.8575 14.4622 15.5342 14.4622Z" fill="white"/>
</g>
<defs>
<clipPath id="clip0">
<rect width="20" height="20" fill="white"/>
</clipPath>
</defs>
</svg>
