<svg width="40" height="40" viewBox="0 0 40 40" fill="none" xmlns="http://www.w3.org/2000/svg">
<path d="M39.9986 7.63322C39.9588 4.2383 38.2214 2.36854 35.1065 2.36854C33.9009 2.36854 32.7392 2.64916 31.9797 2.8833C32.0553 1.49564 32.0565 0.639082 32.0565 0.596504L32.0566 0.00244141H7.94402V0.596426C7.94402 0.616738 7.94605 1.48682 8.02254 2.884C7.26316 2.64971 6.10035 2.36854 4.89355 2.36854C1.77871 2.36854 0.0412844 4.23822 0.0014406 7.63322C-0.0377781 10.9731 0.723941 13.946 2.26527 16.4697C3.77855 18.9474 5.71277 20.4405 7.06894 21.2565C9.24105 22.5637 11.4119 22.8381 12.8507 22.8381C13.2053 22.8381 13.5471 22.8214 13.8667 22.7884C13.8878 22.7862 13.9075 22.7837 13.9282 22.7814C14.6238 23.5306 15.3737 24.1306 16.175 24.5766C16.7657 24.9053 17.1766 25.4785 17.3174 26.1373C16.5209 26.3852 15.941 27.1293 15.941 28.0063C15.941 28.9029 16.5475 29.6602 17.3714 29.8906V32.3836H14.1572V34.9853H10.9853V39.9983H29.0151V34.9853H25.8432V32.3836H22.629V29.8906C23.4531 29.6601 24.0596 28.9029 24.0596 28.0063C24.0596 27.1292 23.4796 26.3852 22.6832 26.1373C22.8239 25.4785 23.2347 24.9053 23.8255 24.5766C24.6249 24.1318 25.38 23.5285 26.0739 22.7817C26.3197 22.809 26.6884 22.838 27.1493 22.838C27.1495 22.838 27.1494 22.838 27.1496 22.838C28.5882 22.838 30.759 22.5635 32.931 21.2564C34.2871 20.4403 36.2214 18.9474 37.7346 16.4696C39.2762 13.946 40.0378 10.973 39.9986 7.63322ZM30.8588 1.19041C30.8535 1.40768 30.845 1.6808 30.8321 2.00049H9.17089C9.15746 1.68088 9.14847 1.40736 9.14269 1.19041H30.8588ZM31.6668 6.64455C32.4716 6.37666 33.5147 6.1065 34.4492 6.1065C35.2327 6.1065 35.7968 6.29791 36.126 6.67541C36.5042 7.10932 36.6262 7.83822 36.4882 8.84213C35.9138 13.0238 34.1006 16.2881 31.3825 18.0333C30.4357 18.6413 29.416 18.8924 28.5614 18.9817C30.369 15.1824 31.2439 10.4155 31.6668 6.64455ZM8.94496 10.7823C9.52925 13.9163 10.336 16.6075 11.3428 18.7812C11.374 18.8487 11.4057 18.9152 11.4373 18.9817C10.5831 18.8922 9.56402 18.6411 8.61761 18.0335C5.89957 16.2881 4.08628 13.024 3.51183 8.84229C3.37394 7.8383 3.49582 7.10932 3.87418 6.67557C4.20332 6.29807 4.76753 6.10674 5.55097 6.10674C6.48621 6.10674 7.53027 6.37729 8.33543 6.64533C8.47925 7.93143 8.67589 9.33916 8.94496 10.7823ZM12.8507 21.6501C11.5625 21.6501 9.61996 21.4052 7.6816 20.2387C5.69917 19.0457 1.098 15.4306 1.18941 7.64721C1.22175 4.89463 2.43339 3.55658 4.89355 3.55658C6.20925 3.55658 7.50871 3.95322 8.10269 4.16244C8.1323 4.56096 8.1655 4.96064 8.20222 5.35869C7.3948 5.1215 6.44347 4.91854 5.55097 4.91854C4.40894 4.91854 3.54355 5.24689 2.97871 5.89455C2.36472 6.59869 2.14808 7.64479 2.3348 9.00377C2.65464 11.332 3.32308 13.3898 4.3216 15.1199C5.2748 16.7717 6.50425 18.0882 7.97566 19.0329C9.41285 19.9558 10.9673 20.1885 12.0761 20.2108C12.0799 20.2174 12.0837 20.2236 12.0875 20.2301C12.1482 20.3366 12.2096 20.4413 12.2717 20.5446C12.291 20.5769 12.3104 20.6089 12.3299 20.6409C12.389 20.7381 12.4486 20.8343 12.5089 20.9286C12.5315 20.9641 12.5545 20.9987 12.5773 21.0338C12.6183 21.0969 12.6596 21.1594 12.7011 21.2212C12.7413 21.281 12.7816 21.3401 12.8221 21.3986C12.8619 21.4559 12.9018 21.5128 12.9419 21.569C12.9607 21.5954 12.9793 21.6228 12.9981 21.6489C12.9503 21.6497 12.9011 21.6501 12.8507 21.6501ZM27.8272 36.1734V38.8103H12.1735V36.1734H14.1573H25.8433H27.8272ZM22.6292 33.5717H24.6553V34.9853H15.3453V33.5717H17.3715H22.6292ZM18.5595 32.3837V29.9632H21.4411V32.3837H18.5595ZM22.8717 28.0063C22.8717 28.4303 22.5267 28.7752 22.1028 28.7752H17.8979C17.4739 28.7752 17.129 28.4303 17.129 28.0063C17.129 27.5823 17.4739 27.2374 17.8979 27.2374H22.1028C22.5268 27.2374 22.8717 27.5823 22.8717 28.0063ZM25.8431 21.2153C25.8365 21.2238 25.83 21.2324 25.8234 21.2409C25.765 21.3165 25.706 21.3903 25.6468 21.463C25.6323 21.4807 25.618 21.4988 25.6034 21.5164C25.5383 21.5955 25.4727 21.6728 25.4068 21.7483C25.4035 21.7519 25.4006 21.7556 25.3974 21.7592C24.735 22.5149 24.0118 23.1135 23.248 23.5385C22.3065 24.0622 21.6664 24.9924 21.4903 26.0493H18.5104C18.3343 24.9924 17.6941 24.0622 16.7526 23.5385C16.0154 23.1284 15.3496 22.5802 14.7482 21.9251L14.6028 21.7593C14.0122 21.0857 13.4555 20.2696 12.9482 19.3339L12.7928 19.0471C10.2384 14.1114 9.46574 6.97775 9.23277 3.18846H30.7722C30.7623 3.3533 30.7514 3.52354 30.7394 3.70033C30.7389 3.70854 30.7382 3.71697 30.7377 3.72518C30.7246 3.91674 30.7105 4.10885 30.6956 4.30111C30.6952 4.30674 30.6947 4.31236 30.6943 4.31807C30.6468 4.92744 30.5906 5.53908 30.5264 6.14346L30.4876 6.50893C30.056 10.3783 29.1443 15.3078 27.2219 19.0209L27.0521 19.3338C26.6744 20.0304 26.2693 20.6606 25.8431 21.2153ZM32.3186 20.2387C30.38 21.4053 28.4378 21.6501 27.1498 21.6501C27.1497 21.6501 27.1496 21.6501 27.1495 21.6501C27.0989 21.6501 27.0498 21.6497 27.0019 21.6489C27.0027 21.6478 27.0035 21.6467 27.0043 21.6456C27.0814 21.5392 27.1573 21.4312 27.2321 21.3217C27.2412 21.3084 27.2502 21.2947 27.2593 21.2813C27.3225 21.1882 27.3848 21.0938 27.4464 20.9985C27.4622 20.9741 27.4781 20.9496 27.4938 20.9249C27.5619 20.818 27.6293 20.7103 27.6954 20.6008C27.7058 20.5837 27.7159 20.5661 27.7262 20.5488C27.7803 20.4584 27.8339 20.3671 27.8867 20.2749C27.899 20.2533 27.9118 20.2327 27.9242 20.211C29.033 20.1887 30.5875 19.956 32.0246 19.0331C33.496 18.0882 34.7255 16.7717 35.6787 15.1201C36.6771 13.3899 37.3456 11.3321 37.6655 9.00393C37.8521 7.64486 37.6355 6.59877 37.0216 5.89471C36.4568 5.24697 35.5914 4.91861 34.4493 4.91861C33.5569 4.91861 32.6054 5.12143 31.7981 5.35869C31.8355 4.95283 31.8676 4.56354 31.8951 4.19354C31.8959 4.18322 31.8968 4.17283 31.8975 4.1626C32.4917 3.9533 33.791 3.55674 35.1067 3.55674C37.5668 3.55674 38.7785 4.89479 38.8109 7.64721C38.902 15.4306 34.301 19.0456 32.3186 20.2387Z" fill="#34495E"/>
</svg>
