<svg width="15" height="15" viewBox="0 0 15 15" fill="none" xmlns="http://www.w3.org/2000/svg">
<path d="M10.9396 0H4.06036C1.82144 0 0 1.82144 0 4.06036V10.9397C0 13.1785 1.82144 15 4.06036 15H10.9397C13.1785 15 15 13.1785 15 10.9397V4.06036C15 1.82144 13.1785 0 10.9396 0V0ZM14.1206 10.9397C14.1206 12.6936 12.6936 14.1206 10.9396 14.1206H4.06036C2.30632 14.1206 0.879362 12.6936 0.879362 10.9397V4.06036C0.879362 2.30632 2.30632 0.879362 4.06036 0.879362H10.9397C12.6936 0.879362 14.1206 2.30632 14.1206 4.06036V10.9397Z" fill="#34495E"/>
<path d="M7.5 3.39856C5.23842 3.39856 3.39856 5.23842 3.39856 7.5C3.39856 9.76158 5.23842 11.6014 7.5 11.6014C9.76157 11.6014 11.6014 9.76158 11.6014 7.5C11.6014 5.23842 9.76157 3.39856 7.5 3.39856ZM7.5 10.7221C5.72342 10.7221 4.27792 9.27669 4.27792 7.5C4.27792 5.72342 5.72342 4.27792 7.5 4.27792C9.27669 4.27792 10.7221 5.72342 10.7221 7.5C10.7221 9.27669 9.27669 10.7221 7.5 10.7221Z" fill="#34495E"/>
<path d="M11.6995 1.94193C11.0311 1.94193 10.4875 2.48563 10.4875 3.15385C10.4875 3.82219 11.0311 4.36589 11.6995 4.36589C12.3678 4.36589 12.9115 3.82219 12.9115 3.15385C12.9115 2.48552 12.3678 1.94193 11.6995 1.94193ZM11.6995 3.48642C11.5161 3.48642 11.3669 3.33719 11.3669 3.15385C11.3669 2.9704 11.5161 2.82129 11.6995 2.82129C11.8829 2.82129 12.0322 2.9704 12.0322 3.15385C12.0322 3.33719 11.8829 3.48642 11.6995 3.48642Z" fill="#34495E"/>
</svg>
