<svg width="50" height="50" viewBox="0 0 50 50" fill="none" xmlns="http://www.w3.org/2000/svg">
<g clip-path="url(#clip0)">
<path d="M12.8017 39.1143C12.5499 36.3674 11.286 34.3574 10.0035 32.296C7.4665 28.2713 4.78025 24.0088 10.843 13.0912C11.0625 12.6752 10.9039 12.16 10.4885 11.9393C10.0767 11.7099 9.55697 11.8579 9.32764 12.2697C9.32752 12.2699 9.3274 12.2702 9.32729 12.2704C2.77022 24.0647 5.73629 28.761 8.53447 33.2055C9.7237 35.0709 10.8663 36.9364 11.0995 39.2682C11.142 39.7383 11.5574 40.0849 12.0275 40.0423C12.4976 39.9998 12.8443 39.5844 12.8017 39.1143Z" fill="#51C569"/>
<path d="M33.4056 13.1237C33.1339 13.8707 32.7502 14.5721 32.2677 15.2037C31.4174 16.3493 30.1819 17.1492 28.7886 17.4562C27.3056 17.778 25.524 17.5775 23.4907 16.6587C20.548 15.3296 17.1202 12.5407 13.352 7.74187C15.4972 7.52268 19.3074 6.83246 22.1476 4.6732C24.5494 2.84505 26.7179 2.17349 28.5134 2.34138C29.2849 2.40271 30.0334 2.63356 30.7053 3.01761C31.3684 3.40189 31.9474 3.91582 32.4076 4.52862C33.1452 5.53317 33.6343 6.69826 33.8347 7.92841C34.443 8.0429 35.043 8.19867 35.6301 8.39478C35.4653 6.61607 34.8205 4.91547 33.7647 3.47464C33.163 2.67704 32.4063 2.00921 31.5401 1.51125C30.6495 1.00222 29.6573 0.696515 28.6347 0.615834C26.4428 0.433952 23.8685 1.20345 21.0936 3.31608C17.6145 5.96036 12.3773 6.11426 11.7337 6.11426C11.2608 6.08325 10.8523 6.44141 10.8212 6.91431C10.8079 7.11682 10.8668 7.31748 10.9875 7.4807C15.3527 13.3149 19.3494 16.6447 22.7818 18.2071C25.1789 19.2844 27.3195 19.5129 29.143 19.1398C30.9392 18.7452 32.5315 17.7131 33.6248 16.2343C34.1988 15.4749 34.6563 14.6339 34.9819 13.7393L34.8467 13.674C34.3824 13.4509 33.9004 13.2668 33.4056 13.1237Z" fill="#51C569"/>
<path d="M45.7829 20.5062C38.8341 8.92641 33.2843 9.14094 28.0378 9.34614C25.8085 9.43475 23.64 9.5187 21.5087 8.53467C21.0638 8.37902 20.5769 8.6136 20.4213 9.05851C20.2874 9.44163 20.4417 9.86614 20.7905 10.0737C23.2948 11.2256 25.664 11.137 28.0984 11.039C32.8553 10.8712 37.892 10.6753 44.3138 21.383C44.556 21.7886 45.0811 21.9213 45.4868 21.6791C45.8924 21.4371 46.025 20.912 45.7829 20.5062Z" fill="#51C569"/>
<path d="M18.8411 33.3221C18.5799 30.7105 17.7032 28.7425 16.4486 27.3574C15.2131 26.0002 13.5286 25.1357 11.7057 24.9229C10.7624 24.8049 9.80669 24.8285 8.87023 24.9929C8.87023 25.0442 8.87023 25.0908 8.87023 25.1421C8.91057 25.6613 8.99487 26.1762 9.12207 26.6811C9.90241 26.5402 10.6997 26.5181 11.4865 26.6158C12.9005 26.7736 14.2103 27.4359 15.1755 28.4813C16.1921 29.6052 16.9103 31.2468 17.1342 33.4667C17.456 36.6753 16.7564 41.0358 14.4946 46.7208C13.2307 44.9672 10.7264 42.0105 7.4385 40.6301C4.64032 39.4595 2.98473 37.9252 2.21989 36.2975C1.88423 35.6066 1.70433 34.8504 1.6929 34.0823C1.69675 33.314 1.85543 32.5542 2.15926 31.8484C2.66002 30.7068 3.42392 29.7 4.38848 28.9103C4.19226 28.3216 4.03638 27.7202 3.92212 27.1102C2.4631 28.1418 1.31211 29.5508 0.592282 31.1862C0.202285 32.1019 0.000816136 33.087 0 34.0823C0.00419727 35.1088 0.235047 36.1216 0.676227 37.0484C1.60895 39.0398 3.57234 40.8866 6.78093 42.2344C11.0621 44.0252 13.907 48.9267 13.9349 48.978C14.1679 49.3878 14.6888 49.5311 15.0986 49.2982C15.263 49.2047 15.3919 49.0593 15.4646 48.8847C18.3328 42.1924 19.2188 37.067 18.8411 33.3221Z" fill="#51C569"/>
<path d="M43.1223 31.7342C42.8505 31.3478 42.3171 31.2549 41.9307 31.5266C39.6782 33.1169 38.5729 35.2202 37.435 37.3795C35.2151 41.5768 32.8693 46.0492 20.3847 46.2404C19.9134 46.2481 19.5376 46.6365 19.5453 47.1078C19.553 47.5792 19.9413 47.955 20.4127 47.9473C33.9139 47.7234 36.5023 42.8173 38.9507 38.1537C39.986 36.1903 40.998 34.2689 42.9148 32.9257C43.3011 32.6541 43.3941 32.1206 43.1223 31.7342Z" fill="#51C569"/>
<path d="M49.567 24.4098C49.4081 24.319 49.2244 24.2815 49.0427 24.3026L49.0661 24.3259C41.8328 25.184 36.9499 26.9842 33.8719 29.1948C31.7407 30.7291 30.4722 32.4593 29.9032 34.2455C29.3455 35.9926 29.4382 37.8825 30.1644 39.5667C30.5352 40.443 31.0351 41.2588 31.6474 41.9871L31.7686 41.9032C32.1984 41.6082 32.6025 41.2775 32.9765 40.9145C32.4661 40.3119 32.0495 39.6359 31.7407 38.9091C31.1743 37.5952 31.103 36.1207 31.5401 34.7585C32.0065 33.3127 33.0651 31.8763 34.8793 30.5612C37.4956 28.6957 41.6182 27.1054 47.6716 26.224C46.7902 28.1967 45.4797 31.8204 45.9321 35.3741C46.3145 38.3728 45.8155 40.5834 44.7848 42.0664C44.3466 42.7029 43.7733 43.2346 43.1059 43.624C42.4402 44.0063 41.7042 44.2506 40.942 44.3422C39.7019 44.4782 38.4474 44.3183 37.2811 43.8759C36.8716 44.3424 36.4306 44.7803 35.9612 45.1864C37.5831 45.9325 39.3771 46.2243 41.1519 46.0305C42.1376 45.9099 43.0891 45.5928 43.95 45.0978C44.8367 44.5803 45.5979 43.8732 46.1793 43.0271C47.4338 41.2176 48.0447 38.606 47.6157 35.1502C47.028 30.5332 49.8775 25.5944 49.8869 25.5804C50.1218 25.1689 49.9786 24.6448 49.567 24.4098Z" fill="#51C569"/>
</g>
<defs>
<clipPath id="clip0">
<rect width="50" height="50" fill="white"/>
</clipPath>
</defs>
</svg>
