<svg width="9" height="11" viewBox="0 0 9 11" fill="none" xmlns="http://www.w3.org/2000/svg">
<path d="M4.49999 11C4.49898 11 4.49745 11 4.49593 11C4.41984 10.999 4.34832 10.9635 4.30114 10.9041C4.29607 10.898 3.81313 10.2898 3.40578 9.84542C2.41403 8.76236 0.538086 6.14526 0.538086 3.98829C0.538086 1.78919 2.3151 0 4.49999 0C6.68488 0 8.46189 1.78919 8.46189 3.98829C8.46189 6.28528 6.69857 8.74207 5.65711 9.83222C5.2178 10.2913 4.69935 10.9036 4.69428 10.9102C4.64507 10.967 4.57457 11 4.49999 11ZM4.49999 0.507278C2.59513 0.507278 1.04538 2.06921 1.04538 3.98828C1.04538 5.84393 2.68086 8.30224 3.77966 9.50197C4.04039 9.78606 4.32346 10.1259 4.50559 10.3491C4.70038 10.1244 5.0073 9.77642 5.28985 9.48118C6.27957 8.44631 7.95413 6.12446 7.95413 3.98828C7.95412 2.06922 6.40435 0.507278 4.49999 0.507278ZM4.49999 5.91547C3.43671 5.91547 2.57129 5.04496 2.57129 3.97458C2.57129 2.90421 3.43671 2.03321 4.49999 2.03321C5.56377 2.03321 6.42921 2.90422 6.42921 3.9746C6.4287 5.04496 5.56327 5.91547 4.49999 5.91547ZM4.49999 2.5405C3.71624 2.5405 3.07857 3.18374 3.07857 3.9746C3.07857 4.76546 3.71624 5.40818 4.49999 5.40818C5.28375 5.40818 5.92191 4.76494 5.92191 3.97458C5.92141 3.18374 5.28375 2.5405 4.49999 2.5405Z" fill="#34495E"/>
<path d="M4.49998 4.98516C3.90798 4.98516 3.42706 4.50426 3.42706 3.91276C3.42706 3.32076 3.90848 2.83984 4.49998 2.83984C5.09148 2.83984 5.57238 3.32126 5.57238 3.91276C5.57238 4.50425 5.09148 4.98516 4.49998 4.98516ZM4.49998 3.34712C4.18801 3.34712 3.93435 3.60077 3.93435 3.91275C3.93435 4.22422 4.18799 4.47786 4.49998 4.47786C4.81145 4.47786 5.0651 4.22422 5.0651 3.91275C5.0651 3.60077 4.81145 3.34712 4.49998 3.34712Z" fill="#34495E"/>
</svg>
