<svg width="185" height="50" viewBox="0 0 185 50" fill="none" xmlns="http://www.w3.org/2000/svg">
<path d="M75.008 32.192C74.1227 32.192 73.264 32.0747 72.432 31.84C71.6107 31.5947 70.9493 31.28 70.448 30.896L71.328 28.944C71.808 29.296 72.3787 29.5787 73.04 29.792C73.7013 30.0053 74.3627 30.112 75.024 30.112C75.76 30.112 76.304 30.0053 76.656 29.792C77.008 29.568 77.184 29.2747 77.184 28.912C77.184 28.6453 77.0773 28.4267 76.864 28.256C76.6613 28.0747 76.3947 27.9307 76.064 27.824C75.744 27.7173 75.3067 27.6 74.752 27.472C73.8987 27.2693 73.2 27.0667 72.656 26.864C72.112 26.6613 71.6427 26.336 71.248 25.888C70.864 25.44 70.672 24.8427 70.672 24.096C70.672 23.4453 70.848 22.8587 71.2 22.336C71.552 21.8027 72.08 21.3813 72.784 21.072C73.4987 20.7627 74.368 20.608 75.392 20.608C76.1067 20.608 76.8053 20.6933 77.488 20.864C78.1707 21.0347 78.768 21.28 79.28 21.6L78.48 23.568C77.4453 22.9813 76.4107 22.688 75.376 22.688C74.6507 22.688 74.112 22.8053 73.76 23.04C73.4187 23.2747 73.248 23.584 73.248 23.968C73.248 24.352 73.4453 24.64 73.84 24.832C74.2453 25.0133 74.8587 25.1947 75.68 25.376C76.5333 25.5787 77.232 25.7813 77.776 25.984C78.32 26.1867 78.784 26.5067 79.168 26.944C79.5627 27.3813 79.76 27.9733 79.76 28.72C79.76 29.36 79.5787 29.9467 79.216 30.48C78.864 31.0027 78.3307 31.4187 77.616 31.728C76.9013 32.0373 76.032 32.192 75.008 32.192ZM86.8911 32.192C85.7498 32.192 84.7151 31.9467 83.7871 31.456C82.8698 30.9547 82.1445 30.2667 81.6111 29.392C81.0885 28.5067 80.8271 27.5093 80.8271 26.4C80.8271 25.2907 81.0885 24.2987 81.6111 23.424C82.1445 22.5387 82.8698 21.8507 83.7871 21.36C84.7151 20.8587 85.7551 20.608 86.9071 20.608C87.8778 20.608 88.7525 20.7787 89.5311 21.12C90.3205 21.4613 90.9818 21.952 91.5151 22.592L89.8511 24.128C89.0938 23.2533 88.1551 22.816 87.0351 22.816C86.3418 22.816 85.7231 22.9707 85.1791 23.28C84.6351 23.5787 84.2085 24 83.8991 24.544C83.6005 25.088 83.4511 25.7067 83.4511 26.4C83.4511 27.0933 83.6005 27.712 83.8991 28.256C84.2085 28.8 84.6351 29.2267 85.1791 29.536C85.7231 29.8347 86.3418 29.984 87.0351 29.984C88.1551 29.984 89.0938 29.5413 89.8511 28.656L91.5151 30.192C90.9818 30.8427 90.3205 31.3387 89.5311 31.68C88.7418 32.0213 87.8618 32.192 86.8911 32.192ZM100.402 32L98.2415 28.88H98.1135H95.8575V32H93.2655V20.8H98.1135C99.1055 20.8 99.9642 20.9653 100.69 21.296C101.426 21.6267 101.991 22.096 102.386 22.704C102.78 23.312 102.978 24.032 102.978 24.864C102.978 25.696 102.775 26.416 102.37 27.024C101.975 27.6213 101.41 28.08 100.674 28.4L103.186 32H100.402ZM100.354 24.864C100.354 24.2347 100.151 23.7547 99.7455 23.424C99.3402 23.0827 98.7482 22.912 97.9695 22.912H95.8575V26.816H97.9695C98.7482 26.816 99.3402 26.6453 99.7455 26.304C100.151 25.9627 100.354 25.4827 100.354 24.864ZM112.407 29.6H107.207L106.215 32H103.559L108.551 20.8H111.111L116.119 32H113.399L112.407 29.6ZM111.591 27.632L109.815 23.344L108.039 27.632H111.591ZM122.129 20.8C123.121 20.8 123.98 20.9653 124.705 21.296C125.441 21.6267 126.006 22.096 126.401 22.704C126.796 23.312 126.993 24.032 126.993 24.864C126.993 25.6853 126.796 26.4053 126.401 27.024C126.006 27.632 125.441 28.1013 124.705 28.432C123.98 28.752 123.121 28.912 122.129 28.912H119.873V32H117.281V20.8H122.129ZM121.985 26.8C122.764 26.8 123.356 26.6347 123.761 26.304C124.166 25.9627 124.369 25.4827 124.369 24.864C124.369 24.2347 124.166 23.7547 123.761 23.424C123.356 23.0827 122.764 22.912 121.985 22.912H119.873V26.8H121.985ZM129.368 32.08C129.133 32.08 128.931 31.9947 128.76 31.824C128.6 31.6533 128.52 31.4453 128.52 31.2C128.52 30.9547 128.6 30.752 128.76 30.592C128.931 30.4213 129.133 30.336 129.368 30.336C129.603 30.336 129.805 30.4213 129.976 30.592C130.147 30.752 130.232 30.9547 130.232 31.2C130.232 31.4453 130.147 31.6533 129.976 31.824C129.805 31.9947 129.603 32.08 129.368 32.08ZM135.9 32.08C135.068 32.08 134.321 31.8987 133.66 31.536C133.009 31.1733 132.497 30.6667 132.124 30.016C131.751 29.3547 131.564 28.6133 131.564 27.792C131.564 26.9707 131.751 26.2347 132.124 25.584C132.497 24.9333 133.009 24.4267 133.66 24.064C134.321 23.7013 135.068 23.52 135.9 23.52C136.625 23.52 137.271 23.664 137.836 23.952C138.412 24.2293 138.865 24.64 139.196 25.184L138.348 25.76C138.071 25.344 137.719 25.0347 137.292 24.832C136.865 24.6187 136.401 24.512 135.9 24.512C135.292 24.512 134.743 24.6507 134.252 24.928C133.772 25.1947 133.393 25.5787 133.116 26.08C132.849 26.5813 132.716 27.152 132.716 27.792C132.716 28.4427 132.849 29.0187 133.116 29.52C133.393 30.0107 133.772 30.3947 134.252 30.672C134.743 30.9387 135.292 31.072 135.9 31.072C136.401 31.072 136.865 30.9707 137.292 30.768C137.719 30.5653 138.071 30.256 138.348 29.84L139.196 30.416C138.865 30.96 138.412 31.376 137.836 31.664C137.26 31.9413 136.615 32.08 135.9 32.08ZM148.615 28.144H141.575C141.639 29.0187 141.975 29.728 142.583 30.272C143.191 30.8053 143.959 31.072 144.887 31.072C145.41 31.072 145.89 30.9813 146.327 30.8C146.764 30.608 147.143 30.3307 147.463 29.968L148.103 30.704C147.73 31.152 147.26 31.4933 146.695 31.728C146.14 31.9627 145.527 32.08 144.855 32.08C143.991 32.08 143.223 31.8987 142.551 31.536C141.89 31.1627 141.372 30.6507 140.999 30C140.626 29.3493 140.439 28.6133 140.439 27.792C140.439 26.9707 140.615 26.2347 140.967 25.584C141.33 24.9333 141.82 24.4267 142.439 24.064C143.068 23.7013 143.772 23.52 144.551 23.52C145.33 23.52 146.028 23.7013 146.647 24.064C147.266 24.4267 147.751 24.9333 148.103 25.584C148.455 26.224 148.631 26.96 148.631 27.792L148.615 28.144ZM144.551 24.496C143.74 24.496 143.058 24.7573 142.503 25.28C141.959 25.792 141.65 26.464 141.575 27.296H147.543C147.468 26.464 147.154 25.792 146.599 25.28C146.055 24.7573 145.372 24.496 144.551 24.496ZM155.231 23.52C156.287 23.52 157.125 23.8293 157.743 24.448C158.373 25.056 158.687 25.9467 158.687 27.12V32H157.551V27.232C157.551 26.3573 157.333 25.6907 156.895 25.232C156.458 24.7733 155.834 24.544 155.023 24.544C154.117 24.544 153.397 24.816 152.863 25.36C152.341 25.8933 152.079 26.6347 152.079 27.584V32H150.943V23.584H152.031V25.136C152.341 24.624 152.767 24.2293 153.311 23.952C153.866 23.664 154.506 23.52 155.231 23.52ZM166.204 31.488C165.99 31.68 165.724 31.8293 165.404 31.936C165.094 32.032 164.769 32.08 164.428 32.08C163.638 32.08 163.03 31.8667 162.604 31.44C162.177 31.0133 161.964 30.4107 161.964 29.632V24.544H160.46V23.584H161.964V21.744H163.1V23.584H165.66V24.544H163.1V29.568C163.1 30.0693 163.222 30.4533 163.468 30.72C163.724 30.976 164.086 31.104 164.556 31.104C164.79 31.104 165.014 31.0667 165.228 30.992C165.452 30.9173 165.644 30.8107 165.804 30.672L166.204 31.488ZM175.303 28.144H168.263C168.327 29.0187 168.663 29.728 169.271 30.272C169.879 30.8053 170.647 31.072 171.575 31.072C172.097 31.072 172.577 30.9813 173.015 30.8C173.452 30.608 173.831 30.3307 174.151 29.968L174.791 30.704C174.417 31.152 173.948 31.4933 173.383 31.728C172.828 31.9627 172.215 32.08 171.543 32.08C170.679 32.08 169.911 31.8987 169.239 31.536C168.577 31.1627 168.06 30.6507 167.687 30C167.313 29.3493 167.127 28.6133 167.127 27.792C167.127 26.9707 167.303 26.2347 167.655 25.584C168.017 24.9333 168.508 24.4267 169.127 24.064C169.756 23.7013 170.46 23.52 171.239 23.52C172.017 23.52 172.716 23.7013 173.335 24.064C173.953 24.4267 174.439 24.9333 174.791 25.584C175.143 26.224 175.319 26.96 175.319 27.792L175.303 28.144ZM171.239 24.496C170.428 24.496 169.745 24.7573 169.191 25.28C168.647 25.792 168.337 26.464 168.263 27.296H174.231C174.156 26.464 173.841 25.792 173.287 25.28C172.743 24.7573 172.06 24.496 171.239 24.496ZM178.719 25.232C178.986 24.6667 179.38 24.24 179.903 23.952C180.436 23.664 181.092 23.52 181.871 23.52V24.624L181.599 24.608C180.714 24.608 180.02 24.88 179.519 25.424C179.018 25.968 178.767 26.7307 178.767 27.712V32H177.631V23.584H178.719V25.232Z" fill="#34495E"/>
<path d="M28.4424 14.8054C26.5584 14.8054 24.511 14.3044 22.3874 13.3134C17.0403 10.8195 14.8078 11.865 14.2415 12.2462C13.9583 12.4313 13.5989 12.4204 13.3376 12.2135C13.0762 12.0066 12.9673 11.6581 13.0871 11.3423C15.2978 5.21106 17.9115 1.64994 21.0479 0.462902C23.3022 -0.397428 25.796 -0.0598302 28.6493 1.48659C34.5736 4.69921 37.6555 4.00224 37.6882 3.99135C37.906 3.9369 38.1456 4.00224 38.309 4.1547C38.4723 4.31806 38.5485 4.54675 38.505 4.76456C37.612 9.20778 35.5973 12.3333 32.6678 13.8144C31.3827 14.4787 29.9561 14.8054 28.4424 14.8054ZM16.4958 10.3622C18.0095 10.3622 20.1113 10.776 22.9428 12.0937C26.4059 13.7164 29.5532 13.9015 32.0579 12.6382C34.4211 11.4512 36.1091 8.95731 36.9912 5.40708C35.5319 5.45064 32.5044 5.11304 28.0068 2.66274C25.5129 1.31234 23.3893 0.996525 21.5162 1.70439C18.9678 2.67363 16.768 5.57044 14.7969 10.5582C15.2652 10.4384 15.8206 10.3622 16.4958 10.3622Z" fill="#51C569"/>
<path d="M13.7517 12.355C13.621 12.355 13.4903 12.3224 13.3814 12.2461C13.0765 12.0392 12.9894 11.6254 13.1963 11.3205C13.4032 11.0155 18.4345 3.79528 30.3375 6.74655C30.6969 6.83367 30.9147 7.19305 30.8276 7.55242C30.7405 7.9118 30.3702 8.12961 30.0217 8.04249C19.0226 5.30903 14.3615 11.9957 14.318 12.061C14.1764 12.2461 13.9695 12.355 13.7517 12.355Z" fill="#51C569"/>
<path d="M37.8736 48.2929C37.7103 48.2929 37.5578 48.2384 37.4271 48.1295C34.0294 45.1347 32.3305 41.8241 32.5156 38.5461C32.7008 35.3226 34.6283 32.3277 38.1132 29.8992C42.9158 26.545 43.1554 24.0838 43.1118 23.4086C43.0901 23.071 43.2861 22.7661 43.6019 22.6463C43.9177 22.5156 44.2771 22.6136 44.4949 22.8641C48.6768 27.841 50.441 31.8595 49.9074 35.1701C49.5262 37.5551 47.9907 39.5371 45.2137 41.236C39.3983 44.808 38.527 47.7701 38.5162 47.8028C38.4508 48.0206 38.2875 48.2058 38.0588 48.2711C38.0043 48.282 37.939 48.2929 37.8736 48.2929ZM44.2771 24.7046C43.8742 26.1747 42.5891 28.3964 38.8755 30.9882C35.75 33.1772 34.0076 35.8126 33.8551 38.6114C33.7027 41.2469 35.0204 43.9585 37.6449 46.496C38.3528 45.2109 40.1497 42.7606 44.5058 40.0816C46.9234 38.6005 48.2629 36.9126 48.5788 34.9414C49.0253 32.2515 47.6095 28.8973 44.2771 24.7046Z" fill="#51C569"/>
<path d="M39.3437 40.2778C39.1803 40.2778 39.0061 40.2125 38.8754 40.0927C38.614 39.8313 38.6031 39.4175 38.8536 39.1452C46.7164 30.9775 43.2642 23.6375 43.2315 23.5612C43.0681 23.2345 43.2097 22.8316 43.5364 22.6682C43.8631 22.5049 44.2661 22.6465 44.4294 22.9732C44.5928 23.3108 48.3172 31.2389 39.812 40.0709C39.6922 40.2016 39.5179 40.2778 39.3437 40.2778Z" fill="#51C569"/>
<path d="M12.8041 44.8626C9.54795 44.8626 7.10853 44.1765 5.42054 42.7934C3.5583 41.2688 2.61085 38.9492 2.52373 35.7039C2.33859 28.9628 0.2041 26.6432 0.182319 26.6214C0.0298558 26.4581 -0.0354858 26.2185 0.0189655 26.0007C0.0734168 25.7829 0.236771 25.5977 0.454576 25.5215C4.74534 24.0731 8.46981 24.2582 11.2142 26.0551C13.9149 27.8193 15.5376 30.9993 15.9079 35.2247C16.3761 40.6807 18.1621 42.2925 18.9027 42.7281C19.2076 42.9132 19.371 43.2617 19.3056 43.6102C19.2403 43.9587 18.9571 44.2419 18.6086 44.3072C16.4197 44.6775 14.503 44.8626 12.8041 44.8626ZM1.72874 26.5234C2.49106 27.7758 3.71076 30.5528 3.85234 35.6712C3.92857 38.5027 4.71267 40.4956 6.25909 41.7589C8.3718 43.4904 11.9874 43.9478 17.2909 43.1528C16.2019 42.0529 14.9386 39.8313 14.5575 35.3336C14.2308 31.5329 12.815 28.7014 10.4627 27.1659C8.252 25.7284 5.24629 25.5106 1.72874 26.5234Z" fill="#51C569"/>
<path d="M18.6196 44.1437C18.6087 44.1437 18.5869 44.1437 18.576 44.1437C18.2166 44.1219 9.61334 43.4032 6.21557 31.6199C6.11756 31.2605 6.31359 30.8902 6.67297 30.7922C7.03234 30.6942 7.40261 30.8902 7.50063 31.2496C10.637 42.1399 18.5869 42.8042 18.6631 42.8151C19.0334 42.8369 19.3057 43.1636 19.2839 43.523C19.2621 43.8714 18.9681 44.1437 18.6196 44.1437Z" fill="#51C569"/>
<path d="M3.4387 23.1039C3.40603 23.1039 3.36247 23.1039 3.3298 23.093C2.97042 23.0277 2.71994 22.6901 2.78528 22.3198C3.73274 16.646 6.76023 11.5711 11.3015 8.01003C11.5955 7.78133 12.0093 7.83578 12.238 8.11893C12.4667 8.41297 12.4123 8.8268 12.1291 9.05549C7.84925 12.4097 5.0069 17.1905 4.1139 22.5267C4.03766 22.8752 3.75452 23.1039 3.4387 23.1039Z" fill="#51C569"/>
<path d="M47.577 23.6919C47.2502 23.6919 46.9671 23.4523 46.9127 23.1147C46.1612 17.7567 43.4387 12.8996 39.2568 9.43652C38.9737 9.19694 38.9301 8.78311 39.1697 8.49996C39.3984 8.21682 39.8231 8.17325 40.1062 8.41284C44.5495 12.0937 47.4463 17.2448 48.2413 22.9404C48.2957 23.3107 48.0343 23.6483 47.675 23.6919C47.6314 23.6919 47.5987 23.6919 47.577 23.6919Z" fill="#51C569"/>
<path d="M25.459 49.1534C25.3392 49.1534 25.2303 49.1534 25.1105 49.1534C22.2573 49.1098 19.4694 48.5435 16.8231 47.4763C16.4855 47.3347 16.3112 46.9426 16.4528 46.605C16.5944 46.2674 16.9755 46.0932 17.324 46.2348C19.8179 47.2476 22.4424 47.7703 25.1323 47.8139C27.8331 47.8574 30.4903 47.4 33.0278 46.4526C33.3763 46.3219 33.7574 46.4961 33.8881 46.8446C34.0188 47.1931 33.8445 47.5743 33.4961 47.705C30.9151 48.6633 28.2143 49.1534 25.459 49.1534Z" fill="#51C569"/>
<path d="M11.5302 16.6676C11.3887 16.6676 11.258 16.6241 11.1382 16.537C10.8442 16.3191 10.7788 15.9053 10.9966 15.6004C11.3342 15.1321 11.7045 14.6747 12.0856 14.25C12.3361 13.9777 12.7499 13.9451 13.0331 14.1955C13.3054 14.4351 13.338 14.8599 13.0875 15.143C12.7282 15.5459 12.3906 15.9598 12.0748 16.3954C11.9332 16.5696 11.7372 16.6676 11.5302 16.6676Z" fill="#51C569"/>
<path d="M9.67887 19.8696C9.59175 19.8696 9.49374 19.8479 9.40661 19.8152C9.06902 19.6627 8.91655 19.2707 9.05813 18.9331C9.31949 18.345 9.60264 17.7678 9.92935 17.2124C10.1145 16.8966 10.5174 16.7877 10.8441 16.9619C11.1599 17.1471 11.2797 17.55 11.0946 17.8767C10.8006 18.3886 10.5283 18.9222 10.2887 19.4667C10.1907 19.7172 9.94024 19.8696 9.67887 19.8696Z" fill="#51C569"/>
<path d="M8.60069 23.2238C8.55713 23.2238 8.50267 23.2238 8.45911 23.2129C8.09973 23.1367 7.87104 22.7773 7.94727 22.418C8.06706 21.8517 8.21953 21.2854 8.39377 20.7409C8.50267 20.3924 8.88383 20.1963 9.23232 20.3052C9.58081 20.4142 9.77684 20.7953 9.66793 21.1438C9.50458 21.6556 9.3739 22.1784 9.2541 22.7011C9.18876 23.006 8.9165 23.2238 8.60069 23.2238Z" fill="#51C569"/>
<path d="M41.8164 21.372C41.5332 21.372 41.2718 21.1978 41.1847 20.9146C41.0214 20.4137 40.8253 19.9127 40.6075 19.4118C40.4551 19.0742 40.6075 18.6821 40.9451 18.5297C41.2827 18.3772 41.6748 18.5297 41.8272 18.8673C42.0668 19.4009 42.2737 19.9454 42.4589 20.4899C42.5787 20.8384 42.3827 21.2196 42.0342 21.3393C41.9579 21.3611 41.8926 21.372 41.8164 21.372Z" fill="#51C569"/>
<path d="M40.3679 18.1707C40.1392 18.1707 39.9105 18.0509 39.7907 17.8331C39.4967 17.3213 39.17 16.8203 38.8106 16.3411C38.5928 16.0471 38.6581 15.6224 38.9522 15.4046C39.2462 15.1868 39.6709 15.2521 39.8887 15.5461C40.2699 16.058 40.6184 16.6025 40.9451 17.1579C41.1302 17.4737 41.0213 17.8876 40.7055 18.0727C40.5966 18.138 40.4877 18.1707 40.3679 18.1707Z" fill="#51C569"/>
<path d="M38.1788 15.1866C37.9936 15.1866 37.8194 15.1104 37.6887 14.9688C37.3293 14.5767 36.9482 14.1956 36.5452 13.8362C36.273 13.5857 36.2512 13.161 36.5017 12.8887C36.7521 12.6165 37.1769 12.5947 37.4491 12.8452C37.8738 13.2263 38.2877 13.6402 38.6797 14.0649C38.9302 14.3371 38.9084 14.7619 38.6362 15.0123C38.5055 15.1321 38.3421 15.1866 38.1788 15.1866Z" fill="#51C569"/>
<path d="M23.6403 43.9478C23.6185 43.9478 23.5967 43.9478 23.5641 43.9478C22.9978 43.8825 22.4206 43.7954 21.8543 43.6865C21.4949 43.6102 21.2553 43.2618 21.3315 42.9024C21.4078 42.543 21.7563 42.3034 22.1156 42.3796C22.6493 42.4885 23.1829 42.5757 23.7056 42.6301C24.0759 42.6737 24.3373 43.0004 24.3046 43.3707C24.2719 43.6974 23.9779 43.9478 23.6403 43.9478Z" fill="#51C569"/>
<path d="M25.4915 44.0459C25.1212 44.0459 24.8271 43.7518 24.8271 43.3816C24.8271 43.0113 25.1212 42.7172 25.4915 42.7064C26.0795 42.7064 26.6785 42.6737 27.2666 42.6083C27.6368 42.5648 27.9635 42.837 28.0071 43.1964C28.0507 43.5667 27.7784 43.8934 27.419 43.937C26.7765 44.0132 26.134 44.0459 25.4915 44.0459Z" fill="#51C569"/>
<path d="M29.1725 43.643C28.8675 43.643 28.5844 43.436 28.519 43.1202C28.4428 42.7609 28.6715 42.4015 29.0309 42.3252C29.5536 42.2054 30.0764 42.0639 30.5773 41.9005C30.9258 41.7916 31.307 41.9768 31.4159 42.3252C31.5248 42.6737 31.3396 43.0549 30.9911 43.1638C30.4466 43.338 29.8803 43.4905 29.314 43.6212C29.2596 43.643 29.216 43.643 29.1725 43.643Z" fill="#51C569"/>
</svg>
