<svg width="43" height="42" viewBox="0 0 43 42" fill="none" xmlns="http://www.w3.org/2000/svg">
<path d="M24.1011 12.5455C22.5047 12.5455 20.7698 12.121 18.9704 11.2813C14.4394 9.16808 12.5477 10.054 12.0678 10.3769C11.8279 10.5338 11.5234 10.5246 11.3019 10.3493C11.0804 10.1739 10.9881 9.87863 11.0896 9.61102C12.9629 4.41565 15.1776 1.3981 17.8353 0.392246C19.7455 -0.336766 21.8587 -0.0506979 24.2765 1.25968C29.2965 3.98194 31.908 3.39135 31.9357 3.38212C32.1203 3.33598 32.3233 3.39135 32.4617 3.52054C32.6001 3.65896 32.6647 3.85275 32.6278 4.03731C31.8711 7.80233 30.1639 10.4508 27.6816 11.7058C26.5927 12.2687 25.3838 12.5455 24.1011 12.5455ZM13.978 8.7805C15.2607 8.7805 17.0417 9.13116 19.441 10.2478C22.3755 11.6227 25.0424 11.7796 27.1648 10.7092C29.1673 9.7033 30.5976 7.59009 31.3451 4.58176C30.1086 4.61867 27.5432 4.3326 23.732 2.2563C21.6188 1.11203 19.8193 0.844418 18.2321 1.44424C16.0728 2.26553 14.2087 4.72018 12.5384 8.9466C12.9352 8.84509 13.4059 8.7805 13.978 8.7805Z" fill="white"/>
<path d="M11.6526 10.4692C11.5418 10.4692 11.4311 10.4415 11.3388 10.377C11.0804 10.2016 11.0066 9.85096 11.1819 9.59257C11.3573 9.33419 15.6206 3.21602 25.7068 5.71681C26.0113 5.79064 26.1959 6.09516 26.1221 6.39968C26.0482 6.70421 25.7345 6.88877 25.4392 6.81494C16.1189 4.49871 12.1693 10.1647 12.1324 10.2201C12.0124 10.377 11.8371 10.4692 11.6526 10.4692Z" fill="white"/>
<path d="M32.0926 40.9216C31.9542 40.9216 31.825 40.8755 31.7142 40.7832C28.8351 38.2455 27.3955 35.4402 27.5524 32.6626C27.7093 29.9311 29.3426 27.3934 32.2956 25.3355C36.3652 22.4933 36.5682 20.4078 36.5313 19.8356C36.5128 19.5496 36.6789 19.2912 36.9465 19.1897C37.2141 19.0789 37.5187 19.162 37.7032 19.3742C41.2468 23.5914 42.7417 26.9966 42.2895 29.8019C41.9665 31.8228 40.6654 33.5023 38.3123 34.9419C33.3845 37.9687 32.6463 40.4787 32.637 40.5064C32.5817 40.6909 32.4433 40.8478 32.2495 40.9032C32.2033 40.9124 32.148 40.9216 32.0926 40.9216ZM37.5187 20.9338C37.1772 22.1796 36.0883 24.0621 32.9416 26.2583C30.2931 28.1132 28.8166 30.3463 28.6875 32.7179C28.5583 34.9511 29.6749 37.2489 31.8988 39.399C32.4986 38.3101 34.0212 36.2338 37.7124 33.9637C39.7611 32.7087 40.8961 31.2784 41.1637 29.6081C41.5421 27.3288 40.3424 24.4866 37.5187 20.9338Z" fill="white"/>
<path d="M33.3384 34.1298C33.2 34.1298 33.0523 34.0744 32.9416 33.9729C32.7201 33.7515 32.7109 33.4008 32.9231 33.1701C39.5857 26.2491 36.6605 20.0294 36.6328 19.9648C36.4943 19.688 36.6143 19.3465 36.8912 19.2081C37.168 19.0697 37.5094 19.1897 37.6478 19.4665C37.7863 19.7526 40.9422 26.4706 33.7352 33.9545C33.6337 34.0652 33.486 34.1298 33.3384 34.1298Z" fill="white"/>
<path d="M10.8497 38.0148C8.09057 38.0148 6.0235 37.4334 4.59316 36.2615C3.01517 34.9695 2.21233 33.004 2.13851 30.254C1.98163 24.5419 0.172947 22.5763 0.154491 22.5579C0.0252987 22.4195 -0.0300693 22.2165 0.0160707 22.0319C0.0622107 21.8473 0.200631 21.6905 0.385191 21.6259C4.02102 20.3985 7.177 20.5554 9.50246 22.078C11.791 23.573 13.166 26.2675 13.4797 29.848C13.8765 34.4712 15.3899 35.837 16.0174 36.2061C16.2758 36.363 16.4142 36.6583 16.3589 36.9536C16.3035 37.2489 16.0636 37.4888 15.7683 37.5442C13.9134 37.8579 12.2893 38.0148 10.8497 38.0148ZM1.46487 22.4748C2.11083 23.5361 3.14436 25.8892 3.26433 30.2264C3.32892 32.6256 3.99334 34.3144 5.30372 35.3848C7.09395 36.8521 10.1576 37.2396 14.6517 36.566C13.7289 35.634 12.6584 33.7515 12.3355 29.9403C12.0586 26.7197 10.859 24.3204 8.86572 23.0193C6.99244 21.8012 4.44551 21.6166 1.46487 22.4748Z" fill="white"/>
<path d="M15.7775 37.4058C15.7683 37.4058 15.7498 37.4058 15.7406 37.4058C15.436 37.3873 8.14593 36.7783 5.26679 26.7936C5.18374 26.489 5.34984 26.1753 5.65437 26.0922C5.95889 26.0092 6.27264 26.1753 6.35569 26.4798C9.01336 35.7078 15.7498 36.2707 15.8144 36.2799C16.1281 36.2984 16.3588 36.5752 16.3404 36.8798C16.3219 37.1751 16.0728 37.4058 15.7775 37.4058Z" fill="white"/>
<path d="M2.91367 19.5773C2.88599 19.5773 2.84908 19.5773 2.82139 19.568C2.51687 19.5127 2.30462 19.2266 2.35999 18.9128C3.16283 14.1051 5.72821 9.8048 9.57629 6.78725C9.82545 6.59346 10.1761 6.6396 10.3699 6.87953C10.5637 7.12868 10.5175 7.47935 10.2776 7.67314C6.65101 10.5154 4.2425 14.5665 3.48581 19.0882C3.42121 19.3835 3.18128 19.5773 2.91367 19.5773Z" fill="white"/>
<path d="M40.3148 20.0756C40.0379 20.0756 39.798 19.8726 39.7518 19.5865C39.1151 15.0463 36.8081 10.9306 33.2646 7.99613C33.0246 7.79311 32.9877 7.44245 33.1907 7.20252C33.3845 6.96259 33.7444 6.92568 33.9843 7.1287C37.7494 10.2478 40.204 14.6126 40.8777 19.4388C40.9238 19.7526 40.7023 20.0387 40.3978 20.0756C40.3609 20.0756 40.3332 20.0756 40.3148 20.0756Z" fill="white"/>
<path d="M21.5727 41.6506C21.4712 41.6506 21.3789 41.6506 21.2774 41.6506C18.8597 41.6137 16.4973 41.1339 14.2549 40.2295C13.9688 40.1096 13.8212 39.7774 13.9412 39.4913C14.0611 39.2052 14.3841 39.0576 14.6794 39.1775C16.7926 40.0357 19.0166 40.4787 21.2959 40.5156C23.5844 40.5525 25.836 40.1649 27.9862 39.3621C28.2815 39.2514 28.6044 39.399 28.7152 39.6943C28.8259 39.9896 28.6783 40.3126 28.383 40.4233C26.1959 41.2354 23.9074 41.6506 21.5727 41.6506Z" fill="white"/>
<path d="M9.77005 14.1234C9.65009 14.1234 9.53935 14.0865 9.43784 14.0127C9.18869 13.8281 9.13332 13.4775 9.31788 13.2191C9.60395 12.8223 9.9177 12.4347 10.2407 12.0748C10.4529 11.8441 10.8036 11.8164 11.0435 12.0287C11.2742 12.2317 11.3019 12.5916 11.0897 12.8315C10.7851 13.1729 10.4991 13.5236 10.2314 13.8927C10.1115 14.0404 9.94538 14.1234 9.77005 14.1234Z" fill="white"/>
<path d="M8.20131 16.8365C8.12749 16.8365 8.04444 16.818 7.97061 16.7904C7.68455 16.6612 7.55535 16.3289 7.67532 16.0429C7.89679 15.5446 8.13672 15.0555 8.41356 14.5849C8.57043 14.3172 8.91187 14.225 9.18871 14.3726C9.45632 14.5295 9.55783 14.8709 9.40095 15.1478C9.1518 15.5815 8.9211 16.0337 8.71808 16.4951C8.63503 16.7073 8.42279 16.8365 8.20131 16.8365Z" fill="white"/>
<path d="M7.28772 19.6787C7.2508 19.6787 7.20466 19.6787 7.16775 19.6695C6.86323 19.6049 6.66944 19.3003 6.73404 18.9958C6.83554 18.516 6.96474 18.0361 7.11238 17.5747C7.20466 17.2794 7.52764 17.1133 7.82294 17.2056C8.11824 17.2979 8.28434 17.6209 8.19206 17.9161C8.05364 18.3499 7.9429 18.7928 7.8414 19.2358C7.78603 19.4941 7.55533 19.6787 7.28772 19.6787Z" fill="white"/>
<path d="M35.4331 18.1099C35.1932 18.1099 34.9717 17.9623 34.8979 17.7224C34.7595 17.2979 34.5934 16.8734 34.4088 16.4489C34.2796 16.1628 34.4088 15.8306 34.6949 15.7014C34.9809 15.5722 35.3132 15.7014 35.4423 15.9875C35.6454 16.4397 35.8207 16.9011 35.9776 17.3625C36.0791 17.6578 35.913 17.9808 35.6177 18.0823C35.5531 18.1007 35.4977 18.1099 35.4331 18.1099Z" fill="white"/>
<path d="M34.2058 15.3969C34.0121 15.3969 33.8183 15.2954 33.7168 15.1109C33.4676 14.6771 33.1908 14.2527 32.8862 13.8466C32.7017 13.5975 32.757 13.2376 33.0062 13.053C33.2554 12.8685 33.6152 12.9238 33.7998 13.173C34.1228 13.6067 34.4181 14.0681 34.6949 14.5387C34.8518 14.8063 34.7595 15.157 34.4919 15.3139C34.3996 15.3692 34.3074 15.3969 34.2058 15.3969Z" fill="white"/>
<path d="M32.351 12.8685C32.1941 12.8685 32.0464 12.8039 31.9357 12.6839C31.6312 12.3517 31.3082 12.0287 30.9668 11.7242C30.7361 11.5119 30.7176 11.1521 30.9299 10.9214C31.1421 10.6907 31.502 10.6722 31.7327 10.8844C32.0926 11.2074 32.4432 11.5581 32.7755 11.918C32.9877 12.1487 32.9692 12.5086 32.7385 12.7208C32.6278 12.8223 32.4894 12.8685 32.351 12.8685Z" fill="white"/>
<path d="M20.0316 37.2396C20.0132 37.2396 19.9947 37.2396 19.967 37.2396C19.4872 37.1842 18.9981 37.1104 18.5182 37.0181C18.2137 36.9535 18.0107 36.6582 18.0753 36.3537C18.1399 36.0492 18.4352 35.8462 18.7397 35.9108C19.1919 36.0031 19.6441 36.0769 20.087 36.123C20.4008 36.1599 20.6222 36.4368 20.5945 36.7505C20.5669 37.0274 20.3177 37.2396 20.0316 37.2396Z" fill="white"/>
<path d="M21.6004 37.3227C21.2866 37.3227 21.0375 37.0735 21.0375 36.7598C21.0375 36.446 21.2866 36.1968 21.6004 36.1876C22.0987 36.1876 22.6062 36.1599 23.1045 36.1046C23.4183 36.0677 23.6951 36.2983 23.7321 36.6029C23.769 36.9166 23.5383 37.1935 23.2337 37.2304C22.6893 37.295 22.1448 37.3227 21.6004 37.3227Z" fill="white"/>
<path d="M24.7194 36.9812C24.461 36.9812 24.2211 36.8059 24.1657 36.5383C24.1011 36.2338 24.2949 35.9292 24.5995 35.8646C25.0424 35.7631 25.4853 35.6432 25.9098 35.5047C26.2051 35.4125 26.5281 35.5693 26.6204 35.8646C26.7127 36.1599 26.5558 36.4829 26.2605 36.5752C25.7991 36.7228 25.3192 36.852 24.8394 36.9628C24.7932 36.9812 24.7563 36.9812 24.7194 36.9812Z" fill="white"/>
</svg>
