<svg width="24" height="23" viewBox="0 0 24 23" fill="none" xmlns="http://www.w3.org/2000/svg">
<path d="M19.1503 14.2477C18.6795 13.7574 18.1115 13.4953 17.5096 13.4953C16.9125 13.4953 16.3397 13.7525 15.8494 14.2428L14.3154 15.7719C14.1892 15.704 14.063 15.6409 13.9417 15.5778C13.7669 15.4904 13.6019 15.4078 13.4611 15.3205C12.0242 14.4079 10.7184 13.2186 9.46599 11.6797C8.8592 10.9128 8.45144 10.2671 8.15532 9.6118C8.55338 9.24773 8.92231 8.86909 9.28152 8.50502C9.41745 8.3691 9.55337 8.22833 9.68929 8.0924C10.7087 7.073 10.7087 5.75263 9.68929 4.73322L8.36406 3.408C8.21358 3.25751 8.05824 3.10218 7.91261 2.94684C7.62135 2.64587 7.31553 2.33519 7 2.04394C6.52913 1.57792 5.96603 1.33035 5.37381 1.33035C4.78158 1.33035 4.20877 1.57792 3.72334 2.04394C3.71849 2.04879 3.71849 2.04879 3.71363 2.05364L2.06317 3.71867C1.44182 4.34002 1.08745 5.0973 1.00978 5.97593C0.893278 7.39339 1.31075 8.71376 1.63113 9.57782C2.41753 11.6992 3.59227 13.6652 5.34468 15.7719C7.47087 18.3107 10.0291 20.3156 12.9514 21.7282C14.0679 22.2573 15.5581 22.8835 17.2232 22.9903C17.3251 22.9951 17.4319 23 17.529 23C18.6503 23 19.5921 22.5971 20.3299 21.7961C20.3348 21.7864 20.3445 21.7816 20.3493 21.7718C20.6018 21.466 20.893 21.1893 21.1989 20.8932C21.4076 20.6942 21.6212 20.4855 21.8299 20.267C22.3105 19.767 22.5629 19.1845 22.5629 18.5874C22.5629 17.9855 22.3056 17.4078 21.8154 16.9224L19.1503 14.2477ZM20.8882 19.3593C20.8833 19.3593 20.8833 19.3641 20.8882 19.3593C20.6989 19.5631 20.5047 19.7476 20.296 19.9515C19.9804 20.2525 19.66 20.568 19.3591 20.9223C18.8688 21.4466 18.2911 21.6942 17.5339 21.6942C17.461 21.6942 17.3834 21.6942 17.3106 21.6893C15.8688 21.5971 14.529 21.034 13.5242 20.5534C10.7767 19.2233 8.36406 17.335 6.35923 14.9418C4.70391 12.9467 3.59713 11.1021 2.86413 9.12152C2.41268 7.9128 2.24763 6.97106 2.32045 6.08272C2.36899 5.51477 2.58743 5.0439 2.99034 4.64099L4.64566 2.98567C4.88352 2.76237 5.13594 2.64102 5.38351 2.64102C5.68934 2.64102 5.93691 2.82548 6.09224 2.98082C6.0971 2.98567 6.10195 2.99053 6.10681 2.99538C6.40292 3.27208 6.68447 3.55848 6.98058 3.8643C7.13107 4.01964 7.2864 4.17498 7.44174 4.33517L8.76697 5.6604C9.28152 6.17495 9.28152 6.65068 8.76697 7.16523C8.62619 7.30601 8.49027 7.44678 8.3495 7.5827C7.94174 8.00017 7.55339 8.38852 7.13107 8.76715C7.12136 8.77686 7.11165 8.78172 7.10679 8.79143C6.68932 9.2089 6.76699 9.61666 6.85437 9.89335C6.85922 9.90792 6.86408 9.92248 6.86893 9.93704C7.21359 10.772 7.69902 11.5584 8.43687 12.4953L8.44173 12.5001C9.78152 14.1506 11.1941 15.437 12.7524 16.4224C12.9514 16.5486 13.1553 16.6506 13.3494 16.7476C13.5242 16.835 13.6892 16.9175 13.83 17.0049C13.8494 17.0146 13.8688 17.0292 13.8883 17.0389C14.0533 17.1214 14.2086 17.1603 14.3688 17.1603C14.7717 17.1603 15.0242 16.9078 15.1067 16.8253L16.7669 15.1651C16.9319 15.0001 17.194 14.8011 17.4999 14.8011C17.8008 14.8011 18.0484 14.9904 18.1989 15.1554C18.2037 15.1603 18.2037 15.1603 18.2086 15.1651L20.8833 17.8399C21.3833 18.335 21.3833 18.8447 20.8882 19.3593Z" fill="#34495E"/>
<path d="M13.4028 5.47107C14.6747 5.68466 15.83 6.28659 16.7523 7.20891C17.6746 8.13123 18.2717 9.28656 18.4901 10.5584C18.5435 10.8788 18.8202 11.1021 19.1358 11.1021C19.1746 11.1021 19.2086 11.0972 19.2474 11.0924C19.6066 11.0341 19.8445 10.6943 19.7862 10.3351C19.5241 8.79627 18.796 7.39338 17.6843 6.28174C16.5727 5.1701 15.1698 4.44196 13.631 4.17982C13.2718 4.12157 12.9368 4.35943 12.8737 4.7138C12.8106 5.06816 13.0436 5.41282 13.4028 5.47107Z" fill="#34495E"/>
<path d="M23.9464 10.1458C23.5144 7.61184 22.3202 5.30604 20.4853 3.47111C18.6504 1.63618 16.3446 0.442024 13.8106 0.00999089C13.4563 -0.0531151 13.1213 0.1896 13.0582 0.543965C13 0.903184 13.2378 1.23813 13.597 1.30124C15.8591 1.68473 17.9222 2.75753 19.563 4.39343C21.2037 6.03419 22.2717 8.09727 22.6552 10.3594C22.7086 10.6798 22.9853 10.9031 23.3008 10.9031C23.3396 10.9031 23.3736 10.8982 23.4125 10.8934C23.7668 10.84 24.0095 10.5002 23.9464 10.1458Z" fill="#34495E"/>
</svg>
