<svg width="24" height="23" viewBox="0 0 24 23" fill="none" xmlns="http://www.w3.org/2000/svg">
<path d="M19.1503 14.2477C18.6794 13.7574 18.1115 13.4953 17.5095 13.4953C16.9124 13.4953 16.3396 13.7525 15.8493 14.2428L14.3154 15.7719C14.1892 15.704 14.063 15.6409 13.9416 15.5778C13.7668 15.4904 13.6018 15.4078 13.461 15.3205C12.0241 14.4079 10.7183 13.2186 9.46593 11.6797C8.85914 10.9128 8.45138 10.2671 8.15526 9.6118C8.55332 9.24773 8.92225 8.86909 9.28146 8.50502C9.41739 8.3691 9.5533 8.22833 9.68923 8.0924C10.7086 7.073 10.7086 5.75263 9.68923 4.73322L8.364 3.408C8.21352 3.25751 8.05818 3.10218 7.91255 2.94684C7.62129 2.64587 7.31547 2.33519 6.99994 2.04394C6.52907 1.57792 5.96597 1.33035 5.37374 1.33035C4.78152 1.33035 4.20871 1.57792 3.72328 2.04394C3.71843 2.04879 3.71843 2.04879 3.71357 2.05364L2.06311 3.71867C1.44175 4.34002 1.08739 5.0973 1.00972 5.97593C0.893217 7.39339 1.31069 8.71376 1.63107 9.57782C2.41747 11.6992 3.59221 13.6652 5.34462 15.7719C7.47081 18.3107 10.029 20.3156 12.9513 21.7282C14.0678 22.2573 15.5581 22.8835 17.2231 22.9903C17.3251 22.9951 17.4318 23 17.5289 23C18.6503 23 19.592 22.5971 20.3299 21.7961C20.3347 21.7864 20.3444 21.7816 20.3493 21.7718C20.6017 21.466 20.893 21.1893 21.1988 20.8932C21.4075 20.6942 21.6211 20.4855 21.8299 20.267C22.3104 19.767 22.5629 19.1845 22.5629 18.5874C22.5629 17.9855 22.3056 17.4078 21.8153 16.9224L19.1503 14.2477ZM20.8881 19.3593C20.8833 19.3593 20.8833 19.3641 20.8881 19.3593C20.6988 19.5631 20.5046 19.7476 20.2959 19.9515C19.9804 20.2525 19.66 20.568 19.359 20.9223C18.8687 21.4466 18.2911 21.6942 17.5338 21.6942C17.461 21.6942 17.3833 21.6942 17.3105 21.6893C15.8688 21.5971 14.529 21.034 13.5241 20.5534C10.7766 19.2233 8.364 17.335 6.35917 14.9418C4.70385 12.9467 3.59707 11.1021 2.86407 9.12152C2.41262 7.9128 2.24757 6.97106 2.32038 6.08272C2.36893 5.51477 2.58737 5.0439 2.99028 4.64099L4.6456 2.98567C4.88346 2.76237 5.13588 2.64102 5.38345 2.64102C5.68928 2.64102 5.93684 2.82548 6.09218 2.98082C6.09704 2.98567 6.10189 2.99053 6.10675 2.99538C6.40286 3.27208 6.68441 3.55848 6.98052 3.8643C7.131 4.01964 7.28634 4.17498 7.44168 4.33517L8.76691 5.6604C9.28146 6.17495 9.28146 6.65068 8.76691 7.16523C8.62613 7.30601 8.49021 7.44678 8.34944 7.5827C7.94167 8.00017 7.55333 8.38852 7.131 8.76715C7.1213 8.77686 7.11159 8.78172 7.10673 8.79143C6.68926 9.2089 6.76693 9.61666 6.85431 9.89335C6.85916 9.90792 6.86402 9.92248 6.86887 9.93704C7.21353 10.772 7.69896 11.5584 8.43681 12.4953L8.44167 12.5001C9.78146 14.1506 11.1941 15.437 12.7523 16.4224C12.9513 16.5486 13.1552 16.6506 13.3494 16.7476C13.5241 16.835 13.6892 16.9175 13.83 17.0049C13.8494 17.0146 13.8688 17.0292 13.8882 17.0389C14.0532 17.1214 14.2086 17.1603 14.3688 17.1603C14.7717 17.1603 15.0241 16.9078 15.1066 16.8253L16.7668 15.1651C16.9319 15.0001 17.194 14.8011 17.4998 14.8011C17.8008 14.8011 18.0483 14.9904 18.1988 15.1554C18.2037 15.1603 18.2037 15.1603 18.2085 15.1651L20.8833 17.8399C21.3833 18.335 21.3833 18.8447 20.8881 19.3593Z" fill="white"/>
<path d="M13.4028 5.47107C14.6747 5.68466 15.83 6.28659 16.7523 7.20891C17.6746 8.13123 18.2717 9.28656 18.4901 10.5584C18.5435 10.8788 18.8202 11.1021 19.1358 11.1021C19.1746 11.1021 19.2086 11.0972 19.2474 11.0924C19.6066 11.0341 19.8445 10.6943 19.7862 10.3351C19.5241 8.79627 18.796 7.39338 17.6843 6.28174C16.5727 5.1701 15.1698 4.44196 13.631 4.17982C13.2718 4.12157 12.9368 4.35943 12.8737 4.7138C12.8106 5.06816 13.0436 5.41282 13.4028 5.47107Z" fill="white"/>
<path d="M23.9463 10.1458C23.5143 7.61184 22.3201 5.30604 20.4852 3.47111C18.6503 1.63618 16.3445 0.442024 13.8105 0.00999089C13.4561 -0.0531151 13.1212 0.1896 13.0581 0.543965C12.9998 0.903184 13.2377 1.23813 13.5969 1.30124C15.859 1.68473 17.9221 2.75753 19.5629 4.39343C21.2036 6.03419 22.2716 8.09727 22.6551 10.3594C22.7085 10.6798 22.9852 10.9031 23.3007 10.9031C23.3395 10.9031 23.3735 10.8982 23.4123 10.8934C23.7667 10.84 24.0094 10.5002 23.9463 10.1458Z" fill="white"/>
</svg>
