<svg width="15" height="15" viewBox="0 0 15 15" fill="none" xmlns="http://www.w3.org/2000/svg">
<g clip-path="url(#clip0)">
<path d="M14.3336 9.83444C14.0073 9.44341 13.6387 9.09428 13.2821 8.75663C13.1569 8.63795 13.0273 8.51523 12.9025 8.39338C12.9024 8.39335 12.9024 8.39332 12.9024 8.39329C12.7345 8.22955 12.6523 8.11333 12.6437 8.02749C12.6353 7.94311 12.693 7.81793 12.8256 7.63289C13.0239 7.35457 13.2353 7.07578 13.4398 6.80619C13.6215 6.56654 13.8094 6.31871 13.9896 6.06948L14.03 6.01353C14.3814 5.52714 14.7447 5.0242 14.9395 4.4113C14.9951 4.23558 15.0528 3.97554 14.9135 3.74726C14.7742 3.51892 14.5159 3.45124 14.3338 3.42024C14.2449 3.40501 14.1605 3.40375 14.082 3.40375L11.8025 3.40173C11.4084 3.39517 11.135 3.58196 10.986 3.95708C10.8668 4.25667 10.726 4.60387 10.5628 4.93323C10.2506 5.56906 9.85399 6.3014 9.27907 6.91157L9.25352 6.93875C9.21438 6.98053 9.15042 7.04885 9.11758 7.06453C9.0553 7.02539 8.98343 6.80153 8.98671 6.68425C8.9868 6.68135 8.98683 6.67848 8.98683 6.67561L8.98481 4.04172C8.98481 4.02833 8.98387 4.01494 8.98208 4.00167C8.93096 3.62591 8.83129 3.24921 8.23656 3.13184C8.21749 3.12807 8.1981 3.12619 8.1787 3.12619H5.80755C5.36145 3.12619 5.12549 3.33048 4.93632 3.55196C4.88156 3.61653 4.73607 3.78798 4.81019 3.99757C4.88519 4.20965 5.10867 4.25199 5.18203 4.26587C5.44043 4.31492 5.57405 4.46096 5.61542 4.74016C5.69719 5.28265 5.70721 5.863 5.647 6.56563C5.63022 6.75427 5.59899 6.89765 5.5486 7.01689C5.53465 7.04991 5.5224 7.07036 5.51385 7.0824C5.5002 7.07689 5.47896 7.06634 5.44954 7.04622C5.26796 6.92197 5.13111 6.72881 4.99878 6.54207C4.4702 5.79579 4.02559 4.97155 3.63937 4.02189C3.48032 3.63274 3.18131 3.41538 2.79799 3.40976C2.06767 3.3976 1.39223 3.39789 0.733754 3.41069C0.423176 3.41608 0.205383 3.51385 0.0863197 3.70132C-0.0328897 3.88914 -0.0285245 4.12862 0.0993275 4.41321C1.01328 6.44554 1.84314 7.92398 2.79002 9.20702C3.45673 10.1103 4.12787 10.7373 4.9021 11.1803C5.71556 11.6457 6.63296 11.8737 7.69727 11.8737C7.81829 11.8737 7.94143 11.8708 8.0662 11.8648C8.72284 11.8349 8.98999 11.5737 9.01915 10.9342C9.03549 10.5962 9.07311 10.3224 9.20363 10.0845C9.24013 10.0179 9.28132 9.97325 9.31378 9.96508C9.3483 9.95646 9.4095 9.97758 9.47756 10.0218C9.60198 10.1026 9.70912 10.2122 9.79721 10.3083C9.88651 10.4061 9.97675 10.5071 10.0641 10.6047C10.2499 10.8127 10.4421 11.0277 10.6434 11.2328C11.0988 11.6969 11.6237 11.9098 12.2043 11.8652L14.2904 11.8662C14.2904 11.8662 14.2905 11.8662 14.2905 11.8662C14.2971 11.8662 14.3037 11.866 14.3104 11.8655C14.551 11.8495 14.759 11.7163 14.8812 11.5C15.0283 11.2395 15.0261 10.9095 14.8751 10.617C14.7176 10.3128 14.5133 10.0511 14.3336 9.83444ZM14.3608 11.2062C14.3321 11.2571 14.2966 11.2664 14.2783 11.2686L12.1926 11.2676C12.1926 11.2676 12.1925 11.2676 12.1924 11.2676C12.1842 11.2676 12.176 11.268 12.1678 11.2687C11.7569 11.3029 11.4076 11.1585 11.0699 10.8142C10.8783 10.619 10.6909 10.4094 10.5096 10.2066C10.4213 10.1078 10.33 10.0055 10.2382 9.9051C10.1244 9.78083 9.98378 9.638 9.80305 9.52064C9.53246 9.345 9.30822 9.35031 9.1678 9.3857C9.02884 9.42071 8.83132 9.52061 8.67971 9.79729C8.4833 10.1553 8.43997 10.5415 8.42234 10.9063C8.41214 11.1294 8.37441 11.1884 8.35865 11.2033C8.33799 11.223 8.26897 11.2575 8.03866 11.268C6.93194 11.32 6.00317 11.1218 5.19888 10.6617C4.49921 10.2614 3.88655 9.68634 3.27087 8.85223C2.35021 7.60479 1.54015 6.16022 0.644398 4.16831C0.611937 4.09615 0.601917 4.05113 0.599017 4.02701C0.621868 4.01951 0.666517 4.00964 0.744799 4.00821C1.3966 3.99558 2.06498 3.99523 2.7887 4.0073C2.88778 4.00876 3.00061 4.0385 3.08604 4.24753C3.48957 5.23979 3.95572 6.10332 4.51119 6.88754C4.65867 7.0957 4.84225 7.3548 5.11204 7.5394C5.35916 7.70862 5.5597 7.70053 5.68445 7.66397C5.80925 7.62738 5.98245 7.52572 6.09912 7.24951C6.17438 7.07147 6.21988 6.87099 6.24241 6.61769C6.30677 5.86613 6.29535 5.24129 6.20652 4.65192C6.14391 4.22966 5.92588 3.92462 5.58243 3.76885C5.64343 3.73709 5.71216 3.72385 5.80761 3.72385H8.14777C8.27943 3.75338 8.3055 3.78807 8.31444 3.79993C8.35235 3.85035 8.37403 3.96962 8.38727 4.06282L8.38926 6.67242C8.38399 6.92258 8.50557 7.47741 8.91954 7.62955C8.92293 7.63081 8.92636 7.63198 8.92979 7.63309C9.30667 7.75626 9.55595 7.49021 9.68978 7.34727L9.71363 7.3219C10.3434 6.65349 10.7675 5.87249 11.0988 5.19763C11.2715 4.84915 11.4177 4.48868 11.5414 4.17795C11.6033 4.02212 11.6596 3.99646 11.7939 3.9993C11.7958 3.99936 11.7976 3.99936 11.7995 3.99936L14.0818 4.00138C14.1349 4.00138 14.1903 4.00199 14.2333 4.00935C14.3421 4.02786 14.3869 4.05042 14.4016 4.05977C14.4031 4.07708 14.4028 4.12689 14.3699 4.23083C14.2044 4.752 13.8844 5.19479 13.5457 5.6636L13.5052 5.71965C13.3293 5.96316 13.1434 6.20818 12.9637 6.44516C12.7566 6.71824 12.5425 7.00057 12.3395 7.28551C11.9055 7.89105 11.9437 8.29289 12.4853 8.82117C12.6133 8.94613 12.7445 9.0704 12.8714 9.19058C13.2312 9.53139 13.571 9.85328 13.8744 10.2167C14.0331 10.4082 14.2131 10.6381 14.3443 10.8914C14.4128 11.024 14.396 11.1439 14.3608 11.2062Z" fill="#34495E"/>
<path d="M2.17918 4.96981C2.13529 4.88297 2.09179 4.7959 2.04869 4.70865C1.97557 4.56073 1.7965 4.49997 1.64846 4.5731C1.50051 4.64619 1.43981 4.82537 1.51291 4.97332C1.55682 5.06221 1.60115 5.15092 1.64583 5.23937C1.69842 5.34343 1.80362 5.40343 1.91272 5.40343C1.95802 5.40343 2.00404 5.39309 2.04725 5.37126C2.19459 5.29679 2.25362 5.11708 2.17918 4.96981Z" fill="#34495E"/>
<path d="M4.0533 8.0696C3.56334 7.40576 3.10496 6.68473 2.65203 5.86532C2.57219 5.72088 2.39038 5.66856 2.24597 5.74837C2.10157 5.8282 2.04918 6.01002 2.12902 6.15442C2.59472 6.99689 3.0669 7.73945 3.57251 8.4245C3.6311 8.50389 3.72154 8.54588 3.81316 8.54588C3.8748 8.54588 3.93696 8.52689 3.99034 8.48743C4.12309 8.38946 4.15127 8.2024 4.0533 8.0696Z" fill="#34495E"/>
</g>
<defs>
<clipPath id="clip0">
<rect width="15" height="15" fill="white"/>
</clipPath>
</defs>
</svg>
