<svg width="20" height="20" viewBox="0 0 20 20" fill="none" xmlns="http://www.w3.org/2000/svg">
<path d="M15.6747 10.5002V7.50216C15.689 5.2165 14.152 3.7005 12.8313 3.09683C12.453 2.92383 12.063 2.7905 11.6667 2.6915V2.50016C11.6667 1.58116 10.919 0.833496 10 0.833496C9.08101 0.833496 8.33334 1.58116 8.33334 2.50016V2.7205C7.97634 2.81683 7.62534 2.9425 7.28467 3.09983C5.82534 3.7725 4.34667 5.39383 4.33334 7.50016V10.5002C4.33334 12.6295 3.58134 14.4565 2.09834 15.9305C2.01001 16.0185 1.97801 16.1482 2.01534 16.2672C2.05267 16.3862 2.15367 16.4742 2.27667 16.4955L5.44034 17.0418C6.02967 17.1435 6.57234 17.2268 7.08867 17.2955C7.67034 18.4355 8.81267 19.1672 10.0607 19.1672C11.309 19.1672 12.4517 18.4352 13.033 17.2945C13.5473 17.2262 14.0873 17.1432 14.6733 17.0418L17.8367 16.4955C17.9597 16.4745 18.0603 16.3862 18.098 16.2672C18.1357 16.1485 18.1037 16.0185 18.015 15.9305C16.4623 14.3868 15.6747 12.5598 15.6747 10.5002ZM9.00001 2.50016C9.00001 1.94883 9.44867 1.50016 10 1.50016C10.5513 1.50016 11 1.94883 11 2.50016V2.56083C10.3357 2.4655 9.66167 2.4695 9.00001 2.5765V2.50016ZM10.061 18.5002C9.21701 18.5002 8.42834 18.0808 7.92201 17.3952C8.66701 17.4718 9.36234 17.5105 10.0573 17.5105C10.755 17.5105 11.4527 17.4718 12.2007 17.3942C11.694 18.0805 10.905 18.5002 10.061 18.5002ZM14.5603 16.3845C13.9207 16.4948 13.3343 16.5845 12.7803 16.6552C12.7797 16.6552 12.779 16.6552 12.778 16.6552C12.5337 16.6862 12.2963 16.7132 12.064 16.7365C12.062 16.7365 12.0603 16.7368 12.0583 16.7368C11.8453 16.7582 11.6373 16.7755 11.4313 16.7902C11.3927 16.7928 11.354 16.7955 11.3157 16.7978C11.1373 16.8095 10.961 16.8188 10.7857 16.8255C10.75 16.8268 10.714 16.8288 10.6783 16.8298C10.2637 16.8438 9.85467 16.8438 9.44034 16.8302C9.40334 16.8288 9.36601 16.8268 9.32901 16.8255C9.15667 16.8185 8.98301 16.8098 8.80734 16.7982C8.76567 16.7955 8.72401 16.7928 8.68201 16.7898C8.48234 16.7755 8.28034 16.7588 8.07401 16.7382C8.06634 16.7375 8.05901 16.7368 8.05134 16.7362C7.82067 16.7132 7.58534 16.6862 7.34334 16.6555C7.34234 16.6555 7.34134 16.6555 7.34034 16.6555C6.78434 16.5852 6.19567 16.4948 5.55334 16.3842L3.00001 15.9435C4.32767 14.4255 5.00001 12.5975 5.00001 10.5002V7.50216C5.01134 5.6905 6.29601 4.28983 7.56367 3.70516C7.94067 3.5315 8.33167 3.40183 8.72934 3.31083C8.73267 3.31016 8.73634 3.3105 8.73967 3.30983C9.56134 3.12516 10.4353 3.11683 11.2663 3.28716C11.2707 3.28816 11.275 3.28616 11.2793 3.28683C11.714 3.3775 12.142 3.51483 12.5543 3.70316C13.784 4.2655 15.0197 5.65683 15.008 7.5005V10.5005C15.008 12.5115 15.733 14.3815 17.1123 15.9442L14.5603 16.3845Z" fill="#81909F"/>
<path d="M12.139 4.61284C10.8473 4.02251 9.26567 4.02184 7.98267 4.61351C7.25101 4.95084 6.01001 5.93784 6.00001 7.49817C5.99901 7.68217 6.147 7.83217 6.33134 7.8335C6.332 7.8335 6.33267 7.8335 6.33334 7.8335C6.51634 7.8335 6.66567 7.68584 6.66667 7.50217C6.67434 6.2765 7.67301 5.49051 8.26167 5.21884C9.37167 4.70651 10.7437 4.70784 11.8613 5.21884C12.029 5.29551 12.2267 5.22184 12.3033 5.05451C12.38 4.88684 12.306 4.68917 12.139 4.61284Z" fill="#81909F"/>
<path d="M1.60067 7.59775C1.47033 7.46742 1.25967 7.46742 1.12933 7.59775C0.401 8.32608 0 9.29542 0 10.3277C0 11.3601 0.401 12.3297 1.12933 13.0577C1.19433 13.1227 1.27967 13.1554 1.365 13.1554C1.45033 13.1554 1.53567 13.1227 1.60067 13.0577C1.731 12.9274 1.731 12.7167 1.60067 12.5864C0.998333 11.9841 0.666667 11.1821 0.666667 10.3277C0.666667 9.47342 0.998333 8.67108 1.60067 8.06908C1.73067 7.93875 1.73067 7.72808 1.60067 7.59775Z" fill="#81909F"/>
<path d="M2.76816 12.3966C2.85349 12.3966 2.93883 12.3639 3.00383 12.2989C3.13416 12.1686 3.13416 11.9579 3.00383 11.8276C2.15116 10.9749 2.15116 9.58792 3.00383 8.73559C3.13416 8.60525 3.13416 8.39459 3.00383 8.26425C2.87349 8.13392 2.66283 8.13392 2.53249 8.26425C1.42016 9.37659 1.42016 11.1869 2.53249 12.2989C2.59749 12.3643 2.68283 12.3966 2.76816 12.3966Z" fill="#81909F"/>
<path d="M18.8708 7.59775C18.7405 7.46742 18.5298 7.46742 18.3995 7.59775C18.2692 7.72808 18.2692 7.93875 18.3995 8.06908C19.0018 8.67142 19.3335 9.47342 19.3335 10.3277C19.3335 11.1821 19.0018 11.9841 18.3995 12.5864C18.2692 12.7167 18.2692 12.9274 18.3995 13.0577C18.4645 13.1227 18.5498 13.1554 18.6352 13.1554C18.7205 13.1554 18.8058 13.1227 18.8708 13.0577C19.5992 12.3297 20.0002 11.3601 20.0002 10.3277C20.0002 9.29542 19.5992 8.32608 18.8708 7.59775Z" fill="#81909F"/>
<path d="M16.9962 8.26425C16.8659 8.39459 16.8659 8.60525 16.9962 8.73559C17.8489 9.58825 17.8489 10.9753 16.9962 11.8276C16.8659 11.9579 16.8659 12.1686 16.9962 12.2989C17.0612 12.3639 17.1465 12.3966 17.2319 12.3966C17.3172 12.3966 17.4025 12.3639 17.4675 12.2989C18.5799 11.1866 18.5799 9.37625 17.4675 8.26425C17.3372 8.13392 17.1262 8.13392 16.9962 8.26425Z" fill="#81909F"/>
</svg>
