<svg width="40" height="40" viewBox="0 0 40 40" fill="none" xmlns="http://www.w3.org/2000/svg">
<g clip-path="url(#clip0)">
<path d="M33.987 13.3667C33.9866 13.3667 33.9861 13.3667 33.9857 13.3667H0.572699C0.256779 13.3664 0.000334457 13.6221 3.26992e-07 13.9381C3.26992e-07 13.9385 3.26992e-07 13.939 3.26992e-07 13.9394V29.9776C-0.000333803 30.2935 0.255442 30.55 0.571362 30.5503C0.57178 30.5503 0.572281 30.5503 0.572699 30.5503H23.2935C23.6098 30.5503 23.8662 30.2939 23.8662 29.9776C23.8662 29.6614 23.6098 29.4049 23.2935 29.4049H1.1454V14.5121H33.413V15.9442C33.4126 16.2601 33.6684 16.5165 33.9843 16.5169C33.9847 16.5169 33.9852 16.5169 33.9857 16.5169C34.3016 16.5172 34.558 16.2614 34.5584 15.9455C34.5584 15.9451 34.5584 15.9446 34.5584 15.9442V13.9394C34.5587 13.6235 34.3029 13.3671 33.987 13.3667Z" fill="#51C569"/>
<path d="M30.1016 10.7079L3.37119 4.69355C3.22284 4.66038 3.06739 4.68728 2.93883 4.76839C2.81044 4.85017 2.71964 4.97939 2.68623 5.12791L1.34971 11.1422C1.28105 11.4512 1.47584 11.7572 1.78475 11.8259C2.09365 11.8945 2.39971 11.6997 2.46838 11.3908L3.67993 5.93718L29.8503 11.8252C29.8917 11.8348 29.9341 11.8396 29.9766 11.8392C30.2929 11.8387 30.5488 11.5818 30.5483 11.2655C30.5478 10.9982 30.3624 10.7668 30.1016 10.7079Z" fill="#51C569"/>
<path d="M26.8559 7.39345L10.8176 0.710854C10.5389 0.594661 10.2177 0.714029 10.0825 0.984172L8.74603 3.65721C8.59509 3.93638 8.699 4.28512 8.97825 4.43607C9.25742 4.58701 9.60616 4.48309 9.75711 4.20385C9.76304 4.1929 9.76863 4.18171 9.77381 4.17035V4.17169L10.8704 1.97712L26.4135 8.45322C26.7062 8.57535 27.0425 8.43719 27.1646 8.14449C27.2867 7.85196 27.1486 7.51566 26.8559 7.39345Z" fill="#51C569"/>
<path d="M27.2614 16.0396H21.9575C21.6412 16.0396 21.3848 16.296 21.3848 16.6122C21.3848 16.9285 21.6412 17.1849 21.9575 17.1849H27.2614C27.5777 17.1849 27.8341 16.9285 27.8341 16.6122C27.8341 16.296 27.5777 16.0396 27.2614 16.0396Z" fill="#51C569"/>
<path d="M16.6112 16.0776C13.3633 16.0776 10.7305 18.7105 10.7305 21.9583C10.7338 25.2047 13.3647 27.8356 16.6112 27.839C19.859 27.839 22.4918 25.2061 22.4918 21.9583C22.4918 18.7105 19.859 16.0776 16.6112 16.0776ZM16.6112 26.7698C13.9538 26.7698 11.7997 24.6156 11.7997 21.9583C11.8026 19.3022 13.9551 17.1498 16.6112 17.1468C19.2685 17.1468 21.4226 19.301 21.4226 21.9583C21.4226 24.6156 19.2685 26.7698 16.6112 26.7698Z" fill="#51C569"/>
<path d="M32.6487 17.9487C29.1069 17.9487 25.2979 18.7854 25.2979 20.6218V36.66C25.2979 38.4964 29.1069 39.333 32.6487 39.333C36.1905 39.333 39.9996 38.4964 39.9996 36.66V20.6218C39.9996 18.7854 36.1905 17.9487 32.6487 17.9487ZM38.663 36.65C38.5621 37.0208 36.558 37.9965 32.6487 37.9965C28.7394 37.9965 26.7353 37.0208 26.6344 36.66V35.6095C28.0564 36.3258 30.4054 36.66 32.6487 36.66C34.8921 36.66 37.2417 36.3225 38.663 35.6088V36.65ZM38.663 33.9769C38.5621 34.3478 36.558 35.3235 32.6487 35.3235C28.7394 35.3235 26.7353 34.3478 26.6344 33.9869V32.9364C28.0564 33.6528 30.4054 33.9869 32.6487 33.9869C34.8921 33.9869 37.2417 33.6495 38.663 32.9358V33.9769ZM38.663 31.3039C38.5621 31.6748 36.558 32.6504 32.6487 32.6504C28.7394 32.6504 26.7353 31.6748 26.6344 31.3139V30.2634C28.0564 30.9798 30.4054 31.3139 32.6487 31.3139C34.8921 31.3139 37.2417 30.9764 38.663 30.2627V31.3039ZM38.663 28.6308C38.5621 29.0017 36.558 29.9774 32.6487 29.9774C28.7394 29.9774 26.7353 29.0017 26.6344 28.6409V27.5904C28.0564 28.3067 30.4054 28.6409 32.6487 28.6409C34.8921 28.6409 37.2417 28.3034 38.663 27.5897V28.6308ZM38.663 25.9578C38.5621 26.3287 36.558 27.3044 32.6487 27.3044C28.7394 27.3044 26.7353 26.3287 26.6344 25.9678V24.9173C28.0564 25.6304 30.4054 25.9678 32.6487 25.9678C34.8921 25.9678 37.2417 25.6304 38.663 24.9167V25.9578ZM38.663 23.2848C38.5621 23.6557 36.558 24.6313 32.6487 24.6313C28.7394 24.6313 26.7353 23.6557 26.6344 23.2948V22.2443C28.0564 22.9573 30.4054 23.2948 32.6487 23.2948C34.8921 23.2948 37.2417 22.9573 38.663 22.2436V23.2848ZM32.6487 21.9583C28.7454 21.9583 26.742 20.9853 26.6344 20.6338V20.6298C26.742 20.2576 28.7454 19.2852 32.6487 19.2852C36.5246 19.2852 38.5294 20.2435 38.663 20.6218C38.5294 21 36.5246 21.9583 32.6487 21.9583Z" fill="#51C569"/>
<path d="M11.2644 26.731H6.21298L3.81794 24.1115V19.7678L6.46291 17.185H11.2644C11.5806 17.185 11.8371 16.9285 11.8371 16.6123C11.8371 16.296 11.5806 16.0396 11.2644 16.0396H6.23036C6.08067 16.0392 5.93674 16.0975 5.8294 16.2019L2.84429 19.1135C2.73277 19.2439 2.67163 19.4098 2.67188 19.5813V24.334C2.67188 24.4769 2.72525 24.6147 2.82157 24.7203L5.5367 27.69C5.64521 27.8088 5.79875 27.8765 5.95971 27.8764H11.2644C11.5806 27.8764 11.8371 27.62 11.8371 27.3037C11.8371 26.9875 11.5807 26.731 11.2644 26.731Z" fill="#51C569"/>
<path d="M16.9454 21.2901H16.2771C16.0693 21.2901 15.943 21.1738 15.943 21.123C15.943 21.0722 16.0693 20.9559 16.2771 20.9559H17.9477C18.3168 20.9559 18.616 20.6567 18.616 20.2877C18.616 19.9186 18.3168 19.6194 17.9477 19.6194H17.2795C17.2795 19.2504 16.9803 18.9512 16.6112 18.9512C16.2422 18.9512 15.943 19.2504 15.943 19.6194V19.6495C15.2018 19.7542 14.6403 20.3719 14.6064 21.1197C14.6543 21.9958 15.4006 22.669 16.2771 22.6266H16.9454C17.1532 22.6266 17.2795 22.7429 17.2795 22.7937C17.2795 22.8444 17.1532 22.9607 16.9454 22.9607H15.2747C14.9057 22.9607 14.6064 23.2599 14.6064 23.629C14.6064 23.998 14.9057 24.2972 15.2747 24.2972H15.943C15.943 24.6663 16.2422 24.9655 16.6112 24.9655C16.9803 24.9655 17.2795 24.6663 17.2795 24.2972V24.2672C18.0207 24.1625 18.5822 23.5448 18.616 22.797C18.5681 21.9208 17.8219 21.2476 16.9454 21.2901Z" fill="#51C569"/>
</g>
<defs>
<clipPath id="clip0">
<rect width="40" height="40" fill="white"/>
</clipPath>
</defs>
</svg>
