<svg width="40" height="40" viewBox="0 0 40 40" fill="none" xmlns="http://www.w3.org/2000/svg">
<g clip-path="url(#clip0)">
<path d="M11.0581 6.68495C11.3294 7.47031 12.0608 7.99833 12.8781 7.99833H17.8323C18.6497 7.99833 19.381 7.47031 19.6524 6.68495C19.911 5.93426 20.7237 4.25487 21.3544 3.72152C21.9071 3.25284 22.1665 2.52681 22.0304 1.82679C21.8971 1.1381 21.4164 0.594082 20.7451 0.372074C18.7443 -0.291281 16.9696 -0.0679405 15.6129 1.01676C15.3696 1.21144 15.0429 1.21144 14.7995 1.01676C13.4428 -0.0672739 11.6694 -0.290615 9.66737 0.372741C8.99602 0.594748 8.51467 1.1381 8.38133 1.82746C8.24533 2.52748 8.50467 3.2535 9.05735 3.72219C9.77138 4.32621 10.8647 6.12493 11.0581 6.68495ZM9.69071 2.08146C9.71471 1.95679 9.79871 1.73412 10.0867 1.63878C10.7067 1.43344 11.2848 1.33144 11.8194 1.33144C12.6421 1.33144 13.3608 1.57411 13.9668 2.0588C14.6969 2.64348 15.7169 2.64215 16.4456 2.0588C17.4463 1.25877 18.751 1.11743 20.3257 1.63878C20.6137 1.73412 20.6971 1.95746 20.7211 2.08146C20.7657 2.31281 20.6804 2.54548 20.4924 2.70482C19.4737 3.56751 18.563 5.75559 18.3923 6.25094C18.307 6.49894 18.0817 6.66562 17.833 6.66562H12.8788C12.6295 6.66562 12.4048 6.49894 12.3195 6.25094C12.0415 5.44558 10.8047 3.45484 9.92005 2.70482C9.73138 2.54481 9.64537 2.31214 9.69071 2.08146Z" fill="#F7F9FC"/>
<path d="M21.0228 9.33222C21.0228 8.9642 20.7241 8.66553 20.3561 8.66553C20.2321 8.66553 20.1221 8.70886 20.0228 8.76753C19.9234 8.7082 19.8134 8.66553 19.6894 8.66553H11.6891C11.3211 8.66553 11.0225 8.9642 11.0225 9.33222C11.0225 9.70023 11.3211 9.99891 11.6891 9.99891H19.6894V10.6656H12.3558C11.9878 10.6656 11.6891 10.9643 11.6891 11.3323C11.6891 11.7003 11.9878 11.999 12.3558 11.999H20.3061C20.9035 12.4963 21.6395 12.781 22.4255 12.781C23.3155 12.781 24.1529 12.4337 24.7829 11.8036C25.0436 11.543 25.0436 11.1216 24.7829 10.8609C24.5222 10.6003 24.1009 10.6003 23.8402 10.8609C23.0869 11.6143 21.7815 11.6163 21.0228 10.8703V9.33222Z" fill="#F7F9FC"/>
<path d="M14.3561 17.3325C10.082 17.3325 5.02246 22.7534 5.02246 27.3329C5.02246 27.7009 5.32114 27.9995 5.68915 27.9995C6.05716 27.9995 6.35584 27.7009 6.35584 27.3329C6.35584 23.5261 10.842 18.6659 14.3561 18.6659C14.7241 18.6659 15.0228 18.3672 15.0228 17.9992C15.0228 17.6312 14.7241 17.3325 14.3561 17.3325Z" fill="#F7F9FC"/>
<path d="M33.023 21.3325C32.3356 21.3325 31.5169 21.3725 30.6916 21.4665C29.7935 19.8224 28.6095 18.4084 27.1148 17.2637L22.3133 14.0002C21.5192 13.3909 20.2679 12.6655 18.8158 12.6655H13.631C12.3483 12.6655 11.0869 13.1022 10.0975 13.8802L5.37871 17.3183C0.460546 21.1851 -1.09617 27.9614 1.67792 33.4309C2.68729 35.4209 4.37334 37.8257 6.67875 37.9817C6.85943 37.9937 7.0421 38.0004 7.2261 38.0004H20.1992C21.1779 39.2177 22.676 40.0004 24.356 40.0004C26.2881 40.0004 27.9788 38.9637 28.9148 37.421C30.1062 37.791 31.5669 38.0004 33.023 38.0004C36.2291 38.0004 39.6899 36.981 39.6899 35.3336V31.6668H39.6372C39.6692 31.5588 39.6899 31.4482 39.6899 31.3335V27.3333V23.6666C39.6899 21.8238 35.499 21.3325 33.023 21.3325ZM38.3058 23.6599C38.2918 23.6739 38.2805 23.6879 38.2611 23.7032C38.2351 23.7239 38.2038 23.7459 38.1685 23.7686C38.1245 23.7966 38.0711 23.8259 38.0131 23.8552C37.9658 23.8792 37.9165 23.9039 37.8598 23.9286C37.7898 23.9599 37.7071 23.9912 37.6225 24.0232C37.5544 24.0486 37.4858 24.0739 37.4084 24.0999C37.3111 24.1319 37.1991 24.1639 37.0864 24.1952C36.9984 24.2199 36.9118 24.2452 36.8144 24.2692C36.6878 24.3006 36.5451 24.3292 36.4031 24.3579C36.2957 24.3799 36.1937 24.4026 36.0777 24.4233C35.9177 24.4513 35.7391 24.4753 35.5624 24.4993C35.4417 24.5159 35.329 24.5346 35.2004 24.5493C34.9904 24.5733 34.759 24.5899 34.5283 24.6066C34.411 24.6153 34.3043 24.6273 34.1817 24.6346C33.8177 24.6546 33.4323 24.6666 33.021 24.6666C32.6096 24.6666 32.2243 24.6546 31.8603 24.6346C31.7376 24.6279 31.6309 24.6159 31.5136 24.6066C31.2829 24.5893 31.0516 24.5726 30.8416 24.5493C30.7129 24.5346 30.6002 24.5159 30.4795 24.4993C30.3029 24.4753 30.1242 24.4513 29.9642 24.4233C29.8482 24.4026 29.7462 24.3799 29.6389 24.3579C29.4968 24.3286 29.3542 24.2999 29.2275 24.2692C29.1302 24.2452 29.0442 24.2206 28.9555 24.1952C28.8428 24.1639 28.7315 24.1319 28.6335 24.0999C28.5562 24.0746 28.4875 24.0486 28.4195 24.0232C28.3348 23.9912 28.2521 23.9599 28.1821 23.9286C28.1255 23.9039 28.0761 23.8792 28.0288 23.8552C27.9708 23.8252 27.9175 23.7959 27.8735 23.7686C27.8381 23.7459 27.8068 23.7246 27.7808 23.7032C27.7628 23.6892 27.7528 23.6766 27.7395 23.6632C27.7475 23.6566 27.7528 23.6499 27.7621 23.6426C27.7868 23.6219 27.8221 23.5986 27.8568 23.5759C27.9108 23.5406 27.9781 23.5032 28.0575 23.4632C28.1008 23.4412 28.1435 23.4199 28.1941 23.3979C28.2468 23.3745 28.3075 23.3512 28.3681 23.3272C28.4401 23.2992 28.5188 23.2712 28.6021 23.2432C28.6622 23.2232 28.7202 23.2025 28.7868 23.1825C28.9362 23.1372 29.0995 23.0925 29.2788 23.0492C29.3615 23.0292 29.4575 23.0112 29.5475 22.9925C29.6562 22.9692 29.7675 22.9465 29.8855 22.9252C30.0155 22.9019 30.1535 22.8799 30.2962 22.8585C31.0476 22.7452 31.9469 22.6665 33.0196 22.6665C36.1704 22.6659 37.9325 23.3159 38.3058 23.6599ZM28.1395 29.1447C28.1995 29.1701 28.2615 29.1941 28.3241 29.2187C28.4401 29.2641 28.5588 29.3067 28.6815 29.3487C28.7462 29.3707 28.8095 29.3921 28.8755 29.4127C29.0162 29.4568 29.1608 29.4974 29.3088 29.5368C29.3608 29.5508 29.4108 29.5661 29.4635 29.5788C29.6655 29.6294 29.8722 29.6761 30.0842 29.7174C30.1282 29.7261 30.1742 29.7328 30.2189 29.7414C30.3889 29.7734 30.5609 29.8028 30.7356 29.8288C30.8102 29.8401 30.8856 29.8494 30.9609 29.8594C31.1109 29.8794 31.2616 29.8974 31.4142 29.9134C31.4942 29.9214 31.5742 29.9294 31.6543 29.9368C31.8116 29.9508 31.9696 29.9614 32.1283 29.9708C32.1989 29.9748 32.2696 29.9801 32.3403 29.9834C32.5683 29.9934 32.7956 30.0001 33.0223 30.0001C33.249 30.0001 33.4763 29.9934 33.7043 29.9834C33.7763 29.9801 33.8483 29.9748 33.9203 29.9708C34.077 29.9614 34.2337 29.9508 34.3897 29.9374C34.4717 29.9301 34.5537 29.9221 34.635 29.9134C34.785 29.8981 34.9337 29.8801 35.0817 29.8601C35.159 29.8501 35.2364 29.8401 35.313 29.8288C35.485 29.8034 35.6544 29.7741 35.8217 29.7428C35.8691 29.7341 35.9171 29.7268 35.9644 29.7174C36.1751 29.6754 36.3811 29.6294 36.5817 29.5794C36.6377 29.5654 36.6911 29.5494 36.7464 29.5348C36.8911 29.4961 37.0331 29.4561 37.1704 29.4127C37.2378 29.3914 37.3024 29.3694 37.3678 29.3474C37.4898 29.3061 37.6085 29.2627 37.7238 29.2181C37.7858 29.1941 37.8478 29.1694 37.9078 29.1441C38.0278 29.0934 38.1418 29.0401 38.2518 28.9854C38.2865 28.9681 38.3258 28.9534 38.3591 28.9361L38.3631 31.2855C38.2065 31.6648 36.4837 32.5102 33.7657 32.6455C33.5216 32.6542 33.2856 32.6662 33.0223 32.6662C31.5536 32.6662 30.1029 32.4409 28.9948 32.0448C28.9908 32.0382 28.9862 32.0315 28.9822 32.0248C28.9035 31.8875 28.8202 31.7535 28.7302 31.6242C28.7168 31.6048 28.7015 31.5868 28.6875 31.5675C28.6041 31.4508 28.5181 31.3368 28.4255 31.2275C28.3975 31.1948 28.3675 31.1648 28.3388 31.1321C28.2568 31.0395 28.1741 30.9481 28.0861 30.8615C28.0408 30.8168 27.9921 30.7768 27.9455 30.7335C27.8681 30.6628 27.7921 30.5921 27.7115 30.5261C27.7035 30.5195 27.6968 30.5121 27.6888 30.5061C27.6888 30.2454 27.6895 29.6661 27.6901 28.9374C27.7241 28.9554 27.7648 28.9707 27.7995 28.9881C27.9095 29.0421 28.0215 29.0947 28.1395 29.1447ZM19.3318 36.6663H7.2261C7.0721 36.6663 6.91876 36.661 6.76742 36.651C5.45738 36.5623 4.072 35.2043 2.86663 32.8275C0.37921 27.9234 1.78259 21.8412 6.18274 18.3811L10.9016 14.9429C11.6763 14.3342 12.6456 13.9989 13.6303 13.9989H18.8152C19.8932 13.9989 20.8706 14.5749 21.5326 15.0809L26.3341 18.3437C27.5268 19.2584 28.5208 20.3771 29.2975 21.6778C28.4535 21.8518 27.6375 22.1172 27.0768 22.5065C27.0614 22.5172 27.0461 22.5279 27.0308 22.5385C26.9461 22.5999 26.8688 22.6645 26.7981 22.7325C26.7681 22.7612 26.7414 22.7905 26.7141 22.8205C26.6614 22.8785 26.6108 22.9372 26.5694 22.9999C26.5347 23.0512 26.5094 23.1065 26.4827 23.1612C26.4594 23.2105 26.4314 23.2579 26.4147 23.3099C26.3781 23.4226 26.3554 23.5406 26.3554 23.6659V27.3327V29.7254C26.1307 29.6341 25.8981 29.5608 25.6594 29.5008C25.628 29.4928 25.5967 29.4841 25.5654 29.4768C25.332 29.4221 25.094 29.3807 24.8507 29.3581C24.8234 29.3554 24.796 29.3561 24.7687 29.3541C24.632 29.3434 24.4947 29.3334 24.3553 29.3334C24.282 29.3334 24.2113 29.3414 24.1387 29.3441C24.082 29.3461 24.0253 29.3487 23.9687 29.3527C23.7313 29.3701 23.4966 29.3974 23.2686 29.4447C23.264 29.4454 23.26 29.4454 23.2553 29.4467C23.2373 29.4508 23.2206 29.4581 23.2026 29.4621C22.994 29.5081 22.7906 29.5688 22.592 29.6394C22.5199 29.6648 22.4479 29.6901 22.3773 29.7181C22.1793 29.7974 21.9859 29.8854 21.7999 29.9874C21.7299 30.0254 21.6646 30.0694 21.5966 30.1108C21.4666 30.1901 21.3399 30.2734 21.2179 30.3634C21.1459 30.4161 21.0732 30.4675 21.0039 30.5235C20.8472 30.6501 20.6979 30.7855 20.5565 30.9295C20.4945 30.9921 20.4379 31.0588 20.3792 31.1248C20.2792 31.2368 20.1839 31.3535 20.0939 31.4735C20.0452 31.5388 19.9939 31.6008 19.9479 31.6682C19.8305 31.8395 19.7259 32.0195 19.6292 32.2042C19.5919 32.2762 19.5578 32.3495 19.5232 32.4235C19.4472 32.5869 19.3792 32.7535 19.3198 32.9255C19.3025 32.9755 19.2812 33.0229 19.2658 33.0735C19.1972 33.2922 19.1472 33.5189 19.1072 33.7482C19.1018 33.7776 19.0912 33.8056 19.0865 33.8349C19.0812 33.8709 19.0812 33.9096 19.0765 33.9456C19.0552 34.1022 19.0418 34.2609 19.0345 34.4216C19.0318 34.4789 19.0265 34.5356 19.0258 34.5936C19.0258 34.6183 19.0218 34.6423 19.0218 34.6669C19.0218 34.7729 19.0318 34.8763 19.0378 34.9803C19.0638 35.5563 19.1578 36.135 19.3318 36.6663ZM24.356 38.6664C22.1659 38.6664 20.3839 36.897 20.3585 34.7136C20.3585 34.6616 20.3599 34.6103 20.3619 34.5583C20.3639 34.4849 20.3672 34.4122 20.3732 34.3396C20.3779 34.2782 20.3852 34.2176 20.3925 34.1569C20.4005 34.0949 20.4099 34.0336 20.4205 33.9729C20.4505 33.7996 20.4892 33.6282 20.5419 33.4622C20.5472 33.4442 20.5552 33.4275 20.5612 33.4102C20.6172 33.2429 20.6846 33.0795 20.7626 32.9215C20.7699 32.9062 20.7772 32.8909 20.7846 32.8762C21.1439 32.1708 21.7113 31.5748 22.3986 31.1821C22.4013 31.1808 22.4033 31.1788 22.4059 31.1775C22.5619 31.0888 22.726 31.0141 22.8926 30.9475C22.936 30.9301 22.98 30.9148 23.0233 30.8995C23.1713 30.8468 23.322 30.8008 23.4773 30.7668C23.4986 30.7621 23.5186 30.7548 23.54 30.7508C23.7327 30.7115 23.926 30.6901 24.1187 30.6788C24.1553 30.6768 24.192 30.6741 24.2293 30.6735C24.426 30.6675 24.622 30.6728 24.8154 30.6955C24.8267 30.6968 24.8374 30.6988 24.848 30.7008C25.052 30.7261 25.254 30.7668 25.4527 30.8241C25.4554 30.8248 25.4587 30.8255 25.4614 30.8261C25.6661 30.8855 25.8667 30.9621 26.0627 31.0548C26.2427 31.1401 26.4181 31.2355 26.5821 31.3455L26.6087 31.3641C26.6321 31.3801 26.6534 31.3981 26.6761 31.4141C26.7868 31.4935 26.8928 31.5775 26.9948 31.6675C27.0194 31.6888 27.0434 31.7115 27.0674 31.7335C27.1694 31.8282 27.2668 31.9268 27.3581 32.0308C27.3674 32.0415 27.3768 32.0508 27.3861 32.0615C27.5981 32.3082 27.7808 32.5809 27.9275 32.8735C27.9615 32.9402 27.9955 33.0075 28.0255 33.0762C28.0761 33.1929 28.1201 33.3109 28.1595 33.4302C28.1621 33.4389 28.1661 33.4475 28.1688 33.4562C28.2075 33.5769 28.2388 33.6996 28.2655 33.8229C28.2675 33.8329 28.2708 33.8422 28.2728 33.8516C28.2981 33.9742 28.3168 34.0982 28.3308 34.2229C28.3321 34.2342 28.3348 34.2442 28.3361 34.2556C28.3501 34.3916 28.3575 34.5283 28.3575 34.6663C28.3575 34.8076 28.3495 34.9483 28.3348 35.0883C28.3328 35.1089 28.3281 35.1283 28.3255 35.1489C28.3108 35.2696 28.2928 35.3896 28.2668 35.5076C28.2641 35.521 28.2595 35.5336 28.2568 35.547C28.2281 35.6736 28.1941 35.799 28.1528 35.923C28.1508 35.9283 28.1488 35.9336 28.1468 35.939C28.1028 36.0683 28.0521 36.1956 27.9948 36.3216C27.3621 37.7024 25.9707 38.6664 24.356 38.6664ZM33.023 36.6663C31.7576 36.6663 30.4982 36.4976 29.4635 36.1956C29.4642 36.1943 29.4642 36.193 29.4642 36.1916C29.5288 35.9756 29.5762 35.753 29.6135 35.5263C29.6222 35.4723 29.6309 35.4189 29.6382 35.3643C29.6682 35.1349 29.6895 34.9036 29.6895 34.6663C29.6895 34.4936 29.6802 34.3222 29.6635 34.1522C29.6575 34.0909 29.6469 34.0316 29.6389 33.9709C29.6275 33.8849 29.6195 33.7982 29.6042 33.7136C30.6155 33.9002 31.7903 33.9996 33.023 33.9996C34.6164 33.9996 36.9198 33.7962 38.3591 33.1602L38.3631 35.2856C38.1925 35.6983 36.1691 36.6663 33.023 36.6663ZM33.023 28.6661C29.8875 28.6661 27.8688 27.7054 27.6928 27.3367C27.6935 26.5767 27.6941 25.8053 27.6941 25.1626C27.7108 25.1699 27.7308 25.1759 27.7481 25.1833C27.9075 25.2513 28.0741 25.3153 28.2515 25.374C28.2608 25.3773 28.2701 25.3806 28.2801 25.3833C28.4615 25.442 28.6528 25.4946 28.8482 25.5433C28.9122 25.5593 28.9782 25.574 29.0435 25.5886C29.1862 25.6213 29.3302 25.6526 29.4775 25.6806C29.5488 25.6946 29.6195 25.708 29.6915 25.7206C29.8535 25.7493 30.0162 25.7746 30.1809 25.7986C30.2329 25.806 30.2842 25.8146 30.3362 25.822C30.5515 25.8506 30.7669 25.876 30.9809 25.8966C31.0349 25.902 31.0876 25.906 31.1416 25.9106C31.3062 25.9253 31.4689 25.9386 31.6303 25.9493C31.7003 25.954 31.7683 25.958 31.8369 25.962C31.9863 25.9706 32.1316 25.9773 32.2756 25.9826C32.3363 25.9846 32.3969 25.9873 32.4563 25.9893C32.6516 25.9946 32.8423 25.998 33.0223 25.998C33.2016 25.998 33.3923 25.9946 33.5877 25.9893C33.6483 25.9873 33.7097 25.9846 33.771 25.9826C33.9137 25.9773 34.0583 25.9706 34.207 25.962C34.277 25.958 34.3457 25.954 34.4163 25.9493C34.5777 25.9386 34.741 25.9253 34.9057 25.91C34.959 25.9053 35.011 25.9013 35.0644 25.896C35.279 25.8746 35.4944 25.85 35.7097 25.8206C35.7624 25.8133 35.8144 25.8046 35.8671 25.7973C36.0311 25.774 36.1937 25.748 36.3551 25.7193C36.4277 25.7066 36.4984 25.6926 36.5697 25.6793C36.7171 25.6506 36.8618 25.62 37.0051 25.5866C37.0704 25.5713 37.1358 25.5573 37.1998 25.5413C37.3991 25.4913 37.5938 25.438 37.7785 25.3779C37.7878 25.3746 37.7958 25.3713 37.8051 25.3686C37.9791 25.3113 38.1438 25.2479 38.3005 25.1813C38.3191 25.1733 38.3411 25.1666 38.3598 25.1586L38.3638 27.284C38.1925 27.698 36.1691 28.6661 33.023 28.6661Z" fill="#F7F9FC"/>
</g>
<defs>
<clipPath id="clip0">
<rect width="40" height="40" fill="white"/>
</clipPath>
</defs>
</svg>
